<svg width="20" height="20" viewBox="0 0 20 20" fill="none" xmlns="http://www.w3.org/2000/svg">
<path d="M16.9137 13.1633C16.8266 13.2507 16.7231 13.32 16.6092 13.3673C16.4952 13.4146 16.3731 13.439 16.2497 13.439C16.1263 13.439 16.0041 13.4146 15.8902 13.3673C15.7762 13.32 15.6727 13.2507 15.5856 13.1633L10.0005 7.5781L4.41374 13.1633C4.23762 13.3394 3.99874 13.4383 3.74967 13.4383C3.5006 13.4383 3.26173 13.3394 3.08561 13.1633C2.90949 12.9871 2.81055 12.7483 2.81055 12.4992C2.81055 12.2501 2.90949 12.0112 3.08561 11.8351L9.33561 5.58513C9.42271 5.49773 9.5262 5.42838 9.64016 5.38106C9.75411 5.33374 9.87628 5.30939 9.99967 5.30939C10.1231 5.30939 10.2452 5.33374 10.3592 5.38106C10.4731 5.42838 10.5766 5.49773 10.6637 5.58513L16.9137 11.8351C17.0011 11.9222 17.0705 12.0257 17.1178 12.1397C17.1651 12.2536 17.1895 12.3758 17.1895 12.4992C17.1895 12.6226 17.1651 12.7448 17.1178 12.8587C17.0705 12.9727 17.0011 13.0762 16.9137 13.1633Z" fill="#9BBA3C"/>
</svg>
