<svg width="20" height="20" viewBox="0 0 20 20" fill="none" xmlns="http://www.w3.org/2000/svg">
<path d="M10.7449 14.5595C10.862 14.6767 10.9278 14.8357 10.9278 15.0013C10.9278 15.167 10.862 15.3259 10.7449 15.4431L9.96833 16.2244C9.1471 17.0451 8.03346 17.506 6.87242 17.5056C5.71138 17.5052 4.59804 17.0437 3.77732 16.2224C2.9566 15.4012 2.49573 14.2876 2.49609 13.1265C2.49646 11.9655 2.95803 10.8521 3.77927 10.0314L5.66365 8.14705C6.45247 7.3576 7.51315 6.89944 8.62866 6.86633C9.74418 6.83322 10.8302 7.22765 11.6644 7.96892C11.726 8.0235 11.7762 8.08967 11.8122 8.16366C11.8482 8.23764 11.8692 8.31799 11.8742 8.40011C11.8791 8.48223 11.8678 8.56452 11.8409 8.64228C11.8141 8.72004 11.7721 8.79174 11.7176 8.8533C11.663 8.91485 11.5968 8.96506 11.5228 9.00104C11.4488 9.03703 11.3685 9.05809 11.2864 9.06302C11.2042 9.06795 11.122 9.05666 11.0442 9.02979C10.9664 9.00292 10.8947 8.961 10.8332 8.90642C10.2373 8.37729 9.46185 8.09577 8.66532 8.11944C7.86879 8.14311 7.1114 8.47018 6.54802 9.03377L4.66365 10.9158C4.07748 11.502 3.74817 12.297 3.74817 13.126C3.74817 13.9549 4.07748 14.7499 4.66365 15.3361C5.24982 15.9223 6.04483 16.2516 6.8738 16.2516C7.70277 16.2516 8.49779 15.9223 9.08396 15.3361L9.86052 14.5595C9.91857 14.5014 9.9875 14.4553 10.0634 14.4239C10.1392 14.3924 10.2206 14.3762 10.3027 14.3762C10.3848 14.3762 10.4662 14.3924 10.542 14.4239C10.6179 14.4553 10.6869 14.5014 10.7449 14.5595ZM16.2199 3.7783C15.3985 2.95878 14.2856 2.49854 13.1254 2.49854C11.9651 2.49854 10.8522 2.95878 10.0308 3.7783L9.25427 4.55564C9.1371 4.67292 9.07131 4.83193 9.07139 4.99771C9.07146 5.16349 9.13739 5.32245 9.25466 5.43963C9.37194 5.5568 9.53096 5.62258 9.69674 5.62251C9.86251 5.62244 10.0215 5.55651 10.1386 5.43923L10.9152 4.66267C11.5014 4.0765 12.2964 3.7472 13.1254 3.7472C13.9543 3.7472 14.7494 4.0765 15.3355 4.66267C15.9217 5.24884 16.251 6.04386 16.251 6.87283C16.251 7.7018 15.9217 8.49682 15.3355 9.08298L13.4511 10.9689C12.8875 11.5322 12.1299 11.8588 11.3334 11.8821C10.5369 11.9053 9.76154 11.6234 9.16599 11.0939C9.10443 11.0393 9.03273 10.9974 8.95497 10.9706C8.87721 10.9437 8.79492 10.9324 8.7128 10.9373C8.54695 10.9473 8.39185 11.0227 8.28162 11.147C8.22704 11.2086 8.18511 11.2803 8.15824 11.3581C8.13138 11.4358 8.12009 11.5181 8.12502 11.6002C8.13498 11.7661 8.21042 11.9212 8.33474 12.0314C9.1688 12.7729 10.2547 13.1676 11.3702 13.1348C12.4857 13.102 13.5465 12.6441 14.3355 11.8549L16.2199 9.97049C17.0399 9.14906 17.5004 8.03583 17.5004 6.87517C17.5004 5.71451 17.0399 4.60128 16.2199 3.77986V3.7783Z" fill="#8D8D86"/>
</svg>
