<svg width="152" height="71" viewBox="0 0 152 71" fill="none" xmlns="http://www.w3.org/2000/svg">
<g clip-path="url(#clip0_964_1323)">
<path d="M9.38419 22.8639C8.6769 16.9548 3.70327 16.3761 1.18186 16.4718C0.358806 16.5028 -0.198839 17.3096 0.0651597 18.0868C0.77951 20.1973 2.94656 23.7425 9.38419 22.8639Z" fill="#8DB1AE"/>
<path d="M37.265 65.4751C43.1422 66.4973 53.1021 65.9665 56.6005 62.5072C58.5304 60.5994 59.4339 57.9046 60.0791 55.1098C60.5732 52.9627 60.9304 50.6536 60.8442 48.2292C60.8386 48.0729 60.8118 47.9152 60.7708 47.7617C60.0056 48.8853 59.1995 49.8891 58.5049 50.6705C50.9647 59.2928 36.5394 65.1442 26.513 57.2527C24.8401 55.9292 23.4326 54.3439 22.3102 52.6051C22.3102 52.6051 22.3088 52.6036 22.3074 52.6036C20.9338 52.5853 19.587 52.5304 18.2825 52.4319C17.8703 52.4023 17.6147 52.8683 17.859 53.2006C22.4966 59.5265 29.5003 64.1868 37.265 65.4751Z" fill="#8DB1AE"/>
<path d="M56.8454 49.0515C61.1287 44.884 58.8571 46.1737 58.524 46.3271C56.6223 47.2071 53.8863 48.1237 50.6336 48.9783C50.4882 49.6175 50.3005 50.2412 50.052 50.8382C49.2586 52.7431 47.8976 54.6016 46.1104 56.118C50.0859 54.4003 53.875 51.9406 56.844 49.0515H56.8454Z" fill="#8DB1AE"/>
<path d="M46.5857 68.1896C40.7579 68.9246 34.6393 68.1474 29.3269 65.5568C24.0356 62.9563 20.5387 60.063 16.6465 53.0753C16.1354 52.1573 13.9246 55.1985 19.981 63.7222C22.1453 66.769 25.3274 68.6711 28.9471 69.8637C32.5655 71.0562 36.6327 71.311 41.149 70.6254C44.5075 70.1157 47.5047 69.1682 50.139 67.787C50.3226 67.6898 50.4991 67.587 50.6783 67.4871C49.3245 67.7884 47.9593 68.0277 46.5857 68.191V68.1896Z" fill="#8DB1AE"/>
<path d="M58.6828 22.2766C54.3233 5.76981 44.575 0.832135 32.6132 2.28091C29.1064 2.70611 26.0993 4.23233 23.7713 6.46956C19.7789 10.3076 20.4749 16.7138 20.4749 16.7138L19.3314 10.7328C18.9841 8.91516 18.2485 7.62689 17.129 6.8666C16.0081 6.10912 14.5963 5.89089 12.8909 6.21472C11.1855 6.53996 9.95163 7.26083 9.19069 8.37733C8.42834 9.49524 8.22363 10.9637 8.57093 12.78L14.9309 46.0287C15.2782 47.8463 16.0151 49.1501 17.1417 49.9385C18.1638 50.6552 19.4641 50.9804 21.0001 50.6834C30.4292 48.8587 23.2702 38.2709 23.6118 28.1154C23.9648 17.6388 38.8447 11.6311 44.0146 23.5508C45.4532 26.8651 50.52 25.6528 50.52 25.6528L46.9454 30.3512C46.9454 30.3512 50.7204 37.7288 50.983 44.7573C56.5595 42.8946 58.8169 39.7351 59.6216 36.9742C60.3924 34.3244 60.8555 30.5032 58.6828 22.2766Z" fill="#8DB1AE"/>
<path d="M132.728 50.379C129.416 49.8342 126.631 48.7331 124.375 47.0802C122.118 45.4273 120.496 43.3182 119.51 40.7557C118.523 38.1932 118.293 35.321 118.82 32.1391C119.219 29.7216 119.962 27.621 121.046 25.8343C122.129 24.0476 123.511 22.5988 125.188 21.4894C126.865 20.3799 128.771 19.6379 130.909 19.2662C133.045 18.8945 135.364 18.9142 137.869 19.3253C141.179 19.8702 143.965 20.9712 146.222 22.6242C148.478 24.2785 150.092 26.3749 151.062 28.9135C152.031 31.4534 152.25 34.3326 151.717 37.5554C151.323 39.9321 150.582 42.0229 149.496 43.8307C148.409 45.6371 147.035 47.0985 145.379 48.2108C143.722 49.3245 141.815 50.0651 139.659 50.4339C137.502 50.8028 135.192 50.7845 132.728 50.379ZM134.039 42.465C135.128 42.6438 136.143 42.5325 137.081 42.1285C138.018 41.7244 138.812 41.0077 139.46 39.9757C140.106 38.9451 140.578 37.5428 140.871 35.7702C141.318 33.0725 141.114 31.0423 140.262 29.6808C139.407 28.3207 138.174 27.5055 136.559 27.2408C135.469 27.062 134.455 27.1634 133.52 27.5477C132.586 27.9321 131.784 28.6375 131.116 29.6653C130.448 30.6945 129.964 32.1137 129.663 33.9258C129.223 36.584 129.428 38.6044 130.279 39.9856C131.129 41.3668 132.381 42.1932 134.037 42.4664L134.039 42.465Z" fill="#8DB1AE"/>
<path d="M68.77 16.1025C67.2114 16.2771 65.0416 14.9198 64.4514 13.1036C64.1112 12.0575 64.3484 10.8058 65.1898 10.4679C67.1634 9.67805 67.875 11.5957 68.3098 11.6604C68.6797 11.7168 69.1187 9.27256 71.0655 9.80758C71.9295 10.0455 72.5451 10.8241 72.3531 12.2152C72.1399 13.7498 70.7592 15.8772 68.77 16.1011V16.1025Z" fill="#8DB1AE"/>
<path d="M67.852 45.5875C66.6619 44.8709 66.1692 43.2715 65.9546 41.3637L64.1518 24.5134C63.9372 22.607 64.2393 21.0949 65.0609 19.9742C65.8826 18.8548 67.1475 18.2001 68.8558 18.0072C70.6035 17.8115 72.0139 18.1663 73.0854 19.0731C74.1555 19.9798 74.7993 21.3877 75.0139 23.2941L76.8167 40.1444C77.1795 43.1053 78.0689 43.7544 78.0689 43.7544C78.0689 43.7544 72.4402 48.3528 67.8534 45.5875H67.852Z" fill="#8DB1AE"/>
<path d="M94.2208 46.7511C91.6387 46.7849 89.3149 46.0655 87.2792 44.5364C85.2448 43.0074 83.6383 40.7631 82.5286 37.8149C81.4204 34.8695 80.946 31.3764 81.1874 27.4271C81.4345 23.3778 82.3324 20.0142 83.7695 17.3912C85.2081 14.7654 87.0477 12.9069 89.2246 11.7932C91.4015 10.6767 93.7676 10.3979 96.3046 10.8738C98.5224 11.2878 100.557 12.0762 102.025 13.6911C103.99 15.8537 104.336 18.557 104.339 18.5598C104.912 13.877 105.68 9.23497 106.639 4.64787C107.033 2.75981 107.822 1.43916 108.965 0.695762C110.11 -0.0476341 111.537 -0.187021 113.244 0.243811C114.912 0.664788 116.096 1.45746 116.813 2.60212C117.53 3.7496 117.693 5.18712 117.324 6.95127C115.054 17.8474 113.93 29.0744 114.031 40.445C114.05 42.9694 115.185 44.7828 115.184 44.78C115.181 44.7322 108.471 48.114 104.726 44.8786C103.68 43.9592 103.232 42.3738 103.217 40.4083C103.207 39.1356 103.211 37.8656 103.229 36.5956C103.142 36.5787 103.293 46.5188 94.218 46.7526L94.2208 46.7511ZM97.5653 37.6319C98.6721 37.6685 99.6575 37.3883 100.524 36.8068C101.393 36.2253 102.072 35.3313 102.578 34.1247C103.084 32.9195 103.377 31.3496 103.489 29.401C103.66 26.4387 103.322 24.2676 102.389 22.8372C101.456 21.4095 100.19 20.576 98.5634 20.362C97.4664 20.2184 96.4585 20.3845 95.5422 20.8731C94.626 21.363 93.8608 22.2177 93.2594 23.4468C92.658 24.6745 92.2768 26.3556 92.1512 28.4788C91.9691 31.5932 92.442 33.9078 93.4768 35.3693C94.513 36.8336 95.8839 37.577 97.5639 37.6319H97.5653Z" fill="#8DB1AE"/>
<path d="M65.1104 59.4447C64.9184 59.4447 64.7716 59.3898 64.6685 59.28C64.5655 59.1702 64.5146 59.0195 64.5146 58.828V52.6626C64.5146 52.4641 64.5697 52.3121 64.6798 52.2065C64.7899 52.1009 64.941 52.0474 65.133 52.0474C65.3038 52.0474 65.4393 52.0797 65.5396 52.1445C65.6384 52.2093 65.7302 52.3205 65.8121 52.4782L68.3532 57.1667H68.0243L70.5655 52.4782C70.6473 52.3205 70.7363 52.2107 70.8323 52.1445C70.9283 52.0797 71.0624 52.0474 71.2332 52.0474C71.4252 52.0474 71.572 52.1009 71.6751 52.2065C71.7782 52.3121 71.829 52.4641 71.829 52.6626V58.828C71.829 59.0195 71.7796 59.1702 71.6793 59.28C71.5805 59.3898 71.4309 59.4447 71.2318 59.4447C71.0327 59.4447 70.893 59.3898 70.7899 59.28C70.6869 59.1702 70.636 59.0195 70.636 58.828V54.0776H70.8619L68.7019 58.0072C68.6328 58.1241 68.5608 58.2085 68.4859 58.2635C68.4111 58.3184 68.308 58.3451 68.1768 58.3451C68.0455 58.3451 67.9396 58.3155 67.8577 58.2578C67.7758 58.2001 67.7038 58.117 67.6417 58.0072L65.4605 54.0678H65.7076V58.828C65.7076 59.0195 65.6582 59.1702 65.5579 59.28C65.4591 59.3898 65.3095 59.4447 65.1104 59.4447Z" fill="#8DB1AE"/>
<path d="M75.5927 59.4658C75.0718 59.4658 74.6186 59.3602 74.2346 59.1476C73.8506 58.935 73.5527 58.6323 73.3396 58.2395C73.1264 57.8466 73.0205 57.3834 73.0205 56.8498C73.0205 56.4457 73.0798 56.0853 73.2012 55.7671C73.3212 55.4489 73.4949 55.1758 73.7207 54.9463C73.9466 54.7168 74.2177 54.5422 74.5339 54.4239C74.8487 54.3042 75.2031 54.2451 75.5927 54.2451C76.1137 54.2451 76.5669 54.3507 76.9509 54.5633C77.3349 54.7759 77.6327 55.0758 77.8459 55.4658C78.0591 55.8558 78.165 56.3176 78.165 56.8512C78.165 57.2553 78.1057 57.6172 77.9857 57.9382C77.8657 58.2606 77.692 58.5351 77.4661 58.7646C77.2403 58.9941 76.9692 59.1687 76.653 59.287C76.3367 59.4067 75.9838 59.4672 75.5927 59.4672V59.4658ZM75.5927 58.4915C75.8469 58.4915 76.0699 58.4295 76.2619 58.307C76.4539 58.1846 76.6036 58.0015 76.7094 57.7579C76.8153 57.5144 76.869 57.2131 76.869 56.8498C76.869 56.3035 76.7518 55.8938 76.5189 55.6235C76.2859 55.3532 75.9767 55.218 75.5927 55.218C75.3386 55.218 75.1156 55.2786 74.9236 55.3982C74.7316 55.5179 74.5819 55.6995 74.476 55.9417C74.3702 56.1839 74.3165 56.4866 74.3165 56.8498C74.3165 57.3905 74.4337 57.7988 74.6666 58.0761C74.8996 58.3535 75.2087 58.4915 75.5927 58.4915Z" fill="#8DB1AE"/>
<path d="M79.8618 59.4447C79.6556 59.4447 79.4975 59.3884 79.3888 59.2757C79.2787 59.1631 79.2236 58.9998 79.2236 58.7886V54.9111C79.2236 54.6999 79.2787 54.538 79.3888 54.4296C79.4989 54.3197 79.6528 54.2662 79.8519 54.2662C80.0509 54.2662 80.2048 54.3211 80.3149 54.4296C80.425 54.5394 80.4787 54.6999 80.4787 54.9111V55.6094L80.3658 55.3532C80.5168 54.9899 80.7512 54.7154 81.0702 54.5267C81.3893 54.338 81.7507 54.2451 82.1559 54.2451C82.561 54.2451 82.8928 54.3197 83.154 54.4704C83.4152 54.621 83.61 54.8477 83.7399 55.1532C83.8697 55.4588 83.9347 55.8417 83.9347 56.3078V58.79C83.9347 59.0026 83.8796 59.1645 83.7695 59.2771C83.6594 59.3898 83.5027 59.4461 83.2966 59.4461C83.0904 59.4461 82.9309 59.3898 82.818 59.2771C82.705 59.1645 82.6486 59.0012 82.6486 58.79V56.3697C82.6486 55.9797 82.5752 55.6967 82.4269 55.5179C82.2787 55.3391 82.0514 55.2504 81.7436 55.2504C81.3667 55.2504 81.066 55.3687 80.8429 55.6038C80.6199 55.8403 80.5083 56.1529 80.5083 56.5429V58.79C80.5083 59.2278 80.2923 59.4461 79.8603 59.4461L79.8618 59.4447Z" fill="#8DB1AE"/>
<path d="M87.5446 59.4662C87.0985 59.4662 86.7272 59.3901 86.4279 59.2409C86.13 59.0902 85.9084 58.8692 85.7644 58.5792C85.6204 58.2891 85.5484 57.9273 85.5484 57.4979V55.3127H85.0133C84.8482 55.3127 84.7211 55.2705 84.6322 55.1846C84.5432 55.0987 84.498 54.9818 84.498 54.8312C84.498 54.6805 84.5432 54.5538 84.6322 54.4722C84.7211 54.3905 84.8482 54.3483 85.0133 54.3483H85.5484V53.4148C85.5484 53.2036 85.6049 53.0417 85.7178 52.9333C85.8307 52.8235 85.9903 52.7686 86.1964 52.7686C86.4025 52.7686 86.5592 52.8235 86.6693 52.9333C86.7794 53.0431 86.8345 53.2036 86.8345 53.4148V54.3483H87.9244C88.0896 54.3483 88.2152 54.3891 88.3056 54.4722C88.3945 54.5538 88.4397 54.6735 88.4397 54.8312C88.4397 54.9889 88.3945 55.1001 88.3056 55.1846C88.2166 55.2705 88.0896 55.3127 87.9244 55.3127H86.8345V57.426C86.8345 57.7541 86.9065 58.0005 87.0505 58.1638C87.1945 58.3285 87.4274 58.4102 87.7507 58.4102C87.8665 58.4102 87.9696 58.4003 88.0599 58.3792C88.1489 58.3595 88.2279 58.3454 88.2971 58.3384C88.379 58.3314 88.4482 58.3567 88.5032 58.4158C88.5583 58.4736 88.5851 58.5918 88.5851 58.7692C88.5851 58.9058 88.5625 59.0269 88.5187 59.1325C88.4736 59.2395 88.3931 59.3127 88.2773 59.3535C88.1884 59.3803 88.0712 59.407 87.9272 59.431C87.7832 59.4549 87.6561 59.4662 87.546 59.4662H87.5446Z" fill="#8DB1AE"/>
<path d="M91.6195 59.4658C91.0505 59.4658 90.5592 59.3602 90.1484 59.1476C89.7362 58.935 89.4199 58.6351 89.1969 58.2451C88.9738 57.8551 88.8623 57.3933 88.8623 56.8611C88.8623 56.3289 88.9696 55.8868 89.187 55.4968C89.4044 55.1068 89.7009 54.8013 90.0821 54.5788C90.4632 54.3563 90.8966 54.2451 91.3837 54.2451C91.7395 54.2451 92.0614 54.3028 92.3451 54.4197C92.6289 54.5366 92.8731 54.7041 93.075 54.9223C93.2769 55.142 93.4322 55.4067 93.5381 55.7178C93.6439 56.029 93.6976 56.3796 93.6976 56.7696C93.6976 56.8921 93.6552 56.9864 93.5691 57.0512C93.483 57.1159 93.3616 57.1483 93.2035 57.1483H89.9014V56.4091H92.7912L92.6261 56.5626C92.6261 56.2486 92.5795 55.9853 92.4877 55.7727C92.3945 55.5615 92.2618 55.3982 92.0868 55.2856C91.9117 55.173 91.6943 55.1166 91.4331 55.1166C91.1451 55.1166 90.8995 55.1828 90.6976 55.3166C90.4957 55.4503 90.3404 55.6376 90.2345 55.8812C90.1286 56.1233 90.075 56.4134 90.075 56.7484V56.8203C90.075 57.3806 90.2063 57.8002 90.4717 58.0776C90.7357 58.3549 91.1254 58.4929 91.6392 58.4929C91.8171 58.4929 92.0176 58.4704 92.2406 58.4267C92.4637 58.3831 92.6741 58.3056 92.8731 58.1958C93.0171 58.1142 93.1442 58.0775 93.2543 58.0888C93.3644 58.0987 93.4519 58.1381 93.5169 58.2071C93.5818 58.2761 93.6213 58.3591 93.6355 58.4577C93.6496 58.5577 93.6298 58.6576 93.579 58.7604C93.5282 58.8632 93.4406 58.9519 93.3164 59.0265C93.0764 59.1772 92.7997 59.2884 92.4877 59.3602C92.1757 59.432 91.8863 59.4672 91.6181 59.4672L91.6195 59.4658Z" fill="#8DB1AE"/>
<path d="M96.5561 59.4662C96.2611 59.4662 95.9491 59.4352 95.6201 59.3733C95.2912 59.3113 94.9961 59.2058 94.735 59.0551C94.6248 58.9861 94.5486 58.9059 94.5034 58.8143C94.4583 58.7228 94.4413 58.6299 94.4526 58.537C94.4625 58.4441 94.4964 58.3638 94.5557 58.2962C94.6136 58.2286 94.6898 58.1836 94.7815 58.1625C94.8747 58.1413 94.975 58.1596 95.0851 58.2146C95.359 58.3441 95.6159 58.4342 95.8559 58.4863C96.0959 58.537 96.3331 58.5623 96.566 58.5623C96.895 58.5623 97.1406 58.506 97.3015 58.3934C97.4625 58.2807 97.543 58.1315 97.543 57.947C97.543 57.7894 97.4893 57.6683 97.3834 57.5824C97.2775 57.4965 97.118 57.4331 96.9048 57.3923L95.8757 57.1966C95.4507 57.1149 95.126 56.9587 94.903 56.7306C94.6799 56.5011 94.5684 56.2054 94.5684 55.8436C94.5684 55.5155 94.6587 55.2311 94.8408 54.9918C95.023 54.7524 95.2743 54.568 95.5976 54.4384C95.9194 54.3089 96.2907 54.2441 96.7086 54.2441C97.0107 54.2441 97.2931 54.2765 97.5571 54.3413C97.8211 54.4061 98.0766 54.5074 98.3237 54.644C98.4267 54.6989 98.4973 54.7707 98.534 54.8594C98.5721 54.9481 98.5806 55.0382 98.5594 55.1312C98.5382 55.2241 98.4973 55.3057 98.4366 55.3775C98.3745 55.4493 98.2982 55.4944 98.2051 55.5113C98.1119 55.5282 98.0074 55.5099 97.8917 55.455C97.6785 55.3452 97.4752 55.2677 97.279 55.2184C97.0841 55.1706 96.8964 55.1466 96.7185 55.1466C96.3825 55.1466 96.134 55.2044 95.9731 55.3212C95.8121 55.4381 95.7317 55.5916 95.7317 55.783C95.7317 55.9266 95.7797 56.0463 95.8757 56.1421C95.9717 56.2378 96.1185 56.3026 96.3175 56.3364L97.3467 56.5321C97.7928 56.6137 98.1302 56.7644 98.3604 56.984C98.5905 57.2037 98.7048 57.4965 98.7048 57.8668C98.7048 58.3652 98.51 58.758 98.119 59.041C97.7279 59.324 97.207 59.4662 96.5561 59.4662Z" fill="#8DB1AE"/>
<path d="M101.577 59.4662C101.282 59.4662 100.97 59.4352 100.641 59.3733C100.312 59.3113 100.017 59.2058 99.7555 59.0551C99.6453 58.9861 99.5691 58.9059 99.5239 58.8143C99.4788 58.7228 99.4618 58.6299 99.4731 58.537C99.483 58.4441 99.5169 58.3638 99.5762 58.2962C99.6341 58.2286 99.7103 58.1836 99.8021 58.1625C99.8952 58.1413 99.9955 58.1596 100.106 58.2146C100.379 58.3441 100.636 58.4342 100.876 58.4863C101.116 58.537 101.354 58.5623 101.587 58.5623C101.915 58.5623 102.161 58.506 102.322 58.3934C102.483 58.2807 102.563 58.1315 102.563 57.947C102.563 57.7894 102.51 57.6683 102.404 57.5824C102.298 57.4965 102.139 57.4331 101.925 57.3923L100.896 57.1966C100.471 57.1149 100.147 56.9587 99.9235 56.7306C99.7004 56.5011 99.5889 56.2054 99.5889 55.8436C99.5889 55.5155 99.6792 55.2311 99.8613 54.9918C100.043 54.7524 100.295 54.568 100.618 54.4384C100.94 54.3089 101.311 54.2441 101.729 54.2441C102.031 54.2441 102.314 54.2765 102.578 54.3413C102.842 54.4061 103.097 54.5074 103.344 54.644C103.447 54.6989 103.518 54.7707 103.555 54.8594C103.593 54.9481 103.601 55.0382 103.58 55.1312C103.559 55.2241 103.518 55.3057 103.457 55.3775C103.395 55.4493 103.319 55.4944 103.226 55.5113C103.132 55.5282 103.028 55.5099 102.912 55.455C102.699 55.3452 102.496 55.2677 102.299 55.2184C102.105 55.1706 101.917 55.1466 101.739 55.1466C101.403 55.1466 101.155 55.2044 100.994 55.3212C100.833 55.4381 100.752 55.5916 100.752 55.783C100.752 55.9266 100.8 56.0463 100.896 56.1421C100.992 56.2378 101.139 56.3026 101.338 56.3364L102.367 56.5321C102.813 56.6137 103.151 56.7644 103.381 56.984C103.611 57.2037 103.725 57.4965 103.725 57.8668C103.725 58.3652 103.531 58.758 103.139 59.041C102.748 59.324 102.227 59.4662 101.577 59.4662Z" fill="#8DB1AE"/>
<path d="M107.049 59.4658C106.528 59.4658 106.075 59.3602 105.691 59.1476C105.307 58.935 105.009 58.6323 104.796 58.2395C104.582 57.8466 104.477 57.3834 104.477 56.8498C104.477 56.4457 104.536 56.0853 104.657 55.7671C104.777 55.4489 104.951 55.1758 105.177 54.9463C105.403 54.7168 105.674 54.5422 105.99 54.4239C106.305 54.3042 106.659 54.2451 107.049 54.2451C107.57 54.2451 108.023 54.3507 108.407 54.5633C108.791 54.7759 109.089 55.0758 109.302 55.4658C109.515 55.8558 109.621 56.3176 109.621 56.8512C109.621 57.2553 109.562 57.6172 109.442 57.9382C109.322 58.2606 109.148 58.5351 108.922 58.7646C108.696 58.9941 108.425 59.1687 108.109 59.287C107.793 59.4067 107.44 59.4672 107.049 59.4672V59.4658ZM107.049 58.4915C107.303 58.4915 107.526 58.4295 107.718 58.307C107.91 58.1846 108.06 58.0015 108.165 57.7579C108.271 57.5144 108.325 57.2131 108.325 56.8498C108.325 56.3035 108.208 55.8938 107.975 55.6235C107.742 55.3532 107.433 55.218 107.049 55.218C106.795 55.218 106.572 55.2786 106.38 55.3982C106.188 55.5179 106.038 55.6995 105.932 55.9417C105.826 56.1839 105.773 56.4866 105.773 56.8498C105.773 57.3905 105.89 57.7988 106.123 58.0761C106.356 58.3535 106.665 58.4915 107.049 58.4915Z" fill="#8DB1AE"/>
<path d="M111.338 59.4451C111.124 59.4451 110.962 59.3888 110.849 59.2762C110.736 59.1635 110.68 59.0002 110.68 58.789V54.9115C110.68 54.7003 110.735 54.5384 110.845 54.43C110.955 54.3202 111.109 54.2667 111.308 54.2667C111.507 54.2667 111.661 54.3216 111.771 54.43C111.881 54.5398 111.935 54.7003 111.935 54.9115V55.5578H111.832C111.928 55.1466 112.117 54.8369 112.398 54.6243C112.679 54.4117 113.053 54.285 113.519 54.2442C113.663 54.2301 113.777 54.2667 113.863 54.3512C113.949 54.437 113.999 54.568 114.013 54.7454C114.027 54.9172 113.987 55.0551 113.894 55.1607C113.801 55.2663 113.663 55.3297 113.478 55.3508L113.252 55.3705C112.834 55.4113 112.518 55.5395 112.306 55.7549C112.094 55.9703 111.987 56.273 111.987 56.663V58.7862C111.987 58.9988 111.932 59.1607 111.822 59.2733C111.712 59.386 111.551 59.4423 111.339 59.4423L111.338 59.4451Z" fill="#8DB1AE"/>
<path d="M115.35 53.3203C115.11 53.3203 114.922 53.2612 114.789 53.1415C114.657 53.0218 114.589 52.8557 114.589 52.6445C114.589 52.4333 114.655 52.2573 114.789 52.1419C114.923 52.0264 115.11 51.9673 115.35 51.9673C115.59 51.9673 115.785 52.025 115.915 52.1419C116.046 52.2587 116.111 52.4263 116.111 52.6445C116.111 52.8627 116.046 53.0218 115.915 53.1415C115.785 53.2612 115.595 53.3203 115.35 53.3203ZM115.35 59.435C115.144 59.435 114.986 59.3731 114.875 59.2506C114.765 59.1281 114.712 58.9563 114.712 58.7381V54.9733C114.712 54.7466 114.767 54.5748 114.875 54.4551C114.986 54.3355 115.144 54.2749 115.35 54.2749C115.556 54.2749 115.714 54.3355 115.828 54.4551C115.943 54.5748 115.998 54.7466 115.998 54.9733V58.7381C115.998 58.9577 115.943 59.1281 115.833 59.2506C115.723 59.3745 115.562 59.435 115.35 59.435Z" fill="#8DB1AE"/>
<path d="M65.153 69.2216C64.9398 69.2216 64.7775 69.1625 64.6645 69.0428C64.5516 68.9232 64.4951 68.757 64.4951 68.5458V62.5029C64.4951 62.2847 64.5516 62.1157 64.6645 62.0003C64.7775 61.8848 64.9398 61.8257 65.153 61.8257C65.3662 61.8257 65.5285 61.8834 65.6415 62.0003C65.7544 62.1171 65.8109 62.2847 65.8109 62.5029V64.9232H69.545V62.5029C69.545 62.2847 69.6015 62.1157 69.7144 62.0003C69.8273 61.8848 69.9911 61.8257 70.2029 61.8257C70.4146 61.8257 70.5784 61.8834 70.6913 62.0003C70.8043 62.1171 70.8607 62.2847 70.8607 62.5029V68.5458C70.8607 68.7584 70.8043 68.9232 70.6913 69.0428C70.5784 69.1625 70.4146 69.2216 70.2029 69.2216C69.9911 69.2216 69.8273 69.1625 69.7144 69.0428C69.6015 68.9232 69.545 68.757 69.545 68.5458V66.0214H65.8109V68.5458C65.8109 68.7584 65.7558 68.9232 65.6457 69.0428C65.5356 69.1625 65.3718 69.2216 65.1516 69.2216H65.153Z" fill="#8DB1AE"/>
<path d="M74.6162 69.2412C74.0952 69.2412 73.6421 69.1356 73.2581 68.923C72.8741 68.7104 72.5762 68.4077 72.363 68.0149C72.1498 67.622 72.0439 67.1588 72.0439 66.6252C72.0439 66.2211 72.1032 65.8607 72.2247 65.5425C72.3447 65.2243 72.5183 64.9512 72.7442 64.7217C72.9701 64.4922 73.2411 64.3176 73.5574 64.1993C73.8722 64.0796 74.2265 64.0205 74.6162 64.0205C75.1371 64.0205 75.5903 64.1261 75.9743 64.3387C76.3583 64.5513 76.6562 64.8512 76.8693 65.2412C77.0825 65.6312 77.1884 66.093 77.1884 66.6266C77.1884 67.0307 77.1291 67.3925 77.0091 67.7136C76.8891 68.036 76.7155 68.3105 76.4896 68.54C76.2637 68.7695 75.9926 68.9441 75.6764 69.0624C75.3602 69.182 75.0072 69.2426 74.6162 69.2426V69.2412ZM74.6162 68.2669C74.8703 68.2669 75.0934 68.2049 75.2854 68.0824C75.4773 67.9599 75.627 67.7769 75.7329 67.5333C75.8388 67.2898 75.8924 66.9885 75.8924 66.6252C75.8924 66.0789 75.7752 65.6692 75.5423 65.3989C75.3094 65.1286 75.0002 64.9934 74.6162 64.9934C74.3621 64.9934 74.139 65.0539 73.947 65.1736C73.755 65.2933 73.6054 65.4749 73.4995 65.7171C73.3936 65.9593 73.3399 66.262 73.3399 66.6252C73.3399 67.1659 73.4571 67.5742 73.6901 67.8515C73.923 68.1289 74.2322 68.2669 74.6162 68.2669Z" fill="#8DB1AE"/>
<path d="M80.0666 69.2415C79.6488 69.2415 79.3015 69.164 79.0276 69.0106C78.7537 68.8571 78.549 68.6262 78.4163 68.3179C78.2822 68.0095 78.2158 67.628 78.2158 67.169V64.6868C78.2158 64.4685 78.2709 64.3052 78.381 64.1996C78.4911 64.094 78.6478 64.0405 78.8539 64.0405C79.06 64.0405 79.2196 64.094 79.3325 64.1996C79.4455 64.3052 79.5019 64.4685 79.5019 64.6868V67.1901C79.5019 67.5463 79.5739 67.8082 79.7179 67.98C79.8619 68.1503 80.092 68.2362 80.4069 68.2362C80.7499 68.2362 81.0309 68.1179 81.2497 67.8828C81.4685 67.6477 81.5786 67.3337 81.5786 66.9437V64.6868C81.5786 64.4685 81.6337 64.3052 81.7438 64.1996C81.8539 64.094 82.0106 64.0405 82.2167 64.0405C82.4229 64.0405 82.5824 64.094 82.6953 64.1996C82.8083 64.3052 82.8647 64.4685 82.8647 64.6868V68.5643C82.8647 69.0021 82.6558 69.2204 82.2365 69.2204C82.0375 69.2204 81.8836 69.164 81.7734 69.0514C81.6633 68.9388 81.6083 68.7755 81.6083 68.5643V67.7843L81.7523 68.0926C81.6083 68.4615 81.3909 68.7459 81.0986 68.9444C80.8064 69.1429 80.4619 69.2429 80.0652 69.2429L80.0666 69.2415Z" fill="#8DB1AE"/>
<path d="M86.0444 69.2416C85.7493 69.2416 85.4373 69.2106 85.1084 69.1487C84.7795 69.0867 84.4844 68.9811 84.2232 68.8305C84.1131 68.7615 84.0369 68.6812 83.9917 68.5897C83.9465 68.4982 83.9296 68.4053 83.9409 68.3124C83.9508 68.2194 83.9847 68.1392 84.0439 68.0716C84.1018 68.004 84.1781 67.959 84.2698 67.9378C84.363 67.9167 84.4632 67.935 84.5734 67.9899C84.8472 68.1195 85.1042 68.2096 85.3442 68.2617C85.5842 68.3124 85.8213 68.3377 86.0543 68.3377C86.3832 68.3377 86.6289 68.2814 86.7898 68.1688C86.9508 68.0561 87.0312 67.9069 87.0312 67.7224C87.0312 67.5647 86.9776 67.4437 86.8717 67.3578C86.7658 67.2719 86.6063 67.2085 86.3931 67.1677L85.3639 66.972C84.939 66.8903 84.6143 66.7341 84.3912 66.506C84.1682 66.2765 84.0567 65.9808 84.0567 65.619C84.0567 65.2909 84.147 65.0065 84.3291 64.7672C84.5112 64.5278 84.7625 64.3434 85.0858 64.2138C85.4077 64.0843 85.779 64.0195 86.1969 64.0195C86.499 64.0195 86.7813 64.0519 87.0453 64.1167C87.3093 64.1814 87.5649 64.2828 87.8119 64.4194C87.915 64.4743 87.9856 64.5461 88.0223 64.6348C88.0604 64.7235 88.0689 64.8136 88.0477 64.9065C88.0265 64.9995 87.9856 65.0811 87.9249 65.1529C87.8628 65.2247 87.7865 65.2698 87.6933 65.2867C87.6002 65.3036 87.4957 65.2853 87.3799 65.2304C87.1668 65.1205 86.9635 65.0431 86.7672 64.9938C86.5724 64.946 86.3846 64.922 86.2068 64.922C85.8708 64.922 85.6223 64.9798 85.4613 65.0966C85.3004 65.2135 85.2199 65.3669 85.2199 65.5584C85.2199 65.702 85.2679 65.8217 85.3639 65.9174C85.4599 66.0132 85.6068 66.0779 85.8058 66.1117L86.835 66.3074C87.2811 66.3891 87.6185 66.5398 87.8486 66.7594C88.0788 66.979 88.1931 67.2719 88.1931 67.6422C88.1931 68.1406 87.9983 68.5334 87.6072 68.8164C87.2162 69.0994 86.6952 69.2416 86.0444 69.2416Z" fill="#8DB1AE"/>
<path d="M91.7015 69.2412C91.1326 69.2412 90.6413 69.1356 90.2304 68.923C89.8182 68.7104 89.502 68.4105 89.2789 68.0205C89.0559 67.6305 88.9443 67.1687 88.9443 66.6365C88.9443 66.1043 89.0516 65.6622 89.269 65.2722C89.4865 64.8822 89.7829 64.5766 90.1641 64.3542C90.5453 64.1317 90.9787 64.0205 91.4657 64.0205C91.8215 64.0205 92.1434 64.0782 92.4271 64.1951C92.7109 64.312 92.9551 64.4795 93.157 64.6977C93.3589 64.9174 93.5142 65.1821 93.6201 65.4932C93.726 65.8044 93.7796 66.155 93.7796 66.545C93.7796 66.6675 93.7373 66.7618 93.6511 66.8266C93.565 66.8913 93.4436 66.9237 93.2855 66.9237H89.9834V66.1845H92.8733L92.7081 66.338C92.7081 66.024 92.6615 65.7607 92.5697 65.5481C92.4766 65.3369 92.3438 65.1736 92.1688 65.061C91.9937 64.9483 91.7763 64.892 91.5151 64.892C91.2271 64.892 90.9815 64.9582 90.7796 65.092C90.5777 65.2257 90.4224 65.413 90.3166 65.6565C90.2107 65.8987 90.157 66.1887 90.157 66.5238V66.5956C90.157 67.156 90.2883 67.5756 90.5537 67.8529C90.8177 68.1303 91.2074 68.2683 91.7213 68.2683C91.8991 68.2683 92.0996 68.2458 92.3227 68.2021C92.5457 68.1585 92.7561 68.081 92.9551 67.9712C93.0991 67.8895 93.2262 67.8529 93.3363 67.8642C93.4464 67.8741 93.534 67.9135 93.5989 67.9825C93.6638 68.0515 93.7034 68.1345 93.7175 68.2331C93.7316 68.3331 93.7118 68.433 93.661 68.5358C93.6102 68.6386 93.5227 68.7273 93.3984 68.8019C93.1584 68.9526 92.8817 69.0638 92.5697 69.1356C92.2577 69.2074 91.9683 69.2426 91.7001 69.2426L91.7015 69.2412Z" fill="#8DB1AE"/>
<path d="M99.8798 69.2412C99.3589 69.2412 98.9057 69.1356 98.5217 68.923C98.1377 68.7104 97.8399 68.4077 97.6267 68.0149C97.4135 67.622 97.3076 67.1588 97.3076 66.6252C97.3076 66.2211 97.3669 65.8607 97.4883 65.5425C97.6083 65.2243 97.782 64.9512 98.0078 64.7217C98.2337 64.4922 98.5048 64.3176 98.821 64.1993C99.1358 64.0796 99.4902 64.0205 99.8798 64.0205C100.401 64.0205 100.854 64.1261 101.238 64.3387C101.622 64.5513 101.92 64.8512 102.133 65.2412C102.346 65.6312 102.452 66.093 102.452 66.6266C102.452 67.0307 102.393 67.3925 102.273 67.7136C102.153 68.036 101.979 68.3105 101.753 68.54C101.527 68.7695 101.256 68.9441 100.94 69.0624C100.624 69.182 100.271 69.2426 99.8798 69.2426V69.2412ZM99.8798 68.2669C100.134 68.2669 100.357 68.2049 100.549 68.0824C100.741 67.9599 100.891 67.7769 100.997 67.5333C101.102 67.2898 101.156 66.9885 101.156 66.6252C101.156 66.0789 101.039 65.6692 100.806 65.3989C100.573 65.1286 100.264 64.9934 99.8798 64.9934C99.6257 64.9934 99.4027 65.0539 99.2107 65.1736C99.0187 65.2933 98.869 65.4749 98.7631 65.7171C98.6573 65.9593 98.6036 66.262 98.6036 66.6252C98.6036 67.1659 98.7208 67.5742 98.9537 67.8515C99.1867 68.1289 99.4958 68.2669 99.8798 68.2669Z" fill="#8DB1AE"/>
<path d="M104.445 69.2219C104.239 69.2219 104.079 69.1656 103.966 69.0529C103.853 68.9403 103.797 68.777 103.797 68.5658V65.0882H103.324C103.159 65.0882 103.032 65.0459 102.943 64.96C102.854 64.8742 102.809 64.7573 102.809 64.6066C102.809 64.456 102.854 64.3293 102.943 64.2476C103.032 64.166 103.159 64.1237 103.324 64.1237H104.167L103.797 64.463V64.1139C103.797 63.4099 103.975 62.8805 104.332 62.5285C104.689 62.1765 105.203 61.9696 105.875 61.9076L106.225 61.8766C106.362 61.8626 106.472 61.8851 106.554 61.9428C106.636 62.0005 106.691 62.0766 106.719 62.1681C106.746 62.261 106.75 62.3539 106.729 62.4497C106.708 62.5454 106.666 62.6285 106.601 62.7003C106.536 62.7721 106.451 62.8115 106.348 62.8185L106.204 62.8284C105.813 62.8552 105.528 62.9551 105.35 63.1255C105.172 63.2972 105.083 63.5563 105.083 63.9055V64.2856L104.918 64.1209H105.957C106.122 64.1209 106.248 64.1617 106.338 64.2448C106.428 64.3279 106.472 64.4461 106.472 64.6038C106.472 64.7615 106.427 64.8727 106.338 64.9572C106.249 65.0431 106.122 65.0853 105.957 65.0853H105.083V68.563C105.083 69.0008 104.87 69.2191 104.445 69.2191V69.2219Z" fill="#8DB1AE"/>
<path d="M113.488 69.2415C112.734 69.2415 112.087 69.0894 111.549 68.7853C111.012 68.4812 110.598 68.0503 110.31 67.4928C110.022 66.9352 109.878 66.2777 109.878 65.5189C109.878 64.9515 109.96 64.4404 110.125 63.9856C110.29 63.5308 110.526 63.1408 110.835 62.8156C111.144 62.4904 111.523 62.2411 111.972 62.0666C112.421 61.892 112.926 61.8047 113.489 61.8047C113.866 61.8047 114.236 61.8526 114.6 61.9483C114.965 62.044 115.284 62.1806 115.556 62.3594C115.701 62.4481 115.797 62.5565 115.844 62.6818C115.892 62.8086 115.902 62.9325 115.875 63.0507C115.848 63.169 115.79 63.2704 115.706 63.3534C115.62 63.4351 115.514 63.4816 115.387 63.4914C115.26 63.5013 115.121 63.459 114.97 63.3633C114.757 63.2267 114.528 63.1267 114.281 63.0662C114.034 63.0043 113.784 62.9733 113.53 62.9733C113.043 62.9733 112.632 63.0732 112.296 63.2704C111.96 63.4689 111.706 63.7561 111.535 64.132C111.365 64.5079 111.278 64.9698 111.278 65.5174C111.278 66.0651 111.365 66.5199 111.535 66.9015C111.706 67.2844 111.96 67.5759 112.296 67.773C112.632 67.9715 113.043 68.0701 113.53 68.0701C113.791 68.0701 114.048 68.0377 114.301 67.9729C114.555 67.9081 114.795 67.8068 115.021 67.6702C115.172 67.5815 115.308 67.5421 115.428 67.5519C115.548 67.5618 115.648 67.6054 115.731 67.6801C115.813 67.7561 115.868 67.849 115.896 67.9616C115.923 68.0743 115.917 68.1911 115.875 68.3108C115.833 68.4305 115.752 68.5347 115.628 68.6234C115.354 68.8219 115.027 68.974 114.645 69.0796C114.264 69.1852 113.879 69.2387 113.488 69.2387V69.2415Z" fill="#8DB1AE"/>
<path d="M117.622 69.2217C117.416 69.2217 117.26 69.1654 117.15 69.0527C117.039 68.9401 116.984 68.7768 116.984 68.5656V62.472C116.984 62.2608 117.039 62.0989 117.15 61.9905C117.26 61.8807 117.416 61.8271 117.622 61.8271C117.829 61.8271 117.987 61.8821 118.101 61.9905C118.214 62.1003 118.27 62.2608 118.27 62.472V65.1288H118.126C118.278 64.7655 118.513 64.491 118.831 64.3023C119.15 64.1137 119.511 64.0207 119.917 64.0207C120.322 64.0207 120.654 64.0954 120.915 64.246C121.176 64.3967 121.371 64.6233 121.501 64.9289C121.63 65.233 121.695 65.6173 121.695 66.0834V68.5656C121.695 68.7782 121.64 68.9401 121.53 69.0527C121.422 69.1654 121.263 69.2217 121.057 69.2217C120.851 69.2217 120.693 69.1654 120.579 69.0527C120.466 68.9401 120.409 68.7768 120.409 68.5656V66.1453C120.409 65.7553 120.336 65.4723 120.189 65.2935C120.041 65.1161 119.814 65.026 119.504 65.026C119.127 65.026 118.827 65.1443 118.604 65.3794C118.381 65.6159 118.269 65.9285 118.269 66.3185V68.5656C118.269 69.0035 118.053 69.2217 117.621 69.2217H117.622Z" fill="#8DB1AE"/>
<path d="M123.641 63.0972C123.399 63.0972 123.213 63.038 123.08 62.9184C122.946 62.7987 122.88 62.6326 122.88 62.4214C122.88 62.2102 122.946 62.0342 123.08 61.9187C123.213 61.8033 123.401 61.7441 123.641 61.7441C123.881 61.7441 124.076 61.8019 124.206 61.9187C124.337 62.0356 124.402 62.2031 124.402 62.4214C124.402 62.6396 124.337 62.7987 124.206 62.9184C124.076 63.038 123.886 63.0972 123.641 63.0972ZM123.641 69.2119C123.435 69.2119 123.277 69.1499 123.166 69.0275C123.058 68.905 123.003 68.7332 123.003 68.515V64.7501C123.003 64.5234 123.058 64.3517 123.166 64.232C123.277 64.1123 123.435 64.0518 123.641 64.0518C123.847 64.0518 124.005 64.1123 124.119 64.232C124.234 64.3517 124.289 64.5234 124.289 64.7501V68.515C124.289 68.7346 124.234 68.905 124.124 69.0275C124.014 69.1514 123.853 69.2119 123.641 69.2119Z" fill="#8DB1AE"/>
<path d="M127.344 69.2414C126.774 69.2414 126.346 69.0795 126.058 68.7543C125.77 68.429 125.626 67.9531 125.626 67.3238V62.472C125.626 62.2608 125.681 62.0989 125.791 61.9905C125.901 61.8807 126.058 61.8271 126.264 61.8271C126.47 61.8271 126.628 61.8821 126.743 61.9905C126.856 62.1003 126.912 62.2608 126.912 62.472V67.2632C126.912 67.5786 126.978 67.8095 127.113 67.9602C127.247 68.1108 127.437 68.1854 127.683 68.1854C127.738 68.1854 127.789 68.184 127.838 68.1798C127.885 68.1756 127.934 68.1714 127.982 68.1643C128.078 68.1502 128.143 68.1756 128.177 68.2418C128.211 68.3065 128.228 68.4389 128.228 68.636C128.228 68.8078 128.194 68.9401 128.125 69.0358C128.056 69.1316 127.943 69.1893 127.785 69.2104C127.715 69.2175 127.643 69.2245 127.569 69.2315C127.494 69.2386 127.418 69.2414 127.343 69.2414H127.344Z" fill="#8DB1AE"/>
<path d="M130.788 69.2413C130.349 69.2413 129.964 69.1358 129.631 68.9232C129.298 68.7105 129.039 68.4078 128.854 68.015C128.669 67.6222 128.576 67.159 128.576 66.6254C128.576 66.0918 128.669 65.6215 128.854 65.2357C129.039 64.8485 129.298 64.5501 129.631 64.3375C129.964 64.1249 130.349 64.0193 130.788 64.0193C131.227 64.0193 131.572 64.122 131.884 64.3276C132.196 64.5332 132.406 64.8035 132.516 65.1386H132.403V62.4705C132.403 62.2593 132.459 62.0974 132.569 61.989C132.677 61.8792 132.835 61.8257 133.042 61.8257C133.248 61.8257 133.406 61.8806 133.52 61.989C133.633 62.0988 133.69 62.2593 133.69 62.4705V68.5641C133.69 68.7767 133.635 68.9386 133.524 69.0513C133.414 69.1639 133.258 69.2202 133.051 69.2202C132.845 69.2202 132.689 69.1639 132.579 69.0513C132.468 68.9386 132.413 68.7753 132.413 68.5641V67.7644L132.526 68.0727C132.423 68.429 132.214 68.712 131.898 68.9246C131.583 69.1372 131.212 69.2428 130.787 69.2428L130.788 69.2413ZM131.148 68.267C131.401 68.267 131.626 68.2051 131.816 68.0826C132.008 67.9601 132.156 67.7771 132.264 67.5335C132.37 67.2899 132.423 66.9886 132.423 66.6254C132.423 66.0791 132.306 65.6694 132.073 65.3991C131.84 65.1287 131.531 64.9936 131.147 64.9936C130.893 64.9936 130.67 65.0541 130.478 65.1738C130.286 65.2935 130.138 65.4751 130.03 65.7173C129.924 65.9608 129.872 66.2621 129.872 66.6254C129.872 67.166 129.988 67.5743 130.221 67.8517C130.454 68.1291 130.763 68.267 131.147 68.267H131.148Z" fill="#8DB1AE"/>
<path d="M135.684 69.2215C135.471 69.2215 135.309 69.1652 135.196 69.0525C135.083 68.9399 135.026 68.7766 135.026 68.5654V64.6879C135.026 64.4767 135.081 64.3148 135.19 64.2064C135.3 64.0965 135.456 64.043 135.653 64.043C135.851 64.043 136.006 64.098 136.116 64.2064C136.225 64.3162 136.281 64.4767 136.281 64.6879V65.3341H136.178C136.274 64.923 136.464 64.6133 136.744 64.4007C137.025 64.1881 137.4 64.0613 137.867 64.0205C138.011 64.0064 138.125 64.043 138.211 64.1275C138.297 64.212 138.347 64.3443 138.361 64.5217C138.374 64.6935 138.334 64.8315 138.242 64.9371C138.149 65.0427 138.011 65.106 137.826 65.1272L137.599 65.1469C137.181 65.1877 136.864 65.3158 136.653 65.5312C136.441 65.7467 136.334 66.0494 136.334 66.4394V68.5626C136.334 68.7752 136.279 68.9371 136.168 69.0497C136.058 69.1623 135.897 69.2187 135.684 69.2187V69.2215Z" fill="#8DB1AE"/>
<path d="M141.455 69.2412C140.886 69.2412 140.397 69.1356 139.984 68.923C139.574 68.7104 139.256 68.4105 139.033 68.0205C138.81 67.6305 138.698 67.1687 138.698 66.6365C138.698 66.1043 138.806 65.6622 139.022 65.2722C139.239 64.8822 139.535 64.5766 139.917 64.3542C140.298 64.1317 140.731 64.0205 141.218 64.0205C141.575 64.0205 141.896 64.0782 142.18 64.1951C142.463 64.312 142.708 64.4795 142.91 64.6977C143.111 64.9174 143.267 65.1821 143.373 65.4932C143.478 65.8044 143.531 66.155 143.531 66.545C143.531 66.6675 143.488 66.7618 143.402 66.8266C143.316 66.8913 143.195 66.9237 143.037 66.9237H139.736V66.1845H142.626L142.461 66.338C142.461 66.024 142.414 65.7607 142.322 65.5481C142.229 65.3369 142.096 65.1736 141.921 65.061C141.746 64.9483 141.529 64.892 141.269 64.892C140.981 64.892 140.735 64.9582 140.534 65.092C140.332 65.2257 140.176 65.413 140.07 65.6565C139.963 65.8987 139.911 66.1887 139.911 66.5238V66.5956C139.911 67.156 140.044 67.5756 140.308 67.8529C140.572 68.1303 140.961 68.2683 141.475 68.2683C141.654 68.2683 141.854 68.2458 142.078 68.2021C142.301 68.1585 142.511 68.081 142.71 67.9712C142.856 67.8895 142.982 67.8529 143.092 67.8642C143.2 67.8741 143.288 67.9135 143.354 67.9825C143.419 68.0515 143.459 68.1345 143.473 68.2331C143.486 68.3331 143.467 68.433 143.416 68.5358C143.366 68.6386 143.278 68.7273 143.154 68.8019C142.914 68.9526 142.637 69.0638 142.325 69.1356C142.013 69.2074 141.724 69.2426 141.455 69.2426V69.2412Z" fill="#8DB1AE"/>
<path d="M145.19 69.2215C144.984 69.2215 144.826 69.1652 144.716 69.0526C144.607 68.9399 144.552 68.7766 144.552 68.5654V64.6879C144.552 64.4767 144.607 64.3148 144.716 64.2064C144.826 64.0966 144.981 64.0431 145.179 64.0431C145.376 64.0431 145.532 64.098 145.642 64.2064C145.75 64.3162 145.807 64.4767 145.807 64.6879V65.3863L145.694 65.13C145.845 64.7668 146.079 64.4922 146.398 64.3036C146.717 64.1149 147.079 64.022 147.484 64.022C147.889 64.022 148.221 64.0966 148.482 64.2472C148.743 64.3979 148.938 64.6246 149.068 64.9301C149.198 65.2342 149.263 65.6186 149.263 66.0846V68.5668C149.263 68.7794 149.208 68.9413 149.098 69.054C148.988 69.1666 148.831 69.2229 148.625 69.2229C148.419 69.2229 148.259 69.1666 148.146 69.054C148.033 68.9413 147.975 68.778 147.975 68.5668V66.1466C147.975 65.7566 147.902 65.4736 147.755 65.2948C147.608 65.1159 147.38 65.0272 147.07 65.0272C146.693 65.0272 146.393 65.1455 146.17 65.3806C145.947 65.6158 145.835 65.9297 145.835 66.3197V68.5668C145.835 69.0047 145.619 69.2229 145.187 69.2229L145.19 69.2215Z" fill="#8DB1AE"/>
</g>
<defs>
<clipPath id="clip0_964_1323">
<rect width="152" height="71" fill="white"/>
</clipPath>
</defs>
</svg>
