<svg width="25" height="24" viewBox="0 0 25 24" fill="none" xmlns="http://www.w3.org/2000/svg">
<path d="M20.796 15.7957C20.6914 15.9006 20.5673 15.9838 20.4305 16.0406C20.2938 16.0974 20.1471 16.1266 19.9991 16.1266C19.851 16.1266 19.7044 16.0974 19.5677 16.0406C19.4309 15.9838 19.3067 15.9006 19.2022 15.7957L12.5 9.09354L5.79596 15.7957C5.58461 16.0071 5.29797 16.1258 4.99908 16.1258C4.7002 16.1258 4.41355 16.0071 4.20221 15.7957C3.99086 15.5844 3.87213 15.2977 3.87213 14.9989C3.87213 14.7 3.99086 14.4133 4.20221 14.202L11.7022 6.70198C11.8067 6.5971 11.9309 6.51388 12.0677 6.4571C12.2044 6.40032 12.351 6.37109 12.4991 6.37109C12.6471 6.37109 12.7938 6.40032 12.9305 6.4571C13.0673 6.51388 13.1914 6.5971 13.296 6.70198L20.796 14.202C20.9008 14.3065 20.9841 14.4307 21.0408 14.5674C21.0976 14.7042 21.1268 14.8508 21.1268 14.9989C21.1268 15.1469 21.0976 15.2935 21.0408 15.4303C20.9841 15.567 20.9008 15.6912 20.796 15.7957Z" fill="#63635E"/>
</svg>
