<svg width="25" height="24" viewBox="0 0 25 24" fill="none" xmlns="http://www.w3.org/2000/svg">
<path d="M12.8371 2.25C10.9087 2.25 9.02367 2.82183 7.42029 3.89317C5.81691 4.96451 4.56723 6.48726 3.82928 8.26884C3.09132 10.0504 2.89824 12.0108 3.27445 13.9021C3.65065 15.7934 4.57925 17.5307 5.94281 18.8943C7.30637 20.2579 9.04366 21.1865 10.935 21.5627C12.8263 21.9389 14.7867 21.7458 16.5683 21.0078C18.3498 20.2699 19.8726 19.0202 20.9439 17.4168C22.0153 15.8134 22.5871 13.9284 22.5871 12C22.5844 9.41498 21.5563 6.93661 19.7284 5.10872C17.9005 3.28084 15.4221 2.25273 12.8371 2.25ZM12.8371 20.25C11.2054 20.25 9.61035 19.7661 8.25365 18.8596C6.89694 17.9531 5.83952 16.6646 5.2151 15.1571C4.59067 13.6496 4.42729 11.9908 4.74562 10.3905C5.06395 8.79016 5.84969 7.32015 7.00347 6.16637C8.15725 5.01259 9.62726 4.22685 11.2276 3.90852C12.8279 3.59019 14.4867 3.75357 15.9942 4.37799C17.5017 5.00242 18.7902 6.05984 19.6967 7.41655C20.6032 8.77325 21.0871 10.3683 21.0871 12C21.0846 14.1873 20.2146 16.2843 18.668 17.8309C17.1214 19.3775 15.0244 20.2475 12.8371 20.25ZM18.8371 12C18.8371 12.1989 18.7581 12.3897 18.6174 12.5303C18.4768 12.671 18.286 12.75 18.0871 12.75H12.8371C12.6382 12.75 12.4474 12.671 12.3068 12.5303C12.1661 12.3897 12.0871 12.1989 12.0871 12V6.75C12.0871 6.55109 12.1661 6.36032 12.3068 6.21967C12.4474 6.07902 12.6382 6 12.8371 6C13.036 6 13.2268 6.07902 13.3674 6.21967C13.5081 6.36032 13.5871 6.55109 13.5871 6.75V11.25H18.0871C18.286 11.25 18.4768 11.329 18.6174 11.4697C18.7581 11.6103 18.8371 11.8011 18.8371 12Z" fill="#33312B"/>
</svg>
