<svg width="69" height="54" viewBox="0 0 69 54" fill="none" xmlns="http://www.w3.org/2000/svg">
<g clip-path="url(#clip0_599_3859)">
<path d="M11.8297 3.85809C13.5039 1.57448 15.3527 0.312311 17.3825 0.0650824C19.4123 -0.17564 21.1771 0.214721 22.6703 1.23617C24.1636 2.25761 24.9975 3.79303 25.1785 5.83593C25.3595 7.88532 24.4868 10.0453 22.5798 12.3289C19.8325 15.5754 17.9772 18.8219 17.027 22.0685C16.0703 25.315 15.5919 28.2036 15.5919 30.728L14.8744 23.5128C19.6515 23.5128 23.5365 24.8986 26.523 27.6636C29.5095 30.4287 31.0028 34.1566 31.0028 38.8475C31.0028 43.5383 29.6259 46.9345 26.8786 49.7581C24.1312 52.5817 20.3626 54 15.5854 54C10.8083 54 6.86509 52.3475 4.11776 49.0424C1.37043 45.7374 -0.00646973 41.1376 -0.00646973 35.2432C-0.00646973 32.1203 0.290888 28.8998 0.892069 25.5947C1.48678 22.2897 2.65036 18.861 4.38926 15.3152C6.12169 11.7694 8.60398 7.95038 11.8297 3.85809ZM49.8269 3.85809C51.5011 1.57448 53.3499 0.312311 55.3797 0.0715884C57.4095 -0.169134 59.1742 0.221227 60.6675 1.24267C62.1608 2.26412 62.9947 3.79954 63.1757 5.84243C63.3567 7.89183 62.484 10.0518 60.577 12.3354C57.8297 15.5819 55.9744 18.8285 55.0242 22.075C54.0674 25.3215 53.5891 28.2101 53.5891 30.7345L52.8716 23.5193C57.6487 23.5193 61.5337 24.9051 64.5202 27.6701C67.5067 30.4352 69 34.1632 69 38.854C69 43.5448 67.6231 46.941 64.8758 49.7646C62.1284 52.5882 58.3597 54.0065 53.5826 54.0065C48.8055 54.0065 44.8623 52.354 42.1149 49.0489C39.3676 45.7439 37.9907 41.1441 37.9907 35.2497C37.9907 32.1268 38.2881 28.9063 38.8893 25.6012C39.484 22.2962 40.6475 18.8675 42.3864 15.3217C44.1189 11.7759 46.6012 7.95689 49.8269 3.8646V3.85809Z" fill="#9BBA3C"/>
</g>
<defs>
<clipPath id="clip0_599_3859">
<rect width="69" height="54" fill="white"/>
</clipPath>
</defs>
</svg>
