<svg width="152" height="71" viewBox="0 0 152 71" fill="none" xmlns="http://www.w3.org/2000/svg">
<g clip-path="url(#clip0_848_389)">
<path d="M9.38395 22.8637C8.67665 16.9545 3.70302 16.3759 1.18162 16.4716C0.358562 16.5026 -0.199084 17.3093 0.0649156 18.0865C0.779266 20.197 2.94632 23.7422 9.38395 22.8637Z" fill="#8DB1AE"/>
<path d="M37.2649 65.4751C43.142 66.4973 53.102 65.9665 56.6004 62.5072C58.5302 60.5994 59.4338 57.9046 60.0789 55.1098C60.5731 52.9627 60.9302 50.6536 60.8441 48.2292C60.8385 48.0729 60.8116 47.9152 60.7707 47.7617C60.0055 48.8853 59.1994 49.8891 58.5048 50.6705C50.9646 59.2928 36.5392 65.1442 26.5129 57.2527C24.84 55.9292 23.4325 54.3439 22.3101 52.6051C22.3101 52.6051 22.3087 52.6036 22.3073 52.6036C20.9336 52.5853 19.5868 52.5304 18.2824 52.4319C17.8701 52.4023 17.6146 52.8683 17.8588 53.2006C22.4965 59.5265 29.5002 64.1868 37.2649 65.4751Z" fill="#8DB1AE"/>
<path d="M56.8445 49.0515C61.1278 44.884 58.8563 46.1737 58.5231 46.3271C56.6215 47.2071 53.8855 48.1237 50.6328 48.9783C50.4874 49.6175 50.2996 50.2412 50.0511 50.8382C49.2577 52.7431 47.8968 54.6016 46.1095 56.118C50.085 54.4003 53.8742 51.9406 56.8431 49.0515H56.8445Z" fill="#8DB1AE"/>
<path d="M46.5853 68.1896C40.7575 68.9246 34.639 68.1474 29.3265 65.5568C24.0352 62.9563 20.5383 60.063 16.6461 53.0753C16.135 52.1573 13.9242 55.1985 19.9807 63.7222C22.1449 66.769 25.327 68.6711 28.9468 69.8637C32.5651 71.0562 36.6324 71.311 41.1486 70.6254C44.5072 70.1157 47.5043 69.1682 50.1387 67.787C50.3222 67.6898 50.4987 67.587 50.678 67.4871C49.3241 67.7884 47.9589 68.0277 46.5853 68.191V68.1896Z" fill="#8DB1AE"/>
<path d="M58.6826 22.2766C54.3231 5.76981 44.5749 0.832135 32.6131 2.28091C29.1063 2.70611 26.0992 4.23233 23.7712 6.46956C19.7788 10.3076 20.4748 16.7138 20.4748 16.7138L19.3312 10.7328C18.9839 8.91516 18.2484 7.62689 17.1289 6.8666C16.008 6.10912 14.5962 5.89089 12.8908 6.21472C11.1854 6.53996 9.95151 7.26083 9.19057 8.37733C8.42822 9.49524 8.22351 10.9637 8.57081 12.78L14.9308 46.0287C15.2781 47.8463 16.015 49.1501 17.1416 49.9385C18.1637 50.6552 19.4639 50.9804 20.9999 50.6834C30.4291 48.8587 23.2701 38.2709 23.6117 28.1154C23.9646 17.6388 38.8446 11.6311 44.0145 23.5508C45.453 26.8651 50.5198 25.6528 50.5198 25.6528L46.9453 30.3512C46.9453 30.3512 50.7203 37.7288 50.9829 44.7573C56.5594 42.8946 58.8168 39.7351 59.6215 36.9742C60.3923 34.3244 60.8553 30.5032 58.6826 22.2766Z" fill="#8DB1AE"/>
<path d="M132.728 50.3793C129.416 49.8344 126.631 48.7334 124.375 47.0805C122.117 45.4275 120.495 43.3184 119.51 40.756C118.523 38.1935 118.293 35.3213 118.819 32.1393C119.219 29.7219 119.962 27.6212 121.046 25.8345C122.129 24.0478 123.511 22.5991 125.188 21.4896C126.865 20.3801 128.771 19.6381 130.908 19.2664C133.044 18.8947 135.364 18.9145 137.868 19.3256C141.179 19.8705 143.964 20.9715 146.222 22.6244C148.478 24.2787 150.091 26.3752 151.061 28.9137C152.031 31.4536 152.25 34.3329 151.716 37.5557C151.322 39.9323 150.581 42.0231 149.496 43.8309C148.408 45.6373 147.035 47.0988 145.379 48.211C143.721 49.3247 141.814 50.0653 139.658 50.4342C137.501 50.8031 135.192 50.7848 132.728 50.3793ZM134.038 42.4652C135.128 42.644 136.143 42.5328 137.081 42.1287C138.018 41.7246 138.811 41.008 139.459 39.9759C140.106 38.9453 140.577 37.543 140.871 35.7704C141.317 33.0728 141.114 31.0425 140.261 29.681C139.407 28.321 138.173 27.5058 136.558 27.2411C135.468 27.0623 134.455 27.1636 133.52 27.548C132.585 27.9324 131.784 28.6377 131.116 29.6655C130.448 30.6948 129.964 32.114 129.663 33.926C129.223 36.5842 129.427 38.6046 130.279 39.9858C131.129 41.367 132.381 42.1935 134.037 42.4666L134.038 42.4652Z" fill="#8DB1AE"/>
<path d="M68.7696 16.1028C67.2111 16.2773 65.0412 14.9201 64.4511 13.1038C64.1108 12.0577 64.348 10.8061 65.1894 10.4681C67.1631 9.67829 67.8746 11.5959 68.3094 11.6607C68.6793 11.717 69.1184 9.2728 71.0652 9.80782C71.9292 10.0458 72.5447 10.8244 72.3527 12.2154C72.1395 13.7501 70.7588 15.8775 68.7696 16.1013V16.1028Z" fill="#8DB1AE"/>
<path d="M67.852 45.588C66.6619 44.8714 66.1692 43.272 65.9546 41.3642L64.1518 24.5139C63.9372 22.6075 64.2393 21.0954 65.0609 19.9746C65.8826 18.8553 67.1475 18.2006 68.8558 18.0077C70.6035 17.812 72.0139 18.1668 73.0854 19.0736C74.1555 19.9803 74.7993 21.3882 75.0139 23.2946L76.8167 40.1449C77.1795 43.1058 78.0689 43.7549 78.0689 43.7549C78.0689 43.7549 72.4402 48.3532 67.8534 45.588H67.852Z" fill="#8DB1AE"/>
<path d="M94.2209 46.7509C91.6388 46.7847 89.3151 46.0652 87.2793 44.5362C85.245 43.0072 83.6384 40.7629 82.5287 37.8147C81.4205 34.8692 80.9462 31.3761 81.1876 27.4268C81.4346 23.3776 82.3325 20.014 83.7697 17.391C85.2083 14.7651 87.0478 12.9067 89.2247 11.793C91.4016 10.6765 93.7678 10.3977 96.3047 10.8736C98.5226 11.2875 100.557 12.076 102.025 13.6909C103.99 15.8535 104.336 18.5567 104.339 18.5596C104.912 13.8767 105.68 9.23472 106.639 4.64763C107.033 2.75957 107.822 1.43891 108.965 0.695518C110.11 -0.0478783 111.538 -0.187265 113.244 0.243567C114.912 0.664543 116.096 1.45722 116.813 2.60188C117.531 3.74936 117.693 5.18687 117.324 6.95103C115.054 17.8471 113.931 29.0741 114.031 40.4447C114.051 42.9692 115.186 44.7826 115.184 44.7798C115.181 44.7319 108.471 48.1138 104.726 44.8783C103.68 43.9589 103.232 42.3736 103.217 40.4081C103.207 39.1353 103.211 37.8653 103.229 36.5954C103.142 36.5785 103.293 46.5186 94.2181 46.7523L94.2209 46.7509ZM97.5654 37.6316C98.6722 37.6682 99.6576 37.3881 100.524 36.8066C101.393 36.2251 102.072 35.331 102.579 34.1244C103.084 32.9192 103.378 31.3494 103.489 29.4008C103.66 26.4384 103.323 24.2674 102.389 22.8369C101.456 21.4092 100.19 20.5757 98.5635 20.3617C97.4666 20.2181 96.4586 20.3843 95.5423 20.8728C94.6261 21.3628 93.8609 22.2174 93.2595 23.4466C92.6581 24.6743 92.2769 26.3554 92.1513 28.4786C91.9692 31.5929 92.4421 33.9076 93.4769 35.3691C94.5132 36.8333 95.884 37.5767 97.564 37.6316H97.5654Z" fill="#8DB1AE"/>
<path d="M65.1104 59.445C64.9184 59.445 64.7716 59.3901 64.6685 59.2802C64.5655 59.1704 64.5146 59.0198 64.5146 58.8283V52.6629C64.5146 52.4644 64.5697 52.3123 64.6798 52.2067C64.7899 52.1011 64.941 52.0476 65.133 52.0476C65.3038 52.0476 65.4393 52.08 65.5396 52.1448C65.6384 52.2095 65.7302 52.3207 65.8121 52.4784L68.3532 57.1669H68.0243L70.5655 52.4784C70.6473 52.3207 70.7363 52.2109 70.8323 52.1448C70.9283 52.08 71.0624 52.0476 71.2332 52.0476C71.4252 52.0476 71.572 52.1011 71.6751 52.2067C71.7782 52.3123 71.829 52.4644 71.829 52.6629V58.8283C71.829 59.0198 71.7796 59.1704 71.6793 59.2802C71.5805 59.3901 71.4309 59.445 71.2318 59.445C71.0327 59.445 70.893 59.3901 70.7899 59.2802C70.6869 59.1704 70.636 59.0198 70.636 58.8283V54.0779H70.8619L68.7019 58.0074C68.6328 58.1243 68.5608 58.2088 68.4859 58.2637C68.4111 58.3186 68.308 58.3454 68.1768 58.3454C68.0455 58.3454 67.9396 58.3158 67.8577 58.2581C67.7758 58.2003 67.7038 58.1173 67.6417 58.0074L65.4605 54.068H65.7076V58.8283C65.7076 59.0198 65.6582 59.1704 65.5579 59.2802C65.4591 59.3901 65.3095 59.445 65.1104 59.445Z" fill="#8DB1AE"/>
<path d="M75.5927 59.466C75.0718 59.466 74.6186 59.3604 74.2346 59.1478C73.8506 58.9352 73.5527 58.6325 73.3396 58.2397C73.1264 57.8469 73.0205 57.3837 73.0205 56.8501C73.0205 56.446 73.0798 56.0855 73.2012 55.7674C73.3212 55.4492 73.4949 55.176 73.7207 54.9465C73.9466 54.717 74.2177 54.5424 74.5339 54.4242C74.8487 54.3045 75.2031 54.2454 75.5927 54.2454C76.1137 54.2454 76.5669 54.351 76.9509 54.5636C77.3349 54.7762 77.6327 55.0761 77.8459 55.4661C78.0591 55.8561 78.165 56.3179 78.165 56.8515C78.165 57.2556 78.1057 57.6174 77.9857 57.9384C77.8657 58.2608 77.692 58.5354 77.4661 58.7649C77.2403 58.9944 76.9692 59.169 76.653 59.2872C76.3367 59.4069 75.9838 59.4674 75.5927 59.4674V59.466ZM75.5927 58.4917C75.8469 58.4917 76.0699 58.4298 76.2619 58.3073C76.4539 58.1848 76.6036 58.0018 76.7094 57.7582C76.8153 57.5146 76.869 57.2133 76.869 56.8501C76.869 56.3038 76.7518 55.8941 76.5189 55.6237C76.2859 55.3534 75.9767 55.2183 75.5927 55.2183C75.3386 55.2183 75.1156 55.2788 74.9236 55.3985C74.7316 55.5181 74.5819 55.6998 74.476 55.9419C74.3702 56.1841 74.3165 56.4868 74.3165 56.8501C74.3165 57.3907 74.4337 57.799 74.6666 58.0764C74.8996 58.3538 75.2087 58.4917 75.5927 58.4917Z" fill="#8DB1AE"/>
<path d="M79.8619 59.4449C79.6558 59.4449 79.4976 59.3886 79.3889 59.276C79.2788 59.1633 79.2238 59 79.2238 58.7888V54.9113C79.2238 54.7001 79.2788 54.5382 79.3889 54.4298C79.4991 54.32 79.6529 54.2665 79.852 54.2665C80.051 54.2665 80.2049 54.3214 80.3151 54.4298C80.4252 54.5396 80.4788 54.7001 80.4788 54.9113V55.6097L80.3659 55.3534C80.5169 54.9902 80.7513 54.7156 81.0703 54.527C81.3894 54.3383 81.7508 54.2454 82.156 54.2454C82.5612 54.2454 82.8929 54.32 83.1541 54.4706C83.4153 54.6213 83.6101 54.848 83.74 55.1535C83.8699 55.459 83.9348 55.842 83.9348 56.308V58.7902C83.9348 59.0028 83.8797 59.1647 83.7696 59.2774C83.6595 59.39 83.5028 59.4463 83.2967 59.4463C83.0906 59.4463 82.931 59.39 82.8181 59.2774C82.7052 59.1647 82.6487 59.0014 82.6487 58.7902V56.37C82.6487 55.98 82.5753 55.697 82.427 55.5181C82.2788 55.3393 82.0515 55.2506 81.7438 55.2506C81.3668 55.2506 81.0661 55.3689 80.843 55.604C80.62 55.8406 80.5085 56.1531 80.5085 56.5431V58.7902C80.5085 59.2281 80.2925 59.4463 79.8605 59.4463L79.8619 59.4449Z" fill="#8DB1AE"/>
<path d="M87.5446 59.4659C87.0985 59.4659 86.7272 59.3899 86.4279 59.2406C86.13 59.09 85.9084 58.8689 85.7644 58.5789C85.6204 58.2889 85.5484 57.927 85.5484 57.4976V55.3125H85.0133C84.8482 55.3125 84.7211 55.2702 84.6322 55.1843C84.5432 55.0985 84.498 54.9816 84.498 54.831C84.498 54.6803 84.5432 54.5536 84.6322 54.4719C84.7211 54.3903 84.8482 54.348 85.0133 54.348H85.5484V53.4146C85.5484 53.2034 85.6049 53.0415 85.7178 52.933C85.8307 52.8232 85.9903 52.7683 86.1964 52.7683C86.4025 52.7683 86.5592 52.8232 86.6693 52.933C86.7794 53.0429 86.8345 53.2034 86.8345 53.4146V54.348H87.9244C88.0896 54.348 88.2152 54.3889 88.3056 54.4719C88.3945 54.5536 88.4397 54.6733 88.4397 54.831C88.4397 54.9886 88.3945 55.0999 88.3056 55.1843C88.2166 55.2702 88.0896 55.3125 87.9244 55.3125H86.8345V57.4258C86.8345 57.7539 86.9065 58.0002 87.0505 58.1636C87.1945 58.3283 87.4274 58.41 87.7507 58.41C87.8665 58.41 87.9696 58.4001 88.0599 58.379C88.1489 58.3593 88.2279 58.3452 88.2971 58.3382C88.379 58.3311 88.4482 58.3565 88.5032 58.4156C88.5583 58.4733 88.5851 58.5916 88.5851 58.769C88.5851 58.9056 88.5625 59.0266 88.5187 59.1322C88.4736 59.2392 88.3931 59.3125 88.2773 59.3533C88.1884 59.38 88.0712 59.4068 87.9272 59.4307C87.7832 59.4547 87.6561 59.4659 87.546 59.4659H87.5446Z" fill="#8DB1AE"/>
<path d="M91.619 59.466C91.05 59.466 90.5588 59.3604 90.1479 59.1478C89.7357 58.9352 89.4195 58.6353 89.1964 58.2453C88.9733 57.8553 88.8618 57.3935 88.8618 56.8613C88.8618 56.3291 88.9691 55.887 89.1865 55.497C89.4039 55.107 89.7004 54.8015 90.0816 54.579C90.4628 54.3566 90.8962 54.2454 91.3832 54.2454C91.739 54.2454 92.0609 54.3031 92.3446 54.4199C92.6284 54.5368 92.8726 54.7044 93.0745 54.9226C93.2764 55.1422 93.4317 55.4069 93.5376 55.7181C93.6434 56.0292 93.6971 56.3798 93.6971 56.7698C93.6971 56.8923 93.6547 56.9866 93.5686 57.0514C93.4825 57.1162 93.3611 57.1485 93.203 57.1485H89.9009V56.4094H92.7907L92.6256 56.5628C92.6256 56.2489 92.579 55.9856 92.4872 55.773C92.394 55.5618 92.2613 55.3985 92.0863 55.2858C91.9112 55.1732 91.6938 55.1169 91.4326 55.1169C91.1446 55.1169 90.899 55.1831 90.6971 55.3168C90.4952 55.4506 90.3399 55.6378 90.234 55.8814C90.1282 56.1236 90.0745 56.4136 90.0745 56.7487V56.8205C90.0745 57.3809 90.2058 57.8004 90.4712 58.0778C90.7352 58.3552 91.1249 58.4931 91.6387 58.4931C91.8166 58.4931 92.0171 58.4706 92.2402 58.427C92.4632 58.3833 92.6736 58.3059 92.8726 58.1961C93.0166 58.1144 93.1437 58.0778 93.2538 58.0891C93.3639 58.0989 93.4514 58.1383 93.5164 58.2073C93.5813 58.2763 93.6209 58.3594 93.635 58.4579C93.6491 58.5579 93.6293 58.6579 93.5785 58.7607C93.5277 58.8634 93.4402 58.9521 93.3159 59.0268C93.0759 59.1774 92.7992 59.2886 92.4872 59.3604C92.1752 59.4322 91.8858 59.4674 91.6176 59.4674L91.619 59.466Z" fill="#8DB1AE"/>
<path d="M96.5559 59.466C96.2608 59.466 95.9488 59.435 95.6199 59.3731C95.291 59.3111 94.9959 59.2055 94.7347 59.0549C94.6246 58.9859 94.5484 58.9056 94.5032 58.8141C94.458 58.7226 94.4411 58.6297 94.4524 58.5367C94.4622 58.4438 94.4961 58.3636 94.5554 58.296C94.6133 58.2284 94.6895 58.1833 94.7813 58.1622C94.8745 58.1411 94.9747 58.1594 95.0848 58.2143C95.3587 58.3438 95.6157 58.434 95.8557 58.486C96.0957 58.5367 96.3328 58.5621 96.5658 58.5621C96.8947 58.5621 97.1404 58.5058 97.3013 58.3931C97.4622 58.2805 97.5427 58.1312 97.5427 57.9468C97.5427 57.7891 97.4891 57.668 97.3832 57.5821C97.2773 57.4963 97.1178 57.4329 96.9046 57.3921L95.8754 57.1964C95.4505 57.1147 95.1258 56.9584 94.9027 56.7303C94.6797 56.5008 94.5681 56.2052 94.5681 55.8433C94.5681 55.5153 94.6585 55.2309 94.8406 54.9915C95.0227 54.7522 95.274 54.5677 95.5973 54.4382C95.9192 54.3087 96.2905 54.2439 96.7084 54.2439C97.0105 54.2439 97.2928 54.2763 97.5568 54.341C97.8208 54.4058 98.0764 54.5072 98.3234 54.6438C98.4265 54.6987 98.4971 54.7705 98.5338 54.8592C98.5719 54.9479 98.5804 55.038 98.5592 55.1309C98.538 55.2238 98.4971 55.3055 98.4364 55.3773C98.3742 55.4491 98.298 55.4942 98.2048 55.511C98.1116 55.5279 98.0072 55.5096 97.8914 55.4547C97.6782 55.3449 97.4749 55.2675 97.2787 55.2182C97.0839 55.1703 96.8961 55.1464 96.7182 55.1464C96.3822 55.1464 96.1338 55.2041 95.9728 55.321C95.8119 55.4378 95.7314 55.5913 95.7314 55.7828C95.7314 55.9264 95.7794 56.0461 95.8754 56.1418C95.9714 56.2376 96.1182 56.3023 96.3173 56.3361L97.3465 56.5318C97.7926 56.6135 98.13 56.7641 98.3601 56.9838C98.5902 57.2034 98.7046 57.4963 98.7046 57.8665C98.7046 58.365 98.5098 58.7578 98.1187 59.0408C97.7277 59.3238 97.2067 59.466 96.5559 59.466Z" fill="#8DB1AE"/>
<path d="M101.576 59.466C101.281 59.466 100.969 59.435 100.64 59.3731C100.311 59.3111 100.016 59.2055 99.755 59.0549C99.6449 58.9859 99.5686 58.9056 99.5235 58.8141C99.4783 58.7226 99.4613 58.6297 99.4726 58.5367C99.4825 58.4438 99.5164 58.3636 99.5757 58.296C99.6336 58.2284 99.7098 58.1833 99.8016 58.1622C99.8947 58.1411 99.995 58.1594 100.105 58.2143C100.379 58.3438 100.636 58.434 100.876 58.486C101.116 58.5367 101.353 58.5621 101.586 58.5621C101.915 58.5621 102.161 58.5058 102.322 58.3931C102.483 58.2805 102.563 58.1312 102.563 57.9468C102.563 57.7891 102.509 57.668 102.403 57.5821C102.298 57.4963 102.138 57.4329 101.925 57.3921L100.896 57.1964C100.471 57.1147 100.146 56.9584 99.923 56.7303C99.6999 56.5008 99.5884 56.2052 99.5884 55.8433C99.5884 55.5153 99.6787 55.2309 99.8609 54.9915C100.043 54.7522 100.294 54.5677 100.618 54.4382C100.939 54.3087 101.311 54.2439 101.729 54.2439C102.031 54.2439 102.313 54.2763 102.577 54.341C102.841 54.4058 103.097 54.5072 103.344 54.6438C103.447 54.6987 103.517 54.7705 103.554 54.8592C103.592 54.9479 103.601 55.038 103.579 55.1309C103.558 55.2238 103.517 55.3055 103.457 55.3773C103.395 55.4491 103.318 55.4942 103.225 55.511C103.132 55.5279 103.027 55.5096 102.912 55.4547C102.699 55.3449 102.495 55.2675 102.299 55.2182C102.104 55.1703 101.916 55.1464 101.739 55.1464C101.403 55.1464 101.154 55.2041 100.993 55.321C100.832 55.4378 100.752 55.5913 100.752 55.7828C100.752 55.9264 100.8 56.0461 100.896 56.1418C100.992 56.2376 101.139 56.3023 101.338 56.3361L102.367 56.5318C102.813 56.6135 103.15 56.7641 103.38 56.9838C103.611 57.2034 103.725 57.4963 103.725 57.8665C103.725 58.365 103.53 58.7578 103.139 59.0408C102.748 59.3238 102.227 59.466 101.576 59.466Z" fill="#8DB1AE"/>
<path d="M107.048 59.466C106.527 59.466 106.074 59.3604 105.69 59.1478C105.306 58.9352 105.008 58.6325 104.795 58.2397C104.582 57.8469 104.476 57.3837 104.476 56.8501C104.476 56.446 104.535 56.0855 104.657 55.7674C104.777 55.4492 104.95 55.176 105.176 54.9465C105.402 54.717 105.673 54.5424 105.989 54.4242C106.304 54.3045 106.659 54.2454 107.048 54.2454C107.569 54.2454 108.022 54.351 108.406 54.5636C108.79 54.7762 109.088 55.0761 109.301 55.4661C109.515 55.8561 109.62 56.3179 109.62 56.8515C109.62 57.2556 109.561 57.6174 109.441 57.9384C109.321 58.2608 109.147 58.5354 108.922 58.7649C108.696 58.9944 108.425 59.169 108.108 59.2872C107.792 59.4069 107.439 59.4674 107.048 59.4674V59.466ZM107.048 58.4917C107.302 58.4917 107.525 58.4298 107.717 58.3073C107.909 58.1848 108.059 58.0018 108.165 57.7582C108.271 57.5146 108.324 57.2133 108.324 56.8501C108.324 56.3038 108.207 55.8941 107.974 55.6237C107.741 55.3534 107.432 55.2183 107.048 55.2183C106.794 55.2183 106.571 55.2788 106.379 55.3985C106.187 55.5181 106.037 55.6998 105.931 55.9419C105.826 56.1841 105.772 56.4868 105.772 56.8501C105.772 57.3907 105.889 57.799 106.122 58.0764C106.355 58.3538 106.664 58.4917 107.048 58.4917Z" fill="#8DB1AE"/>
<path d="M111.337 59.4449C111.124 59.4449 110.962 59.3886 110.849 59.2759C110.736 59.1633 110.679 59 110.679 58.7888V54.9113C110.679 54.7001 110.734 54.5382 110.844 54.4298C110.954 54.3199 111.108 54.2664 111.307 54.2664C111.506 54.2664 111.66 54.3213 111.77 54.4298C111.881 54.5396 111.934 54.7001 111.934 54.9113V55.5575H111.831C111.927 55.1464 112.116 54.8367 112.397 54.6241C112.678 54.4115 113.052 54.2847 113.518 54.2439C113.662 54.2298 113.777 54.2664 113.863 54.3509C113.949 54.4368 113.998 54.5677 114.012 54.7451C114.026 54.9169 113.987 55.0549 113.894 55.1605C113.801 55.2661 113.662 55.3294 113.477 55.3506L113.251 55.3703C112.834 55.4111 112.517 55.5392 112.306 55.7546C112.094 55.9701 111.986 56.2728 111.986 56.6628V58.7859C111.986 58.9985 111.931 59.1605 111.821 59.2731C111.711 59.3857 111.55 59.4421 111.338 59.4421L111.337 59.4449Z" fill="#8DB1AE"/>
<path d="M115.349 53.3203C115.109 53.3203 114.922 53.2612 114.789 53.1415C114.656 53.0218 114.588 52.8557 114.588 52.6445C114.588 52.4333 114.655 52.2573 114.789 52.1419C114.923 52.0264 115.109 51.9673 115.349 51.9673C115.589 51.9673 115.784 52.025 115.914 52.1419C116.045 52.2587 116.11 52.4263 116.11 52.6445C116.11 52.8627 116.045 53.0218 115.914 53.1415C115.784 53.2612 115.595 53.3203 115.349 53.3203ZM115.349 59.435C115.143 59.435 114.985 59.3731 114.875 59.2506C114.765 59.1281 114.711 58.9563 114.711 58.7381V54.9733C114.711 54.7466 114.766 54.5748 114.875 54.4551C114.985 54.3355 115.143 54.2749 115.349 54.2749C115.555 54.2749 115.714 54.3355 115.828 54.4551C115.942 54.5748 115.997 54.7466 115.997 54.9733V58.7381C115.997 58.9577 115.942 59.1281 115.832 59.2506C115.722 59.3745 115.561 59.435 115.349 59.435Z" fill="#8DB1AE"/>
<path d="M65.1528 69.2216C64.9396 69.2216 64.7772 69.1625 64.6643 69.0428C64.5513 68.9232 64.4949 68.757 64.4949 68.5458V62.5029C64.4949 62.2847 64.5513 62.1157 64.6643 62.0003C64.7772 61.8848 64.9396 61.8257 65.1528 61.8257C65.3659 61.8257 65.5283 61.8834 65.6412 62.0003C65.7542 62.1171 65.8106 62.2847 65.8106 62.5029V64.9232H69.5447V62.5029C69.5447 62.2847 69.6012 62.1157 69.7142 62.0003C69.8271 61.8848 69.9909 61.8257 70.2026 61.8257C70.4144 61.8257 70.5781 61.8834 70.6911 62.0003C70.804 62.1171 70.8605 62.2847 70.8605 62.5029V68.5458C70.8605 68.7584 70.804 68.9232 70.6911 69.0428C70.5781 69.1625 70.4144 69.2216 70.2026 69.2216C69.9909 69.2216 69.8271 69.1625 69.7142 69.0428C69.6012 68.9232 69.5447 68.757 69.5447 68.5458V66.0214H65.8106V68.5458C65.8106 68.7584 65.7556 68.9232 65.6455 69.0428C65.5353 69.1625 65.3716 69.2216 65.1513 69.2216H65.1528Z" fill="#8DB1AE"/>
<path d="M74.6158 69.2414C74.0949 69.2414 73.6417 69.1358 73.2577 68.9232C72.8737 68.7106 72.5758 68.4079 72.3626 68.0151C72.1495 67.6223 72.0436 67.1591 72.0436 66.6255C72.0436 66.2214 72.1029 65.8609 72.2243 65.5427C72.3443 65.2245 72.5179 64.9514 72.7438 64.7219C72.9697 64.4924 73.2408 64.3178 73.557 64.1996C73.8718 64.0799 74.2262 64.0208 74.6158 64.0208C75.1368 64.0208 75.5899 64.1263 75.9739 64.3389C76.3579 64.5515 76.6558 64.8514 76.869 65.2414C77.0822 65.6314 77.188 66.0933 77.188 66.6269C77.188 67.0309 77.1287 67.3928 77.0087 67.7138C76.8887 68.0362 76.7151 68.3108 76.4892 68.5403C76.2633 68.7698 75.9923 68.9443 75.676 69.0626C75.3598 69.1823 75.0069 69.2428 74.6158 69.2428V69.2414ZM74.6158 68.2671C74.8699 68.2671 75.093 68.2052 75.285 68.0827C75.477 67.9602 75.6266 67.7772 75.7325 67.5336C75.8384 67.29 75.892 66.9887 75.892 66.6255C75.892 66.0792 75.7749 65.6695 75.5419 65.3991C75.309 65.1288 74.9998 64.9936 74.6158 64.9936C74.3617 64.9936 74.1386 65.0542 73.9466 65.1739C73.7546 65.2935 73.605 65.4752 73.4991 65.7173C73.3932 65.9595 73.3396 66.2622 73.3396 66.6255C73.3396 67.1661 73.4567 67.5744 73.6897 67.8518C73.9226 68.1291 74.2318 68.2671 74.6158 68.2671Z" fill="#8DB1AE"/>
<path d="M80.0666 69.2415C79.6488 69.2415 79.3015 69.164 79.0276 69.0106C78.7537 68.8571 78.549 68.6262 78.4163 68.3179C78.2822 68.0095 78.2158 67.628 78.2158 67.169V64.6868C78.2158 64.4685 78.2709 64.3052 78.381 64.1996C78.4911 64.094 78.6478 64.0405 78.8539 64.0405C79.06 64.0405 79.2196 64.094 79.3325 64.1996C79.4455 64.3052 79.5019 64.4685 79.5019 64.6868V67.1901C79.5019 67.5463 79.5739 67.8082 79.7179 67.98C79.8619 68.1503 80.092 68.2362 80.4069 68.2362C80.7499 68.2362 81.0309 68.1179 81.2497 67.8828C81.4685 67.6477 81.5786 67.3337 81.5786 66.9437V64.6868C81.5786 64.4685 81.6337 64.3052 81.7438 64.1996C81.8539 64.094 82.0106 64.0405 82.2167 64.0405C82.4229 64.0405 82.5824 64.094 82.6953 64.1996C82.8083 64.3052 82.8647 64.4685 82.8647 64.6868V68.5643C82.8647 69.0021 82.6558 69.2204 82.2365 69.2204C82.0375 69.2204 81.8836 69.164 81.7734 69.0514C81.6633 68.9388 81.6083 68.7755 81.6083 68.5643V67.7843L81.7523 68.0926C81.6083 68.4615 81.3909 68.7459 81.0986 68.9444C80.8064 69.1429 80.4619 69.2429 80.0652 69.2429L80.0666 69.2415Z" fill="#8DB1AE"/>
<path d="M86.0439 69.2414C85.7489 69.2414 85.4369 69.2104 85.1079 69.1484C84.779 69.0865 84.4839 68.9809 84.2228 68.8302C84.1126 68.7613 84.0364 68.681 83.9912 68.5895C83.946 68.498 83.9291 68.405 83.9404 68.3121C83.9503 68.2192 83.9842 68.1389 84.0435 68.0714C84.1013 68.0038 84.1776 67.9587 84.2693 67.9376C84.3625 67.9165 84.4627 67.9348 84.5729 67.9897C84.8467 68.1192 85.1037 68.2093 85.3437 68.2614C85.5837 68.3121 85.8209 68.3375 86.0538 68.3375C86.3827 68.3375 86.6284 68.2811 86.7893 68.1685C86.9503 68.0559 87.0307 67.9066 87.0307 67.7222C87.0307 67.5645 86.9771 67.4434 86.8712 67.3575C86.7653 67.2716 86.6058 67.2083 86.3926 67.1675L85.3634 66.9718C84.9385 66.8901 84.6138 66.7338 84.3908 66.5057C84.1677 66.2762 84.0562 65.9806 84.0562 65.6187C84.0562 65.2907 84.1465 65.0063 84.3286 64.7669C84.5108 64.5276 84.762 64.3431 85.0853 64.2136C85.4072 64.084 85.7785 64.0193 86.1964 64.0193C86.4985 64.0193 86.7809 64.0517 87.0449 64.1164C87.3089 64.1812 87.5644 64.2826 87.8114 64.4191C87.9145 64.4741 87.9851 64.5459 88.0218 64.6346C88.0599 64.7233 88.0684 64.8134 88.0472 64.9063C88.026 64.9992 87.9851 65.0809 87.9244 65.1527C87.8623 65.2245 87.786 65.2695 87.6929 65.2864C87.5997 65.3033 87.4952 65.285 87.3794 65.2301C87.1663 65.1203 86.963 65.0429 86.7667 64.9936C86.5719 64.9457 86.3842 64.9218 86.2063 64.9218C85.8703 64.9218 85.6218 64.9795 85.4609 65.0964C85.2999 65.2132 85.2195 65.3667 85.2195 65.5582C85.2195 65.7018 85.2674 65.8215 85.3634 65.9172C85.4594 66.0129 85.6063 66.0777 85.8053 66.1115L86.8345 66.3072C87.2806 66.3889 87.618 66.5395 87.8482 66.7592C88.0783 66.9788 88.1926 67.2716 88.1926 67.6419C88.1926 68.1403 87.9978 68.5332 87.6067 68.8162C87.2157 69.0992 86.6947 69.2414 86.0439 69.2414Z" fill="#8DB1AE"/>
<path d="M91.7009 69.2414C91.1319 69.2414 90.6407 69.1358 90.2298 68.9232C89.8176 68.7106 89.5014 68.4107 89.2783 68.0207C89.0553 67.6307 88.9437 67.1689 88.9437 66.6367C88.9437 66.1045 89.051 65.6624 89.2684 65.2724C89.4858 64.8824 89.7823 64.5769 90.1635 64.3544C90.5447 64.132 90.9781 64.0208 91.4651 64.0208C91.8209 64.0208 92.1428 64.0785 92.4265 64.1953C92.7103 64.3122 92.9545 64.4797 93.1564 64.698C93.3583 64.9176 93.5136 65.1823 93.6195 65.4935C93.7254 65.8046 93.779 66.1552 93.779 66.5452C93.779 66.6677 93.7366 66.762 93.6505 66.8268C93.5644 66.8916 93.443 66.9239 93.2849 66.9239H89.9828V66.1848H92.8726L92.7075 66.3382C92.7075 66.0243 92.6609 65.761 92.5691 65.5484C92.4759 65.3372 92.3432 65.1739 92.1682 65.0612C91.9931 64.9486 91.7757 64.8923 91.5145 64.8923C91.2265 64.8923 90.9809 64.9584 90.779 65.0922C90.5771 65.226 90.4218 65.4132 90.316 65.6568C90.2101 65.899 90.1564 66.189 90.1564 66.5241V66.5959C90.1564 67.1563 90.2877 67.5758 90.5531 67.8532C90.8171 68.1306 91.2068 68.2685 91.7207 68.2685C91.8985 68.2685 92.099 68.246 92.3221 68.2024C92.5451 68.1587 92.7555 68.0813 92.9545 67.9715C93.0985 67.8898 93.2256 67.8532 93.3357 67.8645C93.4458 67.8743 93.5334 67.9137 93.5983 67.9827C93.6632 68.0517 93.7028 68.1348 93.7169 68.2333C93.731 68.3333 93.7112 68.4333 93.6604 68.536C93.6096 68.6388 93.5221 68.7275 93.3978 68.8021C93.1578 68.9528 92.8811 69.064 92.5691 69.1358C92.2571 69.2076 91.9677 69.2428 91.6995 69.2428L91.7009 69.2414Z" fill="#8DB1AE"/>
<path d="M99.8792 69.2414C99.3583 69.2414 98.9051 69.1358 98.5211 68.9232C98.1371 68.7106 97.8392 68.4079 97.6261 68.0151C97.4129 67.6223 97.307 67.1591 97.307 66.6255C97.307 66.2214 97.3663 65.8609 97.4877 65.5427C97.6077 65.2245 97.7814 64.9514 98.0072 64.7219C98.2331 64.4924 98.5042 64.3178 98.8204 64.1996C99.1352 64.0799 99.4896 64.0208 99.8792 64.0208C100.4 64.0208 100.853 64.1263 101.237 64.3389C101.621 64.5515 101.919 64.8514 102.132 65.2414C102.346 65.6314 102.451 66.0933 102.451 66.6269C102.451 67.0309 102.392 67.3928 102.272 67.7138C102.152 68.0362 101.979 68.3108 101.753 68.5403C101.527 68.7698 101.256 68.9443 100.939 69.0626C100.623 69.1823 100.27 69.2428 99.8792 69.2428V69.2414ZM99.8792 68.2671C100.133 68.2671 100.356 68.2052 100.548 68.0827C100.74 67.9602 100.89 67.7772 100.996 67.5336C101.102 67.29 101.155 66.9887 101.155 66.6255C101.155 66.0792 101.038 65.6695 100.805 65.3991C100.572 65.1288 100.263 64.9936 99.8792 64.9936C99.6251 64.9936 99.4021 65.0542 99.2101 65.1739C99.0181 65.2935 98.8684 65.4752 98.7625 65.7173C98.6566 65.9595 98.603 66.2622 98.603 66.6255C98.603 67.1661 98.7202 67.5744 98.9531 67.8518C99.1861 68.1291 99.4952 68.2671 99.8792 68.2671Z" fill="#8DB1AE"/>
<path d="M104.445 69.2216C104.239 69.2216 104.079 69.1653 103.966 69.0527C103.853 68.9401 103.797 68.7767 103.797 68.5655V65.0879H103.324C103.159 65.0879 103.032 65.0457 102.943 64.9598C102.854 64.8739 102.809 64.757 102.809 64.6064C102.809 64.4557 102.854 64.329 102.943 64.2474C103.032 64.1657 103.159 64.1235 103.324 64.1235H104.167L103.797 64.4628V64.1136C103.797 63.4096 103.975 62.8802 104.332 62.5283C104.689 62.1763 105.203 61.9693 105.875 61.9074L106.225 61.8764C106.362 61.8623 106.472 61.8848 106.554 61.9426C106.636 62.0003 106.691 62.0763 106.719 62.1678C106.746 62.2608 106.75 62.3537 106.729 62.4494C106.708 62.5452 106.666 62.6282 106.601 62.7C106.536 62.7718 106.451 62.8113 106.348 62.8183L106.204 62.8282C105.813 62.8549 105.528 62.9549 105.35 63.1252C105.172 63.297 105.083 63.5561 105.083 63.9052V64.2854L104.918 64.1207H105.957C106.122 64.1207 106.248 64.1615 106.338 64.2446C106.428 64.3276 106.472 64.4459 106.472 64.6036C106.472 64.7613 106.427 64.8725 106.338 64.957C106.249 65.0429 106.122 65.0851 105.957 65.0851H105.083V68.5627C105.083 69.0006 104.87 69.2188 104.445 69.2188V69.2216Z" fill="#8DB1AE"/>
<path d="M113.487 69.2415C112.733 69.2415 112.087 69.0894 111.549 68.7853C111.011 68.4812 110.597 68.0503 110.309 67.4928C110.021 66.9352 109.877 66.2777 109.877 65.5189C109.877 64.9515 109.959 64.4404 110.124 63.9856C110.29 63.5308 110.525 63.1408 110.834 62.8156C111.144 62.4904 111.522 62.2411 111.971 62.0666C112.42 61.892 112.925 61.8047 113.489 61.8047C113.866 61.8047 114.235 61.8526 114.6 61.9483C114.964 62.044 115.283 62.1806 115.555 62.3594C115.701 62.4481 115.797 62.5565 115.843 62.6818C115.891 62.8086 115.901 62.9325 115.874 63.0507C115.848 63.169 115.79 63.2704 115.705 63.3534C115.619 63.4351 115.513 63.4816 115.386 63.4914C115.259 63.5013 115.121 63.459 114.97 63.3633C114.756 63.2267 114.528 63.1267 114.281 63.0662C114.034 63.0043 113.784 62.9733 113.53 62.9733C113.042 62.9733 112.632 63.0732 112.296 63.2704C111.96 63.4689 111.706 63.7561 111.535 64.132C111.364 64.5079 111.278 64.9698 111.278 65.5174C111.278 66.0651 111.364 66.5199 111.535 66.9015C111.706 67.2844 111.96 67.5759 112.296 67.773C112.632 67.9715 113.042 68.0701 113.53 68.0701C113.791 68.0701 114.048 68.0377 114.3 67.9729C114.554 67.9081 114.794 67.8068 115.02 67.6702C115.171 67.5815 115.307 67.5421 115.427 67.5519C115.547 67.5618 115.647 67.6054 115.73 67.6801C115.812 67.7561 115.867 67.849 115.896 67.9616C115.922 68.0743 115.917 68.1911 115.874 68.3108C115.832 68.4305 115.752 68.5347 115.627 68.6234C115.354 68.8219 115.026 68.974 114.645 69.0796C114.264 69.1852 113.878 69.2387 113.487 69.2387V69.2415Z" fill="#8DB1AE"/>
<path d="M117.622 69.2217C117.416 69.2217 117.259 69.1654 117.149 69.0527C117.039 68.9401 116.984 68.7768 116.984 68.5656V62.472C116.984 62.2608 117.039 62.0989 117.149 61.9905C117.259 61.8807 117.416 61.8271 117.622 61.8271C117.828 61.8271 117.986 61.8821 118.101 61.9905C118.214 62.1003 118.27 62.2608 118.27 62.472V65.1288H118.126C118.277 64.7655 118.513 64.491 118.831 64.3023C119.15 64.1137 119.511 64.0207 119.916 64.0207C120.322 64.0207 120.653 64.0954 120.914 64.246C121.176 64.3967 121.37 64.6233 121.5 64.9289C121.63 65.233 121.695 65.6173 121.695 66.0834V68.5656C121.695 68.7782 121.64 68.9401 121.53 69.0527C121.421 69.1654 121.263 69.2217 121.057 69.2217C120.851 69.2217 120.693 69.1654 120.578 69.0527C120.466 68.9401 120.409 68.7768 120.409 68.5656V66.1453C120.409 65.7553 120.336 65.4723 120.189 65.2935C120.041 65.1161 119.813 65.026 119.504 65.026C119.127 65.026 118.826 65.1443 118.603 65.3794C118.38 65.6159 118.269 65.9285 118.269 66.3185V68.5656C118.269 69.0035 118.053 69.2217 117.621 69.2217H117.622Z" fill="#8DB1AE"/>
<path d="M123.641 63.0972C123.399 63.0972 123.213 63.038 123.08 62.9184C122.946 62.7987 122.88 62.6326 122.88 62.4214C122.88 62.2102 122.946 62.0342 123.08 61.9187C123.213 61.8033 123.401 61.7441 123.641 61.7441C123.881 61.7441 124.075 61.8019 124.205 61.9187C124.337 62.0356 124.402 62.2031 124.402 62.4214C124.402 62.6396 124.337 62.7987 124.205 62.9184C124.075 63.038 123.886 63.0972 123.641 63.0972ZM123.641 69.2119C123.434 69.2119 123.276 69.1499 123.166 69.0275C123.058 68.905 123.002 68.7332 123.002 68.515V64.7501C123.002 64.5234 123.058 64.3517 123.166 64.232C123.276 64.1123 123.434 64.0518 123.641 64.0518C123.847 64.0518 124.005 64.1123 124.119 64.232C124.234 64.3517 124.289 64.5234 124.289 64.7501V68.515C124.289 68.7346 124.234 68.905 124.123 69.0275C124.013 69.1514 123.852 69.2119 123.641 69.2119Z" fill="#8DB1AE"/>
<path d="M127.344 69.2414C126.773 69.2414 126.345 69.0795 126.057 68.7543C125.769 68.429 125.625 67.9531 125.625 67.3238V62.472C125.625 62.2608 125.681 62.0989 125.791 61.9905C125.901 61.8807 126.057 61.8271 126.264 61.8271C126.47 61.8271 126.628 61.8821 126.742 61.9905C126.855 62.1003 126.912 62.2608 126.912 62.472V67.2632C126.912 67.5786 126.978 67.8095 127.112 67.9602C127.246 68.1108 127.437 68.1854 127.682 68.1854C127.737 68.1854 127.788 68.184 127.838 68.1798C127.884 68.1756 127.934 68.1714 127.982 68.1643C128.078 68.1502 128.143 68.1756 128.177 68.2418C128.21 68.3065 128.227 68.4389 128.227 68.636C128.227 68.8078 128.193 68.9401 128.124 69.0358C128.055 69.1316 127.942 69.1893 127.784 69.2104C127.715 69.2175 127.643 69.2245 127.568 69.2315C127.493 69.2386 127.417 69.2414 127.342 69.2414H127.344Z" fill="#8DB1AE"/>
<path d="M130.788 69.2413C130.349 69.2413 129.964 69.1358 129.631 68.9232C129.297 68.7105 129.039 68.4078 128.854 68.015C128.669 67.6222 128.576 67.159 128.576 66.6254C128.576 66.0918 128.669 65.6215 128.854 65.2357C129.039 64.8485 129.297 64.5501 129.631 64.3375C129.964 64.1249 130.349 64.0193 130.788 64.0193C131.227 64.0193 131.572 64.122 131.884 64.3276C132.196 64.5332 132.406 64.8035 132.516 65.1386H132.403V62.4705C132.403 62.2593 132.458 62.0974 132.569 61.989C132.677 61.8792 132.835 61.8257 133.041 61.8257C133.248 61.8257 133.406 61.8806 133.52 61.989C133.633 62.0988 133.689 62.2593 133.689 62.4705V68.5641C133.689 68.7767 133.634 68.9386 133.524 69.0513C133.414 69.1639 133.257 69.2202 133.051 69.2202C132.845 69.2202 132.689 69.1639 132.578 69.0513C132.468 68.9386 132.413 68.7753 132.413 68.5641V67.7644L132.526 68.0727C132.423 68.429 132.214 68.712 131.898 68.9246C131.583 69.1372 131.212 69.2428 130.787 69.2428L130.788 69.2413ZM131.148 68.267C131.401 68.267 131.625 68.2051 131.816 68.0826C132.008 67.9601 132.156 67.7771 132.264 67.5335C132.369 67.2899 132.423 66.9886 132.423 66.6254C132.423 66.0791 132.306 65.6694 132.073 65.3991C131.84 65.1287 131.531 64.9936 131.147 64.9936C130.893 64.9936 130.67 65.0541 130.478 65.1738C130.286 65.2935 130.137 65.4751 130.03 65.7173C129.924 65.9608 129.872 66.2621 129.872 66.6254C129.872 67.166 129.988 67.5743 130.221 67.8517C130.454 68.1291 130.763 68.267 131.147 68.267H131.148Z" fill="#8DB1AE"/>
<path d="M135.684 69.2217C135.471 69.2217 135.309 69.1654 135.196 69.0528C135.083 68.9401 135.026 68.7768 135.026 68.5656V64.6881C135.026 64.4769 135.081 64.315 135.19 64.2066C135.3 64.0968 135.456 64.0433 135.653 64.0433C135.851 64.0433 136.006 64.0982 136.116 64.2066C136.225 64.3164 136.281 64.4769 136.281 64.6881V65.3344H136.178C136.274 64.9233 136.464 64.6135 136.744 64.4009C137.025 64.1883 137.4 64.0616 137.867 64.0208C138.011 64.0067 138.125 64.0433 138.211 64.1278C138.297 64.2122 138.347 64.3446 138.361 64.522C138.374 64.6938 138.334 64.8317 138.242 64.9373C138.149 65.0429 138.011 65.1063 137.826 65.1274L137.599 65.1471C137.181 65.188 136.864 65.3161 136.653 65.5315C136.441 65.7469 136.334 66.0496 136.334 66.4396V68.5628C136.334 68.7754 136.279 68.9373 136.168 69.05C136.058 69.1626 135.897 69.2189 135.684 69.2189V69.2217Z" fill="#8DB1AE"/>
<path d="M141.456 69.2414C140.887 69.2414 140.397 69.1358 139.984 68.9232C139.574 68.7106 139.256 68.4107 139.033 68.0207C138.81 67.6307 138.698 67.1689 138.698 66.6367C138.698 66.1045 138.806 65.6624 139.022 65.2724C139.239 64.8824 139.536 64.5769 139.917 64.3544C140.298 64.132 140.731 64.0208 141.218 64.0208C141.576 64.0208 141.896 64.0785 142.18 64.1953C142.464 64.3122 142.708 64.4797 142.91 64.698C143.112 64.9176 143.267 65.1823 143.373 65.4935C143.479 65.8046 143.531 66.1552 143.531 66.5452C143.531 66.6677 143.488 66.762 143.402 66.8268C143.316 66.8916 143.195 66.9239 143.037 66.9239H139.736V66.1848H142.626L142.461 66.3382C142.461 66.0243 142.414 65.761 142.322 65.5484C142.229 65.3372 142.096 65.1739 141.921 65.0612C141.746 64.9486 141.529 64.8923 141.269 64.8923C140.981 64.8923 140.736 64.9584 140.534 65.0922C140.332 65.226 140.176 65.4132 140.071 65.6568C139.963 65.899 139.911 66.189 139.911 66.5241V66.5959C139.911 67.1563 140.044 67.5758 140.308 67.8532C140.572 68.1306 140.961 68.2685 141.475 68.2685C141.655 68.2685 141.854 68.246 142.078 68.2024C142.301 68.1587 142.512 68.0813 142.711 67.9715C142.856 67.8898 142.982 67.8532 143.092 67.8645C143.2 67.8743 143.288 67.9137 143.354 67.9827C143.419 68.0517 143.459 68.1348 143.473 68.2333C143.486 68.3333 143.467 68.4333 143.416 68.536C143.366 68.6388 143.278 68.7275 143.154 68.8021C142.914 68.9528 142.637 69.064 142.325 69.1358C142.013 69.2076 141.724 69.2428 141.456 69.2428V69.2414Z" fill="#8DB1AE"/>
<path d="M145.19 69.2218C144.984 69.2218 144.825 69.1655 144.715 69.0528C144.607 68.9402 144.552 68.7769 144.552 68.5657V64.6882C144.552 64.477 144.607 64.3151 144.715 64.2067C144.825 64.0968 144.981 64.0433 145.178 64.0433C145.376 64.0433 145.531 64.0982 145.641 64.2067C145.75 64.3165 145.807 64.477 145.807 64.6882V65.3865L145.694 65.1303C145.845 64.767 146.079 64.4925 146.398 64.3038C146.717 64.1151 147.079 64.0222 147.484 64.0222C147.889 64.0222 148.221 64.0968 148.482 64.2475C148.743 64.3981 148.938 64.6248 149.068 64.9303C149.198 65.2345 149.263 65.6188 149.263 66.0849V68.5671C149.263 68.7797 149.208 68.9416 149.097 69.0542C148.987 69.1669 148.831 69.2232 148.624 69.2232C148.418 69.2232 148.259 69.1669 148.146 69.0542C148.033 68.9416 147.975 68.7783 147.975 68.5671V66.1468C147.975 65.7568 147.902 65.4738 147.755 65.295C147.608 65.1162 147.379 65.0275 147.07 65.0275C146.693 65.0275 146.392 65.1458 146.169 65.3809C145.946 65.616 145.835 65.93 145.835 66.32V68.5671C145.835 69.0049 145.619 69.2232 145.187 69.2232L145.19 69.2218Z" fill="#8DB1AE"/>
</g>
<defs>
<clipPath id="clip0_848_389">
<rect width="152" height="71" fill="white"/>
</clipPath>
</defs>
</svg>
