<svg width="69" height="54" viewBox="0 0 69 54" fill="none" xmlns="http://www.w3.org/2000/svg">
<g clip-path="url(#clip0_854_12324)">
<path d="M11.8298 3.85797C13.5041 1.57436 15.3528 0.312189 17.3826 0.0649604C19.4124 -0.175763 21.1772 0.214599 22.6704 1.23604C24.1637 2.25749 24.9976 3.79291 25.1786 5.8358C25.3596 7.8852 24.4869 10.0452 22.5799 12.3288C19.8326 15.5753 17.9774 18.8218 17.0271 22.0683C16.0704 25.3148 15.592 28.2035 15.592 30.7279L14.8745 23.5127C19.6516 23.5127 23.5367 24.8985 26.5232 27.6635C29.5097 30.4286 31.0029 34.1565 31.0029 38.8474C31.0029 43.5382 29.626 46.9344 26.8787 49.758C24.1314 52.5816 20.3627 53.9999 15.5856 53.9999C10.8084 53.9999 6.86521 52.3474 4.11788 49.0423C1.37055 45.7372 -0.00634766 41.1375 -0.00634766 35.243C-0.00634766 32.1201 0.29101 28.8997 0.892191 25.5946C1.48691 22.2895 2.65048 18.8609 4.38938 15.3151C6.12181 11.7693 8.60411 7.95026 11.8298 3.85797ZM49.827 3.85797C51.5012 1.57436 53.35 0.312189 55.3798 0.0714664C57.4096 -0.169257 59.1744 0.221105 60.6676 1.24255C62.1609 2.264 62.9948 3.79942 63.1758 5.84231C63.3568 7.89171 62.4841 10.0517 60.5771 12.3353C57.8298 15.5818 55.9745 18.8283 55.0243 22.0748C54.0676 25.3213 53.5892 28.21 53.5892 30.7344L52.8717 23.5192C57.6488 23.5192 61.5338 24.905 64.5203 27.67C67.5069 30.4351 69.0001 34.163 69.0001 38.8539C69.0001 43.5447 67.6232 46.9409 64.8759 49.7645C62.1286 52.5881 58.3599 54.0064 53.5827 54.0064C48.8056 54.0064 44.8624 52.3539 42.1151 49.0488C39.3677 45.7438 37.9908 41.144 37.9908 35.2495C37.9908 32.1266 38.2882 28.9062 38.8894 25.6011C39.4841 22.296 40.6477 18.8674 42.3866 15.3216C44.119 11.7758 46.6013 7.95677 49.827 3.86448V3.85797Z" fill="#9BBA3C"/>
</g>
<defs>
<clipPath id="clip0_854_12324">
<rect width="69" height="54" fill="white"/>
</clipPath>
</defs>
</svg>
