<svg width="152" height="71" viewBox="0 0 152 71" fill="none" xmlns="http://www.w3.org/2000/svg">
<g clip-path="url(#clip0_1059_1150)">
<path d="M9.38419 22.8629C8.6769 16.9538 3.70327 16.3751 1.18186 16.4709C0.358806 16.5018 -0.198839 17.3086 0.0651597 18.0858C0.77951 20.1963 2.94656 23.7415 9.38419 22.8629Z" fill="#8DB1AE"/>
<path d="M37.265 65.4751C43.1422 66.4973 53.1021 65.9665 56.6005 62.5072C58.5304 60.5994 59.4339 57.9046 60.0791 55.1098C60.5732 52.9627 60.9304 50.6536 60.8442 48.2292C60.8386 48.0729 60.8118 47.9152 60.7708 47.7617C60.0056 48.8853 59.1995 49.8891 58.5049 50.6705C50.9647 59.2928 36.5394 65.1442 26.513 57.2527C24.8401 55.9292 23.4326 54.3439 22.3102 52.6051C22.3102 52.6051 22.3088 52.6036 22.3074 52.6036C20.9338 52.5853 19.587 52.5304 18.2825 52.4319C17.8703 52.4023 17.6147 52.8683 17.859 53.2006C22.4966 59.5265 29.5003 64.1868 37.265 65.4751Z" fill="#8DB1AE"/>
<path d="M56.8454 49.0515C61.1287 44.884 58.8571 46.1737 58.524 46.3271C56.6223 47.2071 53.8863 48.1237 50.6336 48.9783C50.4882 49.6175 50.3005 50.2412 50.052 50.8382C49.2586 52.7431 47.8976 54.6016 46.1104 56.118C50.0859 54.4003 53.875 51.9406 56.844 49.0515H56.8454Z" fill="#8DB1AE"/>
<path d="M46.5857 68.1896C40.7579 68.9246 34.6393 68.1474 29.3269 65.5568C24.0356 62.9563 20.5387 60.063 16.6465 53.0753C16.1354 52.1573 13.9246 55.1985 19.981 63.7222C22.1453 66.769 25.3274 68.6711 28.9471 69.8637C32.5655 71.0562 36.6327 71.311 41.149 70.6254C44.5075 70.1157 47.5047 69.1682 50.139 67.787C50.3226 67.6898 50.4991 67.587 50.6783 67.4871C49.3245 67.7884 47.9593 68.0277 46.5857 68.191V68.1896Z" fill="#8DB1AE"/>
<path d="M58.6828 22.2761C54.3233 5.76932 44.575 0.831646 32.6132 2.28042C29.1064 2.70563 26.0993 4.23184 23.7713 6.46907C19.7789 10.3071 20.4749 16.7133 20.4749 16.7133L19.3314 10.7323C18.9841 8.91468 18.2485 7.6264 17.129 6.86611C16.0081 6.10864 14.5963 5.8904 12.8909 6.21423C11.1855 6.53947 9.95163 7.26034 9.19069 8.37684C8.42834 9.49475 8.22363 10.9632 8.57093 12.7795L14.9309 46.0282C15.2782 47.8458 16.0151 49.1496 17.1417 49.9381C18.1638 50.6547 19.4641 50.9799 21.0001 50.6829C30.4292 48.8582 23.2702 38.2704 23.6118 28.1149C23.9648 17.6383 38.8447 11.6306 44.0146 23.5503C45.4532 26.8646 50.52 25.6524 50.52 25.6524L46.9454 30.3507C46.9454 30.3507 50.7204 37.7283 50.983 44.7568C56.5595 42.8941 58.8169 39.7347 59.6216 36.9737C60.3924 34.3239 60.8555 30.5027 58.6828 22.2761Z" fill="#8DB1AE"/>
<path d="M132.728 50.3795C129.416 49.8346 126.631 48.7336 124.375 47.0807C122.118 45.4278 120.496 43.3187 119.51 40.7562C118.523 38.1937 118.293 35.3215 118.82 32.1396C119.219 29.7221 119.962 27.6215 121.046 25.8348C122.129 24.0481 123.511 22.5993 125.188 21.4898C126.865 20.3804 128.771 19.6384 130.909 19.2667C133.045 18.895 135.364 18.9147 137.869 19.3258C141.179 19.8707 143.965 20.9717 146.222 22.6246C148.478 24.279 150.092 26.3754 151.062 28.9139C152.031 31.4539 152.25 34.3331 151.717 37.5559C151.323 39.9325 150.582 42.0233 149.496 43.8312C148.409 45.6376 147.035 47.099 145.379 48.2113C143.722 49.325 141.815 50.0655 139.659 50.4344C137.502 50.8033 135.192 50.785 132.728 50.3795ZM134.039 42.4654C135.128 42.6443 136.143 42.533 137.081 42.1289C138.018 41.7249 138.812 41.0082 139.46 39.9762C140.106 38.9456 140.578 37.5433 140.871 35.7707C141.318 33.073 141.114 31.0428 140.262 29.6813C139.407 28.3212 138.174 27.506 136.559 27.2413C135.469 27.0625 134.455 27.1639 133.52 27.5482C132.586 27.9326 131.784 28.638 131.116 29.6658C130.448 30.695 129.964 32.1142 129.663 33.9262C129.223 36.5844 129.428 38.6049 130.279 39.986C131.129 41.3672 132.381 42.1937 134.037 42.4669L134.039 42.4654Z" fill="#8DB1AE"/>
<path d="M68.77 16.103C67.2114 16.2776 65.0416 14.9203 64.4514 13.1041C64.1112 12.058 64.3484 10.8063 65.1898 10.4684C67.1634 9.67853 67.875 11.5962 68.3098 11.6609C68.6797 11.7172 69.1187 9.27305 71.0655 9.80807C71.9295 10.046 72.5451 10.8246 72.3531 12.2157C72.1399 13.7503 70.7592 15.8777 68.77 16.1016V16.103Z" fill="#8DB1AE"/>
<path d="M67.852 45.5885C66.6619 44.8719 66.1692 43.2724 65.9546 41.3647L64.1518 24.5144C63.9372 22.608 64.2393 21.0959 65.0609 19.9751C65.8826 18.8558 67.1475 18.2011 68.8558 18.0082C70.6035 17.8125 72.0139 18.1673 73.0854 19.074C74.1555 19.9808 74.7993 21.3887 75.0139 23.2951L76.8167 40.1454C77.1795 43.1063 78.0689 43.7554 78.0689 43.7554C78.0689 43.7554 72.4402 48.3537 67.8534 45.5885H67.852Z" fill="#8DB1AE"/>
<path d="M94.2208 46.7507C91.6387 46.7845 89.3149 46.065 87.2792 44.536C85.2448 43.0069 83.6383 40.7627 82.5286 37.8144C81.4204 34.869 80.946 31.3759 81.1874 27.4266C81.4345 23.3773 82.3324 20.0137 83.7695 17.3907C85.2081 14.7649 87.0477 12.9064 89.2246 11.7927C91.4015 10.6762 93.7676 10.3974 96.3046 10.8733C98.5224 11.2873 100.557 12.0757 102.025 13.6906C103.99 15.8532 104.336 18.5565 104.339 18.5593C104.912 13.8765 105.68 9.23448 106.639 4.64738C107.033 2.75933 107.822 1.43867 108.965 0.695274C110.11 -0.0481224 111.537 -0.187509 113.244 0.243323C114.912 0.664299 116.096 1.45697 116.813 2.60164C117.53 3.74911 117.693 5.18663 117.324 6.95079C115.054 17.8469 113.93 29.0739 114.031 40.4445C114.05 42.9689 115.185 44.7823 115.184 44.7795C115.181 44.7317 108.471 48.1136 104.726 44.8781C103.68 43.9587 103.232 42.3734 103.217 40.4079C103.207 39.1351 103.211 37.8651 103.229 36.5951C103.142 36.5782 103.293 46.5183 94.218 46.7521L94.2208 46.7507ZM97.5653 37.6314C98.6721 37.668 99.6575 37.3878 100.524 36.8063C101.393 36.2248 102.072 35.3308 102.578 34.1242C103.084 32.919 103.377 31.3491 103.489 29.4005C103.66 26.4382 103.322 24.2671 102.389 22.8367C101.456 21.409 100.19 20.5755 98.5634 20.3615C97.4664 20.2179 96.4585 20.384 95.5422 20.8726C94.626 21.3625 93.8608 22.2172 93.2594 23.4463C92.658 24.674 92.2768 26.3551 92.1512 28.4783C91.9691 31.5927 92.442 33.9074 93.4768 35.3688C94.513 36.8331 95.8839 37.5765 97.5639 37.6314H97.5653Z" fill="#8DB1AE"/>
<path d="M65.1104 59.4452C64.9184 59.4452 64.7716 59.3903 64.6685 59.2805C64.5655 59.1707 64.5146 59.02 64.5146 58.8285V52.6631C64.5146 52.4646 64.5697 52.3125 64.6798 52.2069C64.7899 52.1013 64.941 52.0479 65.133 52.0479C65.3038 52.0479 65.4393 52.0802 65.5396 52.145C65.6384 52.2098 65.7302 52.321 65.8121 52.4787L68.3532 57.1671H68.0243L70.5655 52.4787C70.6473 52.321 70.7363 52.2112 70.8323 52.145C70.9283 52.0802 71.0624 52.0479 71.2332 52.0479C71.4252 52.0479 71.572 52.1013 71.6751 52.2069C71.7782 52.3125 71.829 52.4646 71.829 52.6631V58.8285C71.829 59.02 71.7796 59.1707 71.6793 59.2805C71.5805 59.3903 71.4309 59.4452 71.2318 59.4452C71.0327 59.4452 70.893 59.3903 70.7899 59.2805C70.6869 59.1707 70.636 59.02 70.636 58.8285V54.0781H70.8619L68.7019 58.0077C68.6328 58.1246 68.5608 58.209 68.4859 58.2639C68.4111 58.3189 68.308 58.3456 68.1768 58.3456C68.0455 58.3456 67.9396 58.316 67.8577 58.2583C67.7758 58.2006 67.7038 58.1175 67.6417 58.0077L65.4605 54.0683H65.7076V58.8285C65.7076 59.02 65.6582 59.1707 65.5579 59.2805C65.4591 59.3903 65.3095 59.4452 65.1104 59.4452Z" fill="#8DB1AE"/>
<path d="M75.5927 59.4668C75.0718 59.4668 74.6186 59.3612 74.2346 59.1486C73.8506 58.936 73.5527 58.6333 73.3396 58.2404C73.1264 57.8476 73.0205 57.3844 73.0205 56.8508C73.0205 56.4467 73.0798 56.0863 73.2012 55.7681C73.3212 55.4499 73.4949 55.1767 73.7207 54.9473C73.9466 54.7178 74.2177 54.5432 74.5339 54.4249C74.8487 54.3052 75.2031 54.2461 75.5927 54.2461C76.1137 54.2461 76.5669 54.3517 76.9509 54.5643C77.3349 54.7769 77.6327 55.0768 77.8459 55.4668C78.0591 55.8568 78.165 56.3186 78.165 56.8522C78.165 57.2563 78.1057 57.6181 77.9857 57.9391C77.8657 58.2616 77.692 58.5361 77.4661 58.7656C77.2403 58.9951 76.9692 59.1697 76.653 59.288C76.3367 59.4076 75.9838 59.4682 75.5927 59.4682V59.4668ZM75.5927 58.4925C75.8469 58.4925 76.0699 58.4305 76.2619 58.308C76.4539 58.1855 76.6036 58.0025 76.7094 57.7589C76.8153 57.5154 76.869 57.214 76.869 56.8508C76.869 56.3045 76.7518 55.8948 76.5189 55.6245C76.2859 55.3542 75.9767 55.219 75.5927 55.219C75.3386 55.219 75.1156 55.2795 74.9236 55.3992C74.7316 55.5189 74.5819 55.7005 74.476 55.9427C74.3702 56.1848 74.3165 56.4875 74.3165 56.8508C74.3165 57.3914 74.4337 57.7998 74.6666 58.0771C74.8996 58.3545 75.2087 58.4925 75.5927 58.4925Z" fill="#8DB1AE"/>
<path d="M79.8618 59.4456C79.6556 59.4456 79.4975 59.3893 79.3888 59.2767C79.2787 59.1641 79.2236 59.0007 79.2236 58.7895V54.9121C79.2236 54.7009 79.2787 54.5389 79.3888 54.4305C79.4989 54.3207 79.6528 54.2672 79.8519 54.2672C80.0509 54.2672 80.2048 54.3221 80.3149 54.4305C80.425 54.5404 80.4787 54.7009 80.4787 54.9121V55.6104L80.3658 55.3541C80.5168 54.9909 80.7512 54.7163 81.0702 54.5277C81.3893 54.339 81.7507 54.2461 82.1559 54.2461C82.561 54.2461 82.8928 54.3207 83.154 54.4714C83.4152 54.622 83.61 54.8487 83.7399 55.1542C83.8697 55.4597 83.9347 55.8427 83.9347 56.3087V58.7909C83.9347 59.0036 83.8796 59.1655 83.7695 59.2781C83.6594 59.3907 83.5027 59.4471 83.2966 59.4471C83.0904 59.4471 82.9309 59.3907 82.818 59.2781C82.705 59.1655 82.6486 59.0021 82.6486 58.7909V56.3707C82.6486 55.9807 82.5752 55.6977 82.4269 55.5189C82.2787 55.3401 82.0514 55.2514 81.7436 55.2514C81.3667 55.2514 81.066 55.3696 80.8429 55.6048C80.6199 55.8413 80.5083 56.1539 80.5083 56.5439V58.7909C80.5083 59.2288 80.2923 59.4471 79.8603 59.4471L79.8618 59.4456Z" fill="#8DB1AE"/>
<path d="M87.5446 59.4662C87.0985 59.4662 86.7272 59.3901 86.4279 59.2409C86.13 59.0902 85.9084 58.8692 85.7644 58.5792C85.6204 58.2891 85.5484 57.9273 85.5484 57.4979V55.3127H85.0133C84.8482 55.3127 84.7211 55.2705 84.6322 55.1846C84.5432 55.0987 84.498 54.9818 84.498 54.8312C84.498 54.6805 84.5432 54.5538 84.6322 54.4722C84.7211 54.3905 84.8482 54.3483 85.0133 54.3483H85.5484V53.4148C85.5484 53.2036 85.6049 53.0417 85.7178 52.9333C85.8307 52.8235 85.9903 52.7686 86.1964 52.7686C86.4025 52.7686 86.5592 52.8235 86.6693 52.9333C86.7794 53.0431 86.8345 53.2036 86.8345 53.4148V54.3483H87.9244C88.0896 54.3483 88.2152 54.3891 88.3056 54.4722C88.3945 54.5538 88.4397 54.6735 88.4397 54.8312C88.4397 54.9889 88.3945 55.1001 88.3056 55.1846C88.2166 55.2705 88.0896 55.3127 87.9244 55.3127H86.8345V57.426C86.8345 57.7541 86.9065 58.0005 87.0505 58.1638C87.1945 58.3285 87.4274 58.4102 87.7507 58.4102C87.8665 58.4102 87.9696 58.4003 88.0599 58.3792C88.1489 58.3595 88.2279 58.3454 88.2971 58.3384C88.379 58.3314 88.4482 58.3567 88.5032 58.4158C88.5583 58.4736 88.5851 58.5918 88.5851 58.7692C88.5851 58.9058 88.5625 59.0269 88.5187 59.1325C88.4736 59.2395 88.3931 59.3127 88.2773 59.3535C88.1884 59.3803 88.0712 59.407 87.9272 59.431C87.7832 59.4549 87.6561 59.4662 87.546 59.4662H87.5446Z" fill="#8DB1AE"/>
<path d="M91.6195 59.4668C91.0505 59.4668 90.5592 59.3612 90.1484 59.1486C89.7362 58.936 89.4199 58.6361 89.1969 58.2461C88.9738 57.8561 88.8623 57.3943 88.8623 56.8621C88.8623 56.3299 88.9696 55.8878 89.187 55.4978C89.4044 55.1078 89.7009 54.8022 90.0821 54.5798C90.4632 54.3573 90.8966 54.2461 91.3837 54.2461C91.7395 54.2461 92.0614 54.3038 92.3451 54.4207C92.6289 54.5375 92.8731 54.7051 93.075 54.9233C93.2769 55.143 93.4322 55.4076 93.5381 55.7188C93.6439 56.03 93.6976 56.3805 93.6976 56.7705C93.6976 56.893 93.6552 56.9874 93.5691 57.0521C93.483 57.1169 93.3616 57.1493 93.2035 57.1493H89.9014V56.4101H92.7912L92.6261 56.5636C92.6261 56.2496 92.5795 55.9863 92.4877 55.7737C92.3945 55.5625 92.2618 55.3992 92.0868 55.2866C91.9117 55.1739 91.6943 55.1176 91.4331 55.1176C91.1451 55.1176 90.8995 55.1838 90.6976 55.3175C90.4957 55.4513 90.3404 55.6386 90.2345 55.8821C90.1286 56.1243 90.075 56.4143 90.075 56.7494V56.8212C90.075 57.3816 90.2063 57.8012 90.4717 58.0785C90.7357 58.3559 91.1254 58.4939 91.6392 58.4939C91.8171 58.4939 92.0176 58.4713 92.2406 58.4277C92.4637 58.3841 92.6741 58.3066 92.8731 58.1968C93.0171 58.1151 93.1442 58.0785 93.2543 58.0898C93.3644 58.0996 93.4519 58.1391 93.5169 58.2081C93.5818 58.2771 93.6213 58.3601 93.6355 58.4587C93.6496 58.5586 93.6298 58.6586 93.579 58.7614C93.5282 58.8642 93.4406 58.9529 93.3164 59.0275C93.0764 59.1781 92.7997 59.2894 92.4877 59.3612C92.1757 59.433 91.8863 59.4682 91.6181 59.4682L91.6195 59.4668Z" fill="#8DB1AE"/>
<path d="M96.5561 59.4662C96.2611 59.4662 95.9491 59.4352 95.6201 59.3733C95.2912 59.3113 94.9961 59.2058 94.735 59.0551C94.6248 58.9861 94.5486 58.9059 94.5034 58.8143C94.4583 58.7228 94.4413 58.6299 94.4526 58.537C94.4625 58.4441 94.4964 58.3638 94.5557 58.2962C94.6136 58.2286 94.6898 58.1836 94.7815 58.1625C94.8747 58.1413 94.975 58.1596 95.0851 58.2146C95.359 58.3441 95.6159 58.4342 95.8559 58.4863C96.0959 58.537 96.3331 58.5623 96.566 58.5623C96.895 58.5623 97.1406 58.506 97.3015 58.3934C97.4625 58.2807 97.543 58.1315 97.543 57.947C97.543 57.7894 97.4893 57.6683 97.3834 57.5824C97.2775 57.4965 97.118 57.4331 96.9048 57.3923L95.8757 57.1966C95.4507 57.1149 95.126 56.9587 94.903 56.7306C94.6799 56.5011 94.5684 56.2054 94.5684 55.8436C94.5684 55.5155 94.6587 55.2311 94.8408 54.9918C95.023 54.7524 95.2743 54.568 95.5976 54.4384C95.9194 54.3089 96.2907 54.2441 96.7086 54.2441C97.0107 54.2441 97.2931 54.2765 97.5571 54.3413C97.8211 54.4061 98.0766 54.5074 98.3237 54.644C98.4267 54.6989 98.4973 54.7707 98.534 54.8594C98.5721 54.9481 98.5806 55.0382 98.5594 55.1312C98.5382 55.2241 98.4973 55.3057 98.4366 55.3775C98.3745 55.4493 98.2982 55.4944 98.2051 55.5113C98.1119 55.5282 98.0074 55.5099 97.8917 55.455C97.6785 55.3452 97.4752 55.2677 97.279 55.2184C97.0841 55.1706 96.8964 55.1466 96.7185 55.1466C96.3825 55.1466 96.134 55.2044 95.9731 55.3212C95.8121 55.4381 95.7317 55.5916 95.7317 55.783C95.7317 55.9266 95.7797 56.0463 95.8757 56.1421C95.9717 56.2378 96.1185 56.3026 96.3175 56.3364L97.3467 56.5321C97.7928 56.6137 98.1302 56.7644 98.3604 56.984C98.5905 57.2037 98.7048 57.4965 98.7048 57.8668C98.7048 58.3652 98.51 58.758 98.119 59.041C97.7279 59.324 97.207 59.4662 96.5561 59.4662Z" fill="#8DB1AE"/>
<path d="M101.577 59.4662C101.282 59.4662 100.97 59.4352 100.641 59.3733C100.312 59.3113 100.017 59.2058 99.7555 59.0551C99.6453 58.9861 99.5691 58.9059 99.5239 58.8143C99.4788 58.7228 99.4618 58.6299 99.4731 58.537C99.483 58.4441 99.5169 58.3638 99.5762 58.2962C99.6341 58.2286 99.7103 58.1836 99.8021 58.1625C99.8952 58.1413 99.9955 58.1596 100.106 58.2146C100.379 58.3441 100.636 58.4342 100.876 58.4863C101.116 58.537 101.354 58.5623 101.587 58.5623C101.915 58.5623 102.161 58.506 102.322 58.3934C102.483 58.2807 102.563 58.1315 102.563 57.947C102.563 57.7894 102.51 57.6683 102.404 57.5824C102.298 57.4965 102.139 57.4331 101.925 57.3923L100.896 57.1966C100.471 57.1149 100.147 56.9587 99.9235 56.7306C99.7004 56.5011 99.5889 56.2054 99.5889 55.8436C99.5889 55.5155 99.6792 55.2311 99.8613 54.9918C100.043 54.7524 100.295 54.568 100.618 54.4384C100.94 54.3089 101.311 54.2441 101.729 54.2441C102.031 54.2441 102.314 54.2765 102.578 54.3413C102.842 54.4061 103.097 54.5074 103.344 54.644C103.447 54.6989 103.518 54.7707 103.555 54.8594C103.593 54.9481 103.601 55.0382 103.58 55.1312C103.559 55.2241 103.518 55.3057 103.457 55.3775C103.395 55.4493 103.319 55.4944 103.226 55.5113C103.132 55.5282 103.028 55.5099 102.912 55.455C102.699 55.3452 102.496 55.2677 102.299 55.2184C102.105 55.1706 101.917 55.1466 101.739 55.1466C101.403 55.1466 101.155 55.2044 100.994 55.3212C100.833 55.4381 100.752 55.5916 100.752 55.783C100.752 55.9266 100.8 56.0463 100.896 56.1421C100.992 56.2378 101.139 56.3026 101.338 56.3364L102.367 56.5321C102.813 56.6137 103.151 56.7644 103.381 56.984C103.611 57.2037 103.725 57.4965 103.725 57.8668C103.725 58.3652 103.531 58.758 103.139 59.041C102.748 59.324 102.227 59.4662 101.577 59.4662Z" fill="#8DB1AE"/>
<path d="M107.049 59.4668C106.528 59.4668 106.075 59.3612 105.691 59.1486C105.307 58.936 105.009 58.6333 104.796 58.2404C104.582 57.8476 104.477 57.3844 104.477 56.8508C104.477 56.4467 104.536 56.0863 104.657 55.7681C104.777 55.4499 104.951 55.1767 105.177 54.9473C105.403 54.7178 105.674 54.5432 105.99 54.4249C106.305 54.3052 106.659 54.2461 107.049 54.2461C107.57 54.2461 108.023 54.3517 108.407 54.5643C108.791 54.7769 109.089 55.0768 109.302 55.4668C109.515 55.8568 109.621 56.3186 109.621 56.8522C109.621 57.2563 109.562 57.6181 109.442 57.9391C109.322 58.2616 109.148 58.5361 108.922 58.7656C108.696 58.9951 108.425 59.1697 108.109 59.288C107.793 59.4076 107.44 59.4682 107.049 59.4682V59.4668ZM107.049 58.4925C107.303 58.4925 107.526 58.4305 107.718 58.308C107.91 58.1855 108.06 58.0025 108.165 57.7589C108.271 57.5154 108.325 57.214 108.325 56.8508C108.325 56.3045 108.208 55.8948 107.975 55.6245C107.742 55.3542 107.433 55.219 107.049 55.219C106.795 55.219 106.572 55.2795 106.38 55.3992C106.188 55.5189 106.038 55.7005 105.932 55.9427C105.826 56.1848 105.773 56.4875 105.773 56.8508C105.773 57.3914 105.89 57.7998 106.123 58.0771C106.356 58.3545 106.665 58.4925 107.049 58.4925Z" fill="#8DB1AE"/>
<path d="M111.338 59.4451C111.124 59.4451 110.962 59.3888 110.849 59.2762C110.736 59.1635 110.68 59.0002 110.68 58.789V54.9115C110.68 54.7003 110.735 54.5384 110.845 54.43C110.955 54.3202 111.109 54.2667 111.308 54.2667C111.507 54.2667 111.661 54.3216 111.771 54.43C111.881 54.5398 111.935 54.7003 111.935 54.9115V55.5578H111.832C111.928 55.1466 112.117 54.8369 112.398 54.6243C112.679 54.4117 113.053 54.285 113.519 54.2442C113.663 54.2301 113.777 54.2667 113.863 54.3512C113.949 54.437 113.999 54.568 114.013 54.7454C114.027 54.9172 113.987 55.0551 113.894 55.1607C113.801 55.2663 113.663 55.3297 113.478 55.3508L113.252 55.3705C112.834 55.4113 112.518 55.5395 112.306 55.7549C112.094 55.9703 111.987 56.273 111.987 56.663V58.7862C111.987 58.9988 111.932 59.1607 111.822 59.2733C111.712 59.386 111.551 59.4423 111.339 59.4423L111.338 59.4451Z" fill="#8DB1AE"/>
<path d="M115.35 53.3208C115.11 53.3208 114.922 53.2617 114.789 53.142C114.657 53.0223 114.589 52.8562 114.589 52.645C114.589 52.4338 114.655 52.2578 114.789 52.1424C114.923 52.0269 115.11 51.9678 115.35 51.9678C115.59 51.9678 115.785 52.0255 115.915 52.1424C116.046 52.2592 116.111 52.4268 116.111 52.645C116.111 52.8632 116.046 53.0223 115.915 53.142C115.785 53.2617 115.595 53.3208 115.35 53.3208ZM115.35 59.4355C115.144 59.4355 114.986 59.3736 114.875 59.2511C114.765 59.1286 114.712 58.9568 114.712 58.7386V54.9737C114.712 54.7471 114.767 54.5753 114.875 54.4556C114.986 54.3359 115.144 54.2754 115.35 54.2754C115.556 54.2754 115.714 54.3359 115.828 54.4556C115.943 54.5753 115.998 54.7471 115.998 54.9737V58.7386C115.998 58.9582 115.943 59.1286 115.833 59.2511C115.723 59.375 115.562 59.4355 115.35 59.4355Z" fill="#8DB1AE"/>
<path d="M65.153 69.2221C64.9398 69.2221 64.7775 69.163 64.6645 69.0433C64.5516 68.9236 64.4951 68.7575 64.4951 68.5463V62.5034C64.4951 62.2852 64.5516 62.1162 64.6645 62.0008C64.7775 61.8853 64.9398 61.8262 65.153 61.8262C65.3662 61.8262 65.5285 61.8839 65.6415 62.0008C65.7544 62.1176 65.8109 62.2852 65.8109 62.5034V64.9237H69.545V62.5034C69.545 62.2852 69.6015 62.1162 69.7144 62.0008C69.8273 61.8853 69.9911 61.8262 70.2029 61.8262C70.4146 61.8262 70.5784 61.8839 70.6913 62.0008C70.8043 62.1176 70.8607 62.2852 70.8607 62.5034V68.5463C70.8607 68.7589 70.8043 68.9236 70.6913 69.0433C70.5784 69.163 70.4146 69.2221 70.2029 69.2221C69.9911 69.2221 69.8273 69.163 69.7144 69.0433C69.6015 68.9236 69.545 68.7575 69.545 68.5463V66.0219H65.8109V68.5463C65.8109 68.7589 65.7558 68.9236 65.6457 69.0433C65.5356 69.163 65.3718 69.2221 65.1516 69.2221H65.153Z" fill="#8DB1AE"/>
<path d="M74.6162 69.2422C74.0952 69.2422 73.6421 69.1366 73.2581 68.924C72.8741 68.7114 72.5762 68.4086 72.363 68.0158C72.1498 67.623 72.0439 67.1598 72.0439 66.6262C72.0439 66.2221 72.1032 65.8617 72.2247 65.5435C72.3447 65.2253 72.5183 64.9521 72.7442 64.7226C72.9701 64.4931 73.2411 64.3186 73.5574 64.2003C73.8722 64.0806 74.2265 64.0215 74.6162 64.0215C75.1371 64.0215 75.5903 64.1271 75.9743 64.3397C76.3583 64.5523 76.6562 64.8522 76.8693 65.2422C77.0825 65.6322 77.1884 66.094 77.1884 66.6276C77.1884 67.0317 77.1291 67.3935 77.0091 67.7145C76.8891 68.037 76.7155 68.3115 76.4896 68.541C76.2637 68.7705 75.9926 68.9451 75.6764 69.0633C75.3602 69.183 75.0072 69.2436 74.6162 69.2436V69.2422ZM74.6162 68.2679C74.8703 68.2679 75.0934 68.2059 75.2854 68.0834C75.4773 67.9609 75.627 67.7779 75.7329 67.5343C75.8388 67.2907 75.8924 66.9894 75.8924 66.6262C75.8924 66.0799 75.7752 65.6702 75.5423 65.3999C75.3094 65.1295 75.0002 64.9944 74.6162 64.9944C74.3621 64.9944 74.139 65.0549 73.947 65.1746C73.755 65.2943 73.6054 65.4759 73.4995 65.7181C73.3936 65.9602 73.3399 66.2629 73.3399 66.6262C73.3399 67.1668 73.4571 67.5751 73.6901 67.8525C73.923 68.1299 74.2322 68.2679 74.6162 68.2679Z" fill="#8DB1AE"/>
<path d="M80.0666 69.242C79.6488 69.242 79.3015 69.1645 79.0276 69.0111C78.7537 68.8576 78.549 68.6267 78.4163 68.3184C78.2822 68.01 78.2158 67.6285 78.2158 67.1695V64.6873C78.2158 64.469 78.2709 64.3057 78.381 64.2001C78.4911 64.0945 78.6478 64.041 78.8539 64.041C79.06 64.041 79.2196 64.0945 79.3325 64.2001C79.4455 64.3057 79.5019 64.469 79.5019 64.6873V67.1906C79.5019 67.5468 79.5739 67.8087 79.7179 67.9805C79.8619 68.1508 80.092 68.2367 80.4069 68.2367C80.7499 68.2367 81.0309 68.1184 81.2497 67.8833C81.4685 67.6482 81.5786 67.3342 81.5786 66.9442V64.6873C81.5786 64.469 81.6337 64.3057 81.7438 64.2001C81.8539 64.0945 82.0106 64.041 82.2167 64.041C82.4229 64.041 82.5824 64.0945 82.6953 64.2001C82.8083 64.3057 82.8647 64.469 82.8647 64.6873V68.5648C82.8647 69.0026 82.6558 69.2209 82.2365 69.2209C82.0375 69.2209 81.8836 69.1645 81.7734 69.0519C81.6633 68.9393 81.6083 68.7759 81.6083 68.5648V67.7847L81.7523 68.0931C81.6083 68.462 81.3909 68.7464 81.0986 68.9449C80.8064 69.1434 80.4619 69.2434 80.0652 69.2434L80.0666 69.242Z" fill="#8DB1AE"/>
<path d="M86.0444 69.2416C85.7493 69.2416 85.4373 69.2106 85.1084 69.1487C84.7795 69.0867 84.4844 68.9811 84.2232 68.8305C84.1131 68.7615 84.0369 68.6812 83.9917 68.5897C83.9465 68.4982 83.9296 68.4053 83.9409 68.3124C83.9508 68.2194 83.9847 68.1392 84.0439 68.0716C84.1018 68.004 84.1781 67.959 84.2698 67.9378C84.363 67.9167 84.4632 67.935 84.5734 67.9899C84.8472 68.1195 85.1042 68.2096 85.3442 68.2617C85.5842 68.3124 85.8213 68.3377 86.0543 68.3377C86.3832 68.3377 86.6289 68.2814 86.7898 68.1688C86.9508 68.0561 87.0312 67.9069 87.0312 67.7224C87.0312 67.5647 86.9776 67.4437 86.8717 67.3578C86.7658 67.2719 86.6063 67.2085 86.3931 67.1677L85.3639 66.972C84.939 66.8903 84.6143 66.7341 84.3912 66.506C84.1682 66.2765 84.0567 65.9808 84.0567 65.619C84.0567 65.2909 84.147 65.0065 84.3291 64.7672C84.5112 64.5278 84.7625 64.3434 85.0858 64.2138C85.4077 64.0843 85.779 64.0195 86.1969 64.0195C86.499 64.0195 86.7813 64.0519 87.0453 64.1167C87.3093 64.1814 87.5649 64.2828 87.8119 64.4194C87.915 64.4743 87.9856 64.5461 88.0223 64.6348C88.0604 64.7235 88.0689 64.8136 88.0477 64.9065C88.0265 64.9995 87.9856 65.0811 87.9249 65.1529C87.8628 65.2247 87.7865 65.2698 87.6933 65.2867C87.6002 65.3036 87.4957 65.2853 87.3799 65.2304C87.1668 65.1205 86.9635 65.0431 86.7672 64.9938C86.5724 64.946 86.3846 64.922 86.2068 64.922C85.8708 64.922 85.6223 64.9798 85.4613 65.0966C85.3004 65.2135 85.2199 65.3669 85.2199 65.5584C85.2199 65.702 85.2679 65.8217 85.3639 65.9174C85.4599 66.0132 85.6068 66.0779 85.8058 66.1117L86.835 66.3074C87.2811 66.3891 87.6185 66.5398 87.8486 66.7594C88.0788 66.979 88.1931 67.2719 88.1931 67.6422C88.1931 68.1406 87.9983 68.5334 87.6072 68.8164C87.2162 69.0994 86.6952 69.2416 86.0444 69.2416Z" fill="#8DB1AE"/>
<path d="M91.7015 69.2422C91.1326 69.2422 90.6413 69.1366 90.2304 68.924C89.8182 68.7114 89.502 68.4115 89.2789 68.0215C89.0559 67.6315 88.9443 67.1697 88.9443 66.6375C88.9443 66.1052 89.0516 65.6632 89.269 65.2732C89.4865 64.8832 89.7829 64.5776 90.1641 64.3552C90.5453 64.1327 90.9787 64.0215 91.4657 64.0215C91.8215 64.0215 92.1434 64.0792 92.4271 64.1961C92.7109 64.3129 92.9551 64.4805 93.157 64.6987C93.3589 64.9183 93.5142 65.183 93.6201 65.4942C93.726 65.8054 93.7796 66.1559 93.7796 66.5459C93.7796 66.6684 93.7373 66.7628 93.6511 66.8275C93.565 66.8923 93.4436 66.9247 93.2855 66.9247H89.9834V66.1855H92.8733L92.7081 66.339C92.7081 66.025 92.6615 65.7617 92.5697 65.5491C92.4766 65.3379 92.3438 65.1746 92.1688 65.062C91.9937 64.9493 91.7763 64.893 91.5151 64.893C91.2271 64.893 90.9815 64.9592 90.7796 65.0929C90.5777 65.2267 90.4224 65.4139 90.3166 65.6575C90.2107 65.8997 90.157 66.1897 90.157 66.5248V66.5966C90.157 67.157 90.2883 67.5766 90.5537 67.8539C90.8177 68.1313 91.2074 68.2693 91.7213 68.2693C91.8991 68.2693 92.0996 68.2467 92.3227 68.2031C92.5457 68.1594 92.7561 68.082 92.9551 67.9722C93.0991 67.8905 93.2262 67.8539 93.3363 67.8652C93.4464 67.875 93.534 67.9145 93.5989 67.9835C93.6638 68.0524 93.7034 68.1355 93.7175 68.2341C93.7316 68.334 93.7118 68.434 93.661 68.5368C93.6102 68.6396 93.5227 68.7283 93.3984 68.8029C93.1584 68.9535 92.8817 69.0648 92.5697 69.1366C92.2577 69.2084 91.9683 69.2436 91.7001 69.2436L91.7015 69.2422Z" fill="#8DB1AE"/>
<path d="M99.8798 69.2422C99.3589 69.2422 98.9057 69.1366 98.5217 68.924C98.1377 68.7114 97.8399 68.4086 97.6267 68.0158C97.4135 67.623 97.3076 67.1598 97.3076 66.6262C97.3076 66.2221 97.3669 65.8617 97.4883 65.5435C97.6083 65.2253 97.782 64.9521 98.0078 64.7226C98.2337 64.4931 98.5048 64.3186 98.821 64.2003C99.1358 64.0806 99.4902 64.0215 99.8798 64.0215C100.401 64.0215 100.854 64.1271 101.238 64.3397C101.622 64.5523 101.92 64.8522 102.133 65.2422C102.346 65.6322 102.452 66.094 102.452 66.6276C102.452 67.0317 102.393 67.3935 102.273 67.7145C102.153 68.037 101.979 68.3115 101.753 68.541C101.527 68.7705 101.256 68.9451 100.94 69.0633C100.624 69.183 100.271 69.2436 99.8798 69.2436V69.2422ZM99.8798 68.2679C100.134 68.2679 100.357 68.2059 100.549 68.0834C100.741 67.9609 100.891 67.7779 100.997 67.5343C101.102 67.2907 101.156 66.9894 101.156 66.6262C101.156 66.0799 101.039 65.6702 100.806 65.3999C100.573 65.1295 100.264 64.9944 99.8798 64.9944C99.6257 64.9944 99.4027 65.0549 99.2107 65.1746C99.0187 65.2943 98.869 65.4759 98.7631 65.7181C98.6573 65.9602 98.6036 66.2629 98.6036 66.6262C98.6036 67.1668 98.7208 67.5751 98.9537 67.8525C99.1867 68.1299 99.4958 68.2679 99.8798 68.2679Z" fill="#8DB1AE"/>
<path d="M104.445 69.2224C104.239 69.2224 104.079 69.1661 103.966 69.0534C103.853 68.9408 103.797 68.7775 103.797 68.5663V65.0886H103.324C103.159 65.0886 103.032 65.0464 102.943 64.9605C102.854 64.8746 102.809 64.7578 102.809 64.6071C102.809 64.4565 102.854 64.3298 102.943 64.2481C103.032 64.1664 103.159 64.1242 103.324 64.1242H104.167L103.797 64.4635V64.1143C103.797 63.4104 103.975 62.881 104.332 62.529C104.689 62.177 105.203 61.97 105.875 61.9081L106.225 61.8771C106.362 61.863 106.472 61.8856 106.554 61.9433C106.636 62.001 106.691 62.077 106.719 62.1686C106.746 62.2615 106.75 62.3544 106.729 62.4501C106.708 62.5459 106.666 62.629 106.601 62.7008C106.536 62.7726 106.451 62.812 106.348 62.819L106.204 62.8289C105.813 62.8556 105.528 62.9556 105.35 63.126C105.172 63.2977 105.083 63.5568 105.083 63.906V64.2861L104.918 64.1214H105.957C106.122 64.1214 106.248 64.1622 106.338 64.2453C106.428 64.3284 106.472 64.4466 106.472 64.6043C106.472 64.762 106.427 64.8732 106.338 64.9577C106.249 65.0436 106.122 65.0858 105.957 65.0858H105.083V68.5635C105.083 69.0013 104.87 69.2196 104.445 69.2196V69.2224Z" fill="#8DB1AE"/>
<path d="M113.488 69.2415C112.734 69.2415 112.087 69.0894 111.549 68.7853C111.012 68.4812 110.598 68.0503 110.31 67.4928C110.022 66.9352 109.878 66.2777 109.878 65.5189C109.878 64.9515 109.96 64.4404 110.125 63.9856C110.29 63.5308 110.526 63.1408 110.835 62.8156C111.144 62.4904 111.523 62.2411 111.972 62.0666C112.421 61.892 112.926 61.8047 113.489 61.8047C113.866 61.8047 114.236 61.8526 114.6 61.9483C114.965 62.044 115.284 62.1806 115.556 62.3594C115.701 62.4481 115.797 62.5565 115.844 62.6818C115.892 62.8086 115.902 62.9325 115.875 63.0507C115.848 63.169 115.79 63.2704 115.706 63.3534C115.62 63.4351 115.514 63.4816 115.387 63.4914C115.26 63.5013 115.121 63.459 114.97 63.3633C114.757 63.2267 114.528 63.1267 114.281 63.0662C114.034 63.0043 113.784 62.9733 113.53 62.9733C113.043 62.9733 112.632 63.0732 112.296 63.2704C111.96 63.4689 111.706 63.7561 111.535 64.132C111.365 64.5079 111.278 64.9698 111.278 65.5174C111.278 66.0651 111.365 66.5199 111.535 66.9015C111.706 67.2844 111.96 67.5759 112.296 67.773C112.632 67.9715 113.043 68.0701 113.53 68.0701C113.791 68.0701 114.048 68.0377 114.301 67.9729C114.555 67.9081 114.795 67.8068 115.021 67.6702C115.172 67.5815 115.308 67.5421 115.428 67.5519C115.548 67.5618 115.648 67.6054 115.731 67.6801C115.813 67.7561 115.868 67.849 115.896 67.9616C115.923 68.0743 115.917 68.1911 115.875 68.3108C115.833 68.4305 115.752 68.5347 115.628 68.6234C115.354 68.8219 115.027 68.974 114.645 69.0796C114.264 69.1852 113.879 69.2387 113.488 69.2387V69.2415Z" fill="#8DB1AE"/>
<path d="M117.622 69.2217C117.416 69.2217 117.26 69.1654 117.15 69.0527C117.039 68.9401 116.984 68.7768 116.984 68.5656V62.472C116.984 62.2608 117.039 62.0989 117.15 61.9905C117.26 61.8807 117.416 61.8271 117.622 61.8271C117.829 61.8271 117.987 61.8821 118.101 61.9905C118.214 62.1003 118.27 62.2608 118.27 62.472V65.1288H118.126C118.278 64.7655 118.513 64.491 118.831 64.3023C119.15 64.1137 119.511 64.0207 119.917 64.0207C120.322 64.0207 120.654 64.0954 120.915 64.246C121.176 64.3967 121.371 64.6233 121.501 64.9289C121.63 65.233 121.695 65.6173 121.695 66.0834V68.5656C121.695 68.7782 121.64 68.9401 121.53 69.0527C121.422 69.1654 121.263 69.2217 121.057 69.2217C120.851 69.2217 120.693 69.1654 120.579 69.0527C120.466 68.9401 120.409 68.7768 120.409 68.5656V66.1453C120.409 65.7553 120.336 65.4723 120.189 65.2935C120.041 65.1161 119.814 65.026 119.504 65.026C119.127 65.026 118.827 65.1443 118.604 65.3794C118.381 65.6159 118.269 65.9285 118.269 66.3185V68.5656C118.269 69.0035 118.053 69.2217 117.621 69.2217H117.622Z" fill="#8DB1AE"/>
<path d="M123.641 63.0972C123.399 63.0972 123.213 63.038 123.08 62.9184C122.946 62.7987 122.88 62.6326 122.88 62.4214C122.88 62.2102 122.946 62.0342 123.08 61.9187C123.213 61.8033 123.401 61.7441 123.641 61.7441C123.881 61.7441 124.076 61.8019 124.206 61.9187C124.337 62.0356 124.402 62.2031 124.402 62.4214C124.402 62.6396 124.337 62.7987 124.206 62.9184C124.076 63.038 123.886 63.0972 123.641 63.0972ZM123.641 69.2119C123.435 69.2119 123.277 69.1499 123.166 69.0275C123.058 68.905 123.003 68.7332 123.003 68.515V64.7501C123.003 64.5234 123.058 64.3517 123.166 64.232C123.277 64.1123 123.435 64.0518 123.641 64.0518C123.847 64.0518 124.005 64.1123 124.119 64.232C124.234 64.3517 124.289 64.5234 124.289 64.7501V68.515C124.289 68.7346 124.234 68.905 124.124 69.0275C124.014 69.1514 123.853 69.2119 123.641 69.2119Z" fill="#8DB1AE"/>
<path d="M127.344 69.2414C126.774 69.2414 126.346 69.0795 126.058 68.7543C125.77 68.429 125.626 67.9531 125.626 67.3238V62.472C125.626 62.2608 125.681 62.0989 125.791 61.9905C125.901 61.8807 126.058 61.8271 126.264 61.8271C126.47 61.8271 126.628 61.8821 126.743 61.9905C126.856 62.1003 126.912 62.2608 126.912 62.472V67.2632C126.912 67.5786 126.978 67.8095 127.113 67.9602C127.247 68.1108 127.437 68.1854 127.683 68.1854C127.738 68.1854 127.789 68.184 127.838 68.1798C127.885 68.1756 127.934 68.1714 127.982 68.1643C128.078 68.1502 128.143 68.1756 128.177 68.2418C128.211 68.3065 128.228 68.4389 128.228 68.636C128.228 68.8078 128.194 68.9401 128.125 69.0358C128.056 69.1316 127.943 69.1893 127.785 69.2104C127.715 69.2175 127.643 69.2245 127.569 69.2315C127.494 69.2386 127.418 69.2414 127.343 69.2414H127.344Z" fill="#8DB1AE"/>
<path d="M130.788 69.2418C130.349 69.2418 129.964 69.1362 129.631 68.9236C129.298 68.711 129.039 68.4083 128.854 68.0155C128.669 67.6227 128.576 67.1595 128.576 66.6259C128.576 66.0923 128.669 65.622 128.854 65.2362C129.039 64.849 129.298 64.5506 129.631 64.338C129.964 64.1254 130.349 64.0198 130.788 64.0198C131.227 64.0198 131.572 64.1225 131.884 64.3281C132.196 64.5337 132.406 64.804 132.516 65.1391H132.403V62.471C132.403 62.2598 132.459 62.0979 132.569 61.9895C132.677 61.8797 132.835 61.8262 133.042 61.8262C133.248 61.8262 133.406 61.8811 133.52 61.9895C133.633 62.0993 133.69 62.2598 133.69 62.471V68.5646C133.69 68.7772 133.635 68.9391 133.524 69.0518C133.414 69.1644 133.258 69.2207 133.051 69.2207C132.845 69.2207 132.689 69.1644 132.579 69.0518C132.468 68.9391 132.413 68.7758 132.413 68.5646V67.7649L132.526 68.0732C132.423 68.4294 132.214 68.7124 131.898 68.925C131.583 69.1376 131.212 69.2432 130.787 69.2432L130.788 69.2418ZM131.148 68.2675C131.401 68.2675 131.626 68.2056 131.816 68.0831C132.008 67.9606 132.156 67.7776 132.264 67.534C132.37 67.2904 132.423 66.9891 132.423 66.6259C132.423 66.0796 132.306 65.6699 132.073 65.3995C131.84 65.1292 131.531 64.9941 131.147 64.9941C130.893 64.9941 130.67 65.0546 130.478 65.1743C130.286 65.2939 130.138 65.4756 130.03 65.7177C129.924 65.9613 129.872 66.2626 129.872 66.6259C129.872 67.1665 129.988 67.5748 130.221 67.8522C130.454 68.1296 130.763 68.2675 131.147 68.2675H131.148Z" fill="#8DB1AE"/>
<path d="M135.684 69.2225C135.471 69.2225 135.309 69.1661 135.196 69.0535C135.083 68.9409 135.026 68.7775 135.026 68.5664V64.6889C135.026 64.4777 135.081 64.3158 135.19 64.2073C135.3 64.0975 135.456 64.044 135.653 64.044C135.851 64.044 136.006 64.0989 136.116 64.2073C136.225 64.3172 136.281 64.4777 136.281 64.6889V65.3351H136.178C136.274 64.924 136.464 64.6142 136.744 64.4016C137.025 64.189 137.4 64.0623 137.867 64.0215C138.011 64.0074 138.125 64.044 138.211 64.1285C138.297 64.213 138.347 64.3453 138.361 64.5227C138.374 64.6945 138.334 64.8325 138.242 64.9381C138.149 65.0437 138.011 65.107 137.826 65.1281L137.599 65.1479C137.181 65.1887 136.864 65.3168 136.653 65.5322C136.441 65.7476 136.334 66.0504 136.334 66.4404V68.5635C136.334 68.7761 136.279 68.938 136.168 69.0507C136.058 69.1633 135.897 69.2196 135.684 69.2196V69.2225Z" fill="#8DB1AE"/>
<path d="M141.455 69.2422C140.886 69.2422 140.397 69.1366 139.984 68.924C139.574 68.7114 139.256 68.4115 139.033 68.0215C138.81 67.6315 138.698 67.1697 138.698 66.6375C138.698 66.1052 138.806 65.6632 139.022 65.2732C139.239 64.8832 139.535 64.5776 139.917 64.3552C140.298 64.1327 140.731 64.0215 141.218 64.0215C141.575 64.0215 141.896 64.0792 142.18 64.1961C142.463 64.3129 142.708 64.4805 142.91 64.6987C143.111 64.9183 143.267 65.183 143.373 65.4942C143.478 65.8054 143.531 66.1559 143.531 66.5459C143.531 66.6684 143.488 66.7628 143.402 66.8275C143.316 66.8923 143.195 66.9247 143.037 66.9247H139.736V66.1855H142.626L142.461 66.339C142.461 66.025 142.414 65.7617 142.322 65.5491C142.229 65.3379 142.096 65.1746 141.921 65.062C141.746 64.9493 141.529 64.893 141.269 64.893C140.981 64.893 140.735 64.9592 140.534 65.0929C140.332 65.2267 140.176 65.4139 140.07 65.6575C139.963 65.8997 139.911 66.1897 139.911 66.5248V66.5966C139.911 67.157 140.044 67.5766 140.308 67.8539C140.572 68.1313 140.961 68.2693 141.475 68.2693C141.654 68.2693 141.854 68.2467 142.078 68.2031C142.301 68.1594 142.511 68.082 142.71 67.9722C142.856 67.8905 142.982 67.8539 143.092 67.8652C143.2 67.875 143.288 67.9145 143.354 67.9835C143.419 68.0524 143.459 68.1355 143.473 68.2341C143.486 68.334 143.467 68.434 143.416 68.5368C143.366 68.6396 143.278 68.7283 143.154 68.8029C142.914 68.9535 142.637 69.0648 142.325 69.1366C142.013 69.2084 141.724 69.2436 141.455 69.2436V69.2422Z" fill="#8DB1AE"/>
<path d="M145.19 69.222C144.984 69.222 144.826 69.1657 144.716 69.0531C144.607 68.9404 144.552 68.7771 144.552 68.5659V64.6884C144.552 64.4772 144.607 64.3153 144.716 64.2069C144.826 64.0971 144.981 64.0436 145.179 64.0436C145.376 64.0436 145.532 64.0985 145.642 64.2069C145.75 64.3167 145.807 64.4772 145.807 64.6884V65.3868L145.694 65.1305C145.845 64.7673 146.079 64.4927 146.398 64.3041C146.717 64.1154 147.079 64.0225 147.484 64.0225C147.889 64.0225 148.221 64.0971 148.482 64.2477C148.743 64.3984 148.938 64.6251 149.068 64.9306C149.198 65.2347 149.263 65.6191 149.263 66.0851V68.5673C149.263 68.7799 149.208 68.9418 149.098 69.0545C148.988 69.1671 148.831 69.2234 148.625 69.2234C148.419 69.2234 148.259 69.1671 148.146 69.0545C148.033 68.9418 147.975 68.7785 147.975 68.5673V66.1471C147.975 65.7571 147.902 65.4741 147.755 65.2952C147.608 65.1164 147.38 65.0277 147.07 65.0277C146.693 65.0277 146.393 65.146 146.17 65.3811C145.947 65.6163 145.835 65.9302 145.835 66.3202V68.5673C145.835 69.0052 145.619 69.2234 145.187 69.2234L145.19 69.222Z" fill="#8DB1AE"/>
</g>
<defs>
<clipPath id="clip0_1059_1150">
<rect width="152" height="71" fill="white"/>
</clipPath>
</defs>
</svg>
