<svg width="20" height="20" viewBox="0 0 20 20" fill="none" xmlns="http://www.w3.org/2000/svg">
<path d="M16.9133 13.1633C16.8262 13.2507 16.7227 13.32 16.6087 13.3673C16.4948 13.4146 16.3726 13.439 16.2492 13.439C16.1258 13.439 16.0037 13.4146 15.8897 13.3673C15.7757 13.32 15.6722 13.2507 15.5852 13.1633L10 7.5781L4.41328 13.1633C4.23716 13.3394 3.99829 13.4383 3.74922 13.4383C3.50014 13.4383 3.26127 13.3394 3.08515 13.1633C2.90903 12.9871 2.81009 12.7483 2.81009 12.4992C2.81009 12.2501 2.90903 12.0112 3.08515 11.8351L9.33515 5.58513C9.42225 5.49773 9.52574 5.42838 9.6397 5.38106C9.75365 5.33374 9.87583 5.30939 9.99922 5.30939C10.1226 5.30939 10.2448 5.33374 10.3587 5.38106C10.4727 5.42838 10.5762 5.49773 10.6633 5.58513L16.9133 11.8351C17.0007 11.9222 17.07 12.0257 17.1173 12.1397C17.1647 12.2536 17.189 12.3758 17.189 12.4992C17.189 12.6226 17.1647 12.7448 17.1173 12.8587C17.07 12.9727 17.0007 13.0762 16.9133 13.1633Z" fill="black"/>
</svg>
