<svg width="152" height="71" viewBox="0 0 152 71" fill="none" xmlns="http://www.w3.org/2000/svg">
<g clip-path="url(#clip0_801_177)">
<path d="M9.38398 22.8639C8.67668 16.9548 3.70305 16.3761 1.18165 16.4718C0.358592 16.5028 -0.199053 17.3096 0.0649461 18.0868C0.779297 20.1973 2.94635 23.7425 9.38398 22.8639Z" fill="#8DB1AE"/>
<path d="M37.2648 65.4751C43.142 66.4973 53.102 65.9665 56.6003 62.5072C58.5302 60.5994 59.4337 57.9046 60.0789 55.1098C60.573 52.9627 60.9302 50.6536 60.8441 48.2292C60.8384 48.0729 60.8116 47.9152 60.7706 47.7617C60.0055 48.8853 59.1993 49.8891 58.5048 50.6705C50.9646 59.2928 36.5392 65.1442 26.5129 57.2527C24.8399 55.9292 23.4324 54.3439 22.3101 52.6051C22.3101 52.6051 22.3086 52.6036 22.3072 52.6036C20.9336 52.5853 19.5868 52.5304 18.2823 52.4319C17.8701 52.4023 17.6145 52.8683 17.8588 53.2006C22.4964 59.5265 29.5001 64.1868 37.2648 65.4751Z" fill="#8DB1AE"/>
<path d="M56.8445 49.0515C61.1278 44.884 58.8563 46.1737 58.5231 46.3271C56.6215 47.2071 53.8855 48.1237 50.6328 48.9783C50.4874 49.6175 50.2996 50.2412 50.0511 50.8382C49.2577 52.7431 47.8968 54.6016 46.1095 56.118C50.085 54.4003 53.8742 51.9406 56.8431 49.0515H56.8445Z" fill="#8DB1AE"/>
<path d="M46.5853 68.1896C40.7575 68.9246 34.639 68.1474 29.3265 65.5568C24.0352 62.9563 20.5383 60.063 16.6461 53.0753C16.135 52.1573 13.9242 55.1985 19.9806 63.7222C22.1449 66.769 25.327 68.6711 28.9467 69.8637C32.5651 71.0562 36.6324 71.311 41.1486 70.6254C44.5072 70.1157 47.5043 69.1682 50.1387 67.787C50.3222 67.6898 50.4987 67.587 50.678 67.4871C49.3241 67.7884 47.9589 68.0277 46.5853 68.191V68.1896Z" fill="#8DB1AE"/>
<path d="M58.6826 22.2766C54.3231 5.76981 44.5749 0.832135 32.6131 2.28091C29.1063 2.70611 26.0992 4.23233 23.7712 6.46956C19.7788 10.3076 20.4748 16.7138 20.4748 16.7138L19.3312 10.7328C18.9839 8.91516 18.2484 7.62689 17.1289 6.8666C16.008 6.10912 14.5962 5.89089 12.8908 6.21472C11.1854 6.53996 9.95151 7.26083 9.19057 8.37733C8.42822 9.49524 8.22351 10.9637 8.57081 12.78L14.9308 46.0287C15.2781 47.8463 16.015 49.1501 17.1416 49.9385C18.1637 50.6552 19.4639 50.9804 20.9999 50.6834C30.4291 48.8587 23.2701 38.2709 23.6117 28.1154C23.9646 17.6388 38.8446 11.6311 44.0145 23.5508C45.453 26.8651 50.5198 25.6528 50.5198 25.6528L46.9453 30.3512C46.9453 30.3512 50.7203 37.7288 50.9829 44.7573C56.5594 42.8946 58.8168 39.7351 59.6215 36.9742C60.3923 34.3244 60.8553 30.5032 58.6826 22.2766Z" fill="#8DB1AE"/>
<path d="M132.728 50.379C129.416 49.8342 126.631 48.7331 124.375 47.0802C122.117 45.4273 120.495 43.3182 119.51 40.7557C118.523 38.1932 118.293 35.321 118.819 32.1391C119.219 29.7216 119.962 27.621 121.046 25.8343C122.129 24.0476 123.511 22.5988 125.188 21.4894C126.865 20.3799 128.771 19.6379 130.908 19.2662C133.044 18.8945 135.364 18.9142 137.868 19.3253C141.179 19.8702 143.964 20.9712 146.222 22.6242C148.478 24.2785 150.091 26.3749 151.061 28.9135C152.031 31.4534 152.25 34.3326 151.716 37.5554C151.322 39.9321 150.581 42.0229 149.496 43.8307C148.408 45.6371 147.035 47.0985 145.379 48.2108C143.721 49.3245 141.814 50.0651 139.658 50.4339C137.501 50.8028 135.192 50.7845 132.728 50.379ZM134.038 42.465C135.128 42.6438 136.143 42.5325 137.081 42.1285C138.018 41.7244 138.811 41.0077 139.459 39.9757C140.106 38.9451 140.577 37.5428 140.871 35.7702C141.317 33.0725 141.114 31.0423 140.261 29.6808C139.407 28.3207 138.173 27.5055 136.558 27.2408C135.468 27.062 134.455 27.1634 133.52 27.5477C132.585 27.9321 131.784 28.6375 131.116 29.6653C130.448 30.6945 129.964 32.1137 129.663 33.9258C129.223 36.584 129.427 38.6044 130.279 39.9856C131.129 41.3668 132.381 42.1932 134.037 42.4664L134.038 42.465Z" fill="#8DB1AE"/>
<path d="M68.7697 16.1025C67.2111 16.2771 65.0412 14.9198 64.4511 13.1036C64.1109 12.0575 64.348 10.8058 65.1895 10.4679C67.1631 9.67805 67.8746 11.5957 68.3094 11.6604C68.6793 11.7168 69.1184 9.27256 71.0652 9.80758C71.9292 10.0455 72.5447 10.8241 72.3527 12.2152C72.1395 13.7498 70.7588 15.8772 68.7697 16.1011V16.1025Z" fill="#8DB1AE"/>
<path d="M67.852 45.5875C66.6619 44.8709 66.1692 43.2715 65.9546 41.3637L64.1518 24.5134C63.9372 22.607 64.2393 21.0949 65.061 19.9742C65.8826 18.8548 67.1476 18.2001 68.8558 18.0072C70.6036 17.8115 72.0139 18.1663 73.0854 19.0731C74.1555 19.9798 74.7993 21.3877 75.0139 23.2941L76.8167 40.1444C77.1795 43.1053 78.0689 43.7544 78.0689 43.7544C78.0689 43.7544 72.4403 48.3528 67.8534 45.5875H67.852Z" fill="#8DB1AE"/>
<path d="M94.2209 46.7511C91.6388 46.7849 89.315 46.0655 87.2792 44.5364C85.2449 43.0074 83.6383 40.7631 82.5287 37.8149C81.4204 34.8695 80.9461 31.3764 81.1875 27.4271C81.4346 23.3778 82.3324 20.0142 83.7696 17.3912C85.2082 14.7654 87.0477 12.9069 89.2247 11.7932C91.4016 10.6767 93.7677 10.3979 96.3046 10.8738C98.5225 11.2878 100.557 12.0762 102.025 13.6911C103.99 15.8537 104.336 18.557 104.339 18.5598C104.912 13.877 105.68 9.23497 106.639 4.64787C107.033 2.75981 107.822 1.43916 108.965 0.695762C110.11 -0.0476341 111.538 -0.187021 113.244 0.243811C114.912 0.664788 116.096 1.45746 116.813 2.60212C117.53 3.7496 117.693 5.18712 117.324 6.95127C115.054 17.8474 113.93 29.0744 114.031 40.445C114.05 42.9694 115.186 44.7828 115.184 44.78C115.181 44.7322 108.471 48.114 104.726 44.8786C103.68 43.9592 103.232 42.3738 103.217 40.4083C103.207 39.1356 103.211 37.8656 103.229 36.5956C103.142 36.5787 103.293 46.5188 94.218 46.7526L94.2209 46.7511ZM97.5653 37.6319C98.6722 37.6685 99.6576 37.3883 100.524 36.8068C101.393 36.2253 102.072 35.3313 102.578 34.1247C103.084 32.9195 103.378 31.3496 103.489 29.401C103.66 26.4387 103.322 24.2676 102.389 22.8372C101.456 21.4095 100.19 20.576 98.5634 20.362C97.4665 20.2184 96.4585 20.3845 95.5423 20.8731C94.626 21.363 93.8609 22.2177 93.2595 23.4468C92.6581 24.6745 92.2769 26.3556 92.1512 28.4788C91.9691 31.5932 92.4421 33.9078 93.4769 35.3693C94.5131 36.8336 95.8839 37.577 97.5639 37.6319H97.5653Z" fill="#8DB1AE"/>
<path d="M65.1104 59.4447C64.9184 59.4447 64.7716 59.3898 64.6685 59.28C64.5654 59.1702 64.5146 59.0195 64.5146 58.828V52.6626C64.5146 52.4641 64.5697 52.3121 64.6798 52.2065C64.7899 52.1009 64.941 52.0474 65.133 52.0474C65.3038 52.0474 65.4393 52.0797 65.5396 52.1445C65.6384 52.2093 65.7301 52.3205 65.812 52.4782L68.3532 57.1667H68.0243L70.5654 52.4782C70.6473 52.3205 70.7362 52.2107 70.8322 52.1445C70.9282 52.0797 71.0624 52.0474 71.2332 52.0474C71.4252 52.0474 71.572 52.1009 71.6751 52.2065C71.7781 52.3121 71.8289 52.4641 71.8289 52.6626V58.828C71.8289 59.0195 71.7795 59.1702 71.6793 59.28C71.5805 59.3898 71.4308 59.4447 71.2318 59.4447C71.0327 59.4447 70.8929 59.3898 70.7899 59.28C70.6868 59.1702 70.636 59.0195 70.636 58.828V54.0776H70.8619L68.7019 58.0072C68.6327 58.1241 68.5607 58.2085 68.4859 58.2635C68.4111 58.3184 68.308 58.3451 68.1767 58.3451C68.0454 58.3451 67.9395 58.3155 67.8577 58.2578C67.7758 58.2001 67.7038 58.117 67.6417 58.0072L65.4605 54.0678H65.7076V58.828C65.7076 59.0195 65.6581 59.1702 65.5579 59.28C65.4591 59.3898 65.3094 59.4447 65.1104 59.4447Z" fill="#8DB1AE"/>
<path d="M75.5927 59.4658C75.0718 59.4658 74.6186 59.3602 74.2346 59.1476C73.8506 58.935 73.5527 58.6323 73.3395 58.2395C73.1264 57.8466 73.0205 57.3834 73.0205 56.8498C73.0205 56.4457 73.0798 56.0853 73.2012 55.7671C73.3212 55.4489 73.4948 55.1758 73.7207 54.9463C73.9466 54.7168 74.2177 54.5422 74.5339 54.4239C74.8487 54.3042 75.2031 54.2451 75.5927 54.2451C76.1136 54.2451 76.5668 54.3507 76.9508 54.5633C77.3348 54.7759 77.6327 55.0758 77.8459 55.4658C78.059 55.8558 78.1649 56.3176 78.1649 56.8512C78.1649 57.2553 78.1056 57.6172 77.9856 57.9382C77.8656 58.2606 77.692 58.5351 77.4661 58.7646C77.2402 58.9941 76.9692 59.1687 76.6529 59.287C76.3367 59.4067 75.9838 59.4672 75.5927 59.4672V59.4658ZM75.5927 58.4915C75.8468 58.4915 76.0699 58.4295 76.2619 58.307C76.4539 58.1846 76.6035 58.0015 76.7094 57.7579C76.8153 57.5144 76.8689 57.2131 76.8689 56.8498C76.8689 56.3035 76.7518 55.8938 76.5188 55.6235C76.2859 55.3532 75.9767 55.218 75.5927 55.218C75.3386 55.218 75.1155 55.2786 74.9235 55.3982C74.7315 55.5179 74.5819 55.6995 74.476 55.9417C74.3701 56.1839 74.3165 56.4866 74.3165 56.8498C74.3165 57.3905 74.4337 57.7988 74.6666 58.0761C74.8995 58.3535 75.2087 58.4915 75.5927 58.4915Z" fill="#8DB1AE"/>
<path d="M79.8619 59.4447C79.6558 59.4447 79.4976 59.3884 79.3889 59.2757C79.2788 59.1631 79.2238 58.9998 79.2238 58.7886V54.9111C79.2238 54.6999 79.2788 54.538 79.3889 54.4296C79.4991 54.3197 79.6529 54.2662 79.852 54.2662C80.051 54.2662 80.2049 54.3211 80.3151 54.4296C80.4252 54.5394 80.4788 54.6999 80.4788 54.9111V55.6094L80.3659 55.3532C80.5169 54.9899 80.7513 54.7154 81.0703 54.5267C81.3894 54.338 81.7508 54.2451 82.156 54.2451C82.5612 54.2451 82.8929 54.3197 83.1541 54.4704C83.4153 54.621 83.6101 54.8477 83.74 55.1532C83.8699 55.4588 83.9348 55.8417 83.9348 56.3078V58.79C83.9348 59.0026 83.8797 59.1645 83.7696 59.2771C83.6595 59.3898 83.5028 59.4461 83.2967 59.4461C83.0906 59.4461 82.931 59.3898 82.8181 59.2771C82.7052 59.1645 82.6487 59.0012 82.6487 58.79V56.3697C82.6487 55.9797 82.5753 55.6967 82.427 55.5179C82.2788 55.3391 82.0515 55.2504 81.7438 55.2504C81.3668 55.2504 81.0661 55.3687 80.843 55.6038C80.62 55.8403 80.5085 56.1529 80.5085 56.5429V58.79C80.5085 59.2278 80.2925 59.4461 79.8605 59.4461L79.8619 59.4447Z" fill="#8DB1AE"/>
<path d="M87.5447 59.4662C87.0985 59.4662 86.7273 59.3901 86.428 59.2409C86.1301 59.0902 85.9084 58.8692 85.7644 58.5792C85.6204 58.2891 85.5484 57.9273 85.5484 57.4979V55.3127H85.0134C84.8482 55.3127 84.7211 55.2705 84.6322 55.1846C84.5433 55.0987 84.4981 54.9818 84.4981 54.8312C84.4981 54.6805 84.5433 54.5538 84.6322 54.4722C84.7211 54.3905 84.8482 54.3483 85.0134 54.3483H85.5484V53.4148C85.5484 53.2036 85.6049 53.0417 85.7178 52.9333C85.8308 52.8235 85.9903 52.7686 86.1964 52.7686C86.4026 52.7686 86.5593 52.8235 86.6694 52.9333C86.7795 53.0431 86.8346 53.2036 86.8346 53.4148V54.3483H87.9244C88.0896 54.3483 88.2153 54.3891 88.3056 54.4722C88.3945 54.5538 88.4397 54.6735 88.4397 54.8312C88.4397 54.9889 88.3945 55.1001 88.3056 55.1846C88.2167 55.2705 88.0896 55.3127 87.9244 55.3127H86.8346V57.426C86.8346 57.7541 86.9065 58.0005 87.0505 58.1638C87.1945 58.3285 87.4275 58.4102 87.7508 58.4102C87.8665 58.4102 87.9696 58.4003 88.06 58.3792C88.1489 58.3595 88.228 58.3454 88.2971 58.3384C88.379 58.3314 88.4482 58.3567 88.5033 58.4158C88.5583 58.4736 88.5851 58.5918 88.5851 58.7692C88.5851 58.9058 88.5625 59.0269 88.5188 59.1325C88.4736 59.2395 88.3931 59.3127 88.2774 59.3535C88.1884 59.3803 88.0713 59.407 87.9273 59.431C87.7833 59.4549 87.6562 59.4662 87.5461 59.4662H87.5447Z" fill="#8DB1AE"/>
<path d="M91.619 59.4658C91.0501 59.4658 90.5588 59.3602 90.148 59.1476C89.7357 58.935 89.4195 58.6351 89.1964 58.2451C88.9734 57.8551 88.8618 57.3933 88.8618 56.8611C88.8618 56.3289 88.9691 55.8868 89.1866 55.4968C89.404 55.1068 89.7004 54.8013 90.0816 54.5788C90.4628 54.3563 90.8962 54.2451 91.3832 54.2451C91.739 54.2451 92.0609 54.3028 92.3447 54.4197C92.6284 54.5366 92.8727 54.7041 93.0745 54.9223C93.2764 55.142 93.4317 55.4067 93.5376 55.7178C93.6435 56.029 93.6971 56.3796 93.6971 56.7696C93.6971 56.8921 93.6548 56.9864 93.5687 57.0512C93.4825 57.1159 93.3611 57.1483 93.203 57.1483H89.9009V56.4091H92.7908L92.6256 56.5626C92.6256 56.2486 92.579 55.9853 92.4872 55.7727C92.3941 55.5615 92.2614 55.3982 92.0863 55.2856C91.9113 55.173 91.6938 55.1166 91.4327 55.1166C91.1447 55.1166 90.899 55.1828 90.6971 55.3166C90.4953 55.4503 90.34 55.6376 90.2341 55.8812C90.1282 56.1233 90.0746 56.4134 90.0746 56.7484V56.8203C90.0746 57.3806 90.2058 57.8002 90.4713 58.0776C90.7353 58.3549 91.1249 58.4929 91.6388 58.4929C91.8167 58.4929 92.0171 58.4704 92.2402 58.4267C92.4632 58.3831 92.6736 58.3056 92.8727 58.1958C93.0167 58.1142 93.1437 58.0775 93.2538 58.0888C93.3639 58.0987 93.4515 58.1381 93.5164 58.2071C93.5814 58.2761 93.6209 58.3591 93.635 58.4577C93.6491 58.5577 93.6294 58.6576 93.5785 58.7604C93.5277 58.8632 93.4402 58.9519 93.3159 59.0265C93.0759 59.1772 92.7992 59.2884 92.4872 59.3602C92.1752 59.432 91.8858 59.4672 91.6176 59.4672L91.619 59.4658Z" fill="#8DB1AE"/>
<path d="M96.5559 59.4662C96.2609 59.4662 95.9489 59.4352 95.6199 59.3733C95.291 59.3113 94.9959 59.2058 94.7348 59.0551C94.6246 58.9861 94.5484 58.9059 94.5032 58.8143C94.4581 58.7228 94.4411 58.6299 94.4524 58.537C94.4623 58.4441 94.4962 58.3638 94.5555 58.2962C94.6134 58.2286 94.6896 58.1836 94.7814 58.1625C94.8745 58.1413 94.9748 58.1596 95.0849 58.2146C95.3588 58.3441 95.6157 58.4342 95.8557 58.4863C96.0957 58.537 96.3329 58.5623 96.5658 58.5623C96.8948 58.5623 97.1404 58.506 97.3013 58.3934C97.4623 58.2807 97.5428 58.1315 97.5428 57.947C97.5428 57.7894 97.4891 57.6683 97.3832 57.5824C97.2773 57.4965 97.1178 57.4331 96.9046 57.3923L95.8755 57.1966C95.4505 57.1149 95.1258 56.9587 94.9028 56.7306C94.6797 56.5011 94.5682 56.2054 94.5682 55.8436C94.5682 55.5155 94.6585 55.2311 94.8406 54.9918C95.0228 54.7524 95.2741 54.568 95.5974 54.4384C95.9192 54.3089 96.2905 54.2441 96.7084 54.2441C97.0105 54.2441 97.2929 54.2765 97.5569 54.3413C97.8209 54.4061 98.0764 54.5074 98.3235 54.644C98.4265 54.6989 98.4971 54.7707 98.5338 54.8594C98.5719 54.9481 98.5804 55.0382 98.5592 55.1312C98.538 55.2241 98.4971 55.3057 98.4364 55.3775C98.3743 55.4493 98.298 55.4944 98.2049 55.5113C98.1117 55.5282 98.0072 55.5099 97.8915 55.455C97.6783 55.3452 97.475 55.2677 97.2788 55.2184C97.0839 55.1706 96.8962 55.1466 96.7183 55.1466C96.3823 55.1466 96.1338 55.2044 95.9729 55.3212C95.8119 55.4381 95.7315 55.5916 95.7315 55.783C95.7315 55.9266 95.7795 56.0463 95.8755 56.1421C95.9715 56.2378 96.1183 56.3026 96.3173 56.3364L97.3465 56.5321C97.7926 56.6137 98.13 56.7644 98.3602 56.984C98.5903 57.2037 98.7046 57.4965 98.7046 57.8668C98.7046 58.3652 98.5098 58.758 98.1188 59.041C97.7277 59.324 97.2068 59.4662 96.5559 59.4662Z" fill="#8DB1AE"/>
<path d="M101.576 59.4662C101.281 59.4662 100.969 59.4352 100.64 59.3733C100.311 59.3113 100.016 59.2058 99.755 59.0551C99.6449 58.9861 99.5686 58.9059 99.5235 58.8143C99.4783 58.7228 99.4613 58.6299 99.4726 58.537C99.4825 58.4441 99.5164 58.3638 99.5757 58.2962C99.6336 58.2286 99.7098 58.1836 99.8016 58.1625C99.8947 58.1413 99.995 58.1596 100.105 58.2146C100.379 58.3441 100.636 58.4342 100.876 58.4863C101.116 58.537 101.353 58.5623 101.586 58.5623C101.915 58.5623 102.161 58.506 102.322 58.3934C102.483 58.2807 102.563 58.1315 102.563 57.947C102.563 57.7894 102.509 57.6683 102.403 57.5824C102.298 57.4965 102.138 57.4331 101.925 57.3923L100.896 57.1966C100.471 57.1149 100.146 56.9587 99.923 56.7306C99.6999 56.5011 99.5884 56.2054 99.5884 55.8436C99.5884 55.5155 99.6787 55.2311 99.8609 54.9918C100.043 54.7524 100.294 54.568 100.618 54.4384C100.939 54.3089 101.311 54.2441 101.729 54.2441C102.031 54.2441 102.313 54.2765 102.577 54.3413C102.841 54.4061 103.097 54.5074 103.344 54.644C103.447 54.6989 103.517 54.7707 103.554 54.8594C103.592 54.9481 103.601 55.0382 103.579 55.1312C103.558 55.2241 103.517 55.3057 103.457 55.3775C103.395 55.4493 103.318 55.4944 103.225 55.5113C103.132 55.5282 103.027 55.5099 102.912 55.455C102.699 55.3452 102.495 55.2677 102.299 55.2184C102.104 55.1706 101.916 55.1466 101.739 55.1466C101.403 55.1466 101.154 55.2044 100.993 55.3212C100.832 55.4381 100.752 55.5916 100.752 55.783C100.752 55.9266 100.8 56.0463 100.896 56.1421C100.992 56.2378 101.139 56.3026 101.338 56.3364L102.367 56.5321C102.813 56.6137 103.15 56.7644 103.38 56.984C103.611 57.2037 103.725 57.4965 103.725 57.8668C103.725 58.3652 103.53 58.758 103.139 59.041C102.748 59.324 102.227 59.4662 101.576 59.4662Z" fill="#8DB1AE"/>
<path d="M107.048 59.4658C106.527 59.4658 106.074 59.3602 105.69 59.1476C105.306 58.935 105.008 58.6323 104.795 58.2395C104.582 57.8466 104.476 57.3834 104.476 56.8498C104.476 56.4457 104.535 56.0853 104.657 55.7671C104.777 55.4489 104.95 55.1758 105.176 54.9463C105.402 54.7168 105.673 54.5422 105.989 54.4239C106.304 54.3042 106.658 54.2451 107.048 54.2451C107.569 54.2451 108.022 54.3507 108.406 54.5633C108.79 54.7759 109.088 55.0758 109.301 55.4658C109.514 55.8558 109.62 56.3176 109.62 56.8512C109.62 57.2553 109.561 57.6172 109.441 57.9382C109.321 58.2606 109.147 58.5351 108.922 58.7646C108.696 58.9941 108.425 59.1687 108.108 59.287C107.792 59.4067 107.439 59.4672 107.048 59.4672V59.4658ZM107.048 58.4915C107.302 58.4915 107.525 58.4295 107.717 58.307C107.909 58.1846 108.059 58.0015 108.165 57.7579C108.271 57.5144 108.324 57.2131 108.324 56.8498C108.324 56.3035 108.207 55.8938 107.974 55.6235C107.741 55.3532 107.432 55.218 107.048 55.218C106.794 55.218 106.571 55.2786 106.379 55.3982C106.187 55.5179 106.037 55.6995 105.931 55.9417C105.826 56.1839 105.772 56.4866 105.772 56.8498C105.772 57.3905 105.889 57.7988 106.122 58.0761C106.355 58.3535 106.664 58.4915 107.048 58.4915Z" fill="#8DB1AE"/>
<path d="M111.337 59.4451C111.124 59.4451 110.962 59.3888 110.849 59.2762C110.736 59.1635 110.679 59.0002 110.679 58.789V54.9115C110.679 54.7003 110.734 54.5384 110.844 54.43C110.954 54.3202 111.108 54.2667 111.307 54.2667C111.506 54.2667 111.66 54.3216 111.77 54.43C111.881 54.5398 111.934 54.7003 111.934 54.9115V55.5578H111.831C111.927 55.1466 112.116 54.8369 112.397 54.6243C112.678 54.4117 113.052 54.285 113.518 54.2442C113.662 54.2301 113.777 54.2667 113.863 54.3512C113.949 54.437 113.998 54.568 114.012 54.7454C114.026 54.9172 113.987 55.0551 113.894 55.1607C113.801 55.2663 113.662 55.3297 113.477 55.3508L113.251 55.3705C112.834 55.4113 112.517 55.5395 112.306 55.7549C112.094 55.9703 111.986 56.273 111.986 56.663V58.7862C111.986 58.9988 111.931 59.1607 111.821 59.2733C111.711 59.386 111.55 59.4423 111.338 59.4423L111.337 59.4451Z" fill="#8DB1AE"/>
<path d="M115.349 53.3203C115.109 53.3203 114.922 53.2612 114.789 53.1415C114.656 53.0218 114.588 52.8557 114.588 52.6445C114.588 52.4333 114.655 52.2573 114.789 52.1419C114.923 52.0264 115.109 51.9673 115.349 51.9673C115.589 51.9673 115.784 52.025 115.914 52.1419C116.045 52.2587 116.11 52.4263 116.11 52.6445C116.11 52.8627 116.045 53.0218 115.914 53.1415C115.784 53.2612 115.595 53.3203 115.349 53.3203ZM115.349 59.435C115.143 59.435 114.985 59.3731 114.875 59.2506C114.765 59.1281 114.711 58.9563 114.711 58.7381V54.9733C114.711 54.7466 114.766 54.5748 114.875 54.4551C114.985 54.3355 115.143 54.2749 115.349 54.2749C115.555 54.2749 115.714 54.3355 115.828 54.4551C115.942 54.5748 115.997 54.7466 115.997 54.9733V58.7381C115.997 58.9577 115.942 59.1281 115.832 59.2506C115.722 59.3745 115.561 59.435 115.349 59.435Z" fill="#8DB1AE"/>
<path d="M65.1527 69.2216C64.9396 69.2216 64.7772 69.1625 64.6643 69.0428C64.5513 68.9232 64.4949 68.757 64.4949 68.5458V62.5029C64.4949 62.2847 64.5513 62.1157 64.6643 62.0003C64.7772 61.8848 64.9396 61.8257 65.1527 61.8257C65.3659 61.8257 65.5283 61.8834 65.6412 62.0003C65.7541 62.1171 65.8106 62.2847 65.8106 62.5029V64.9232H69.5447V62.5029C69.5447 62.2847 69.6012 62.1157 69.7141 62.0003C69.8271 61.8848 69.9908 61.8257 70.2026 61.8257C70.4144 61.8257 70.5781 61.8834 70.6911 62.0003C70.804 62.1171 70.8605 62.2847 70.8605 62.5029V68.5458C70.8605 68.7584 70.804 68.9232 70.6911 69.0428C70.5781 69.1625 70.4144 69.2216 70.2026 69.2216C69.9908 69.2216 69.8271 69.1625 69.7141 69.0428C69.6012 68.9232 69.5447 68.757 69.5447 68.5458V66.0214H65.8106V68.5458C65.8106 68.7584 65.7556 68.9232 65.6454 69.0428C65.5353 69.1625 65.3716 69.2216 65.1513 69.2216H65.1527Z" fill="#8DB1AE"/>
<path d="M74.6158 69.2412C74.0948 69.2412 73.6416 69.1356 73.2576 68.923C72.8736 68.7104 72.5758 68.4077 72.3626 68.0149C72.1494 67.622 72.0435 67.1588 72.0435 66.6252C72.0435 66.2211 72.1028 65.8607 72.2242 65.5425C72.3442 65.2243 72.5179 64.9512 72.7438 64.7217C72.9697 64.4922 73.2407 64.3176 73.5569 64.1993C73.8718 64.0796 74.2261 64.0205 74.6158 64.0205C75.1367 64.0205 75.5899 64.1261 75.9739 64.3387C76.3579 64.5513 76.6558 64.8512 76.8689 65.2412C77.0821 65.6312 77.188 66.093 77.188 66.6266C77.188 67.0307 77.1287 67.3925 77.0087 67.7136C76.8887 68.036 76.715 68.3105 76.4892 68.54C76.2633 68.7695 75.9922 68.9441 75.676 69.0624C75.3598 69.182 75.0068 69.2426 74.6158 69.2426V69.2412ZM74.6158 68.2669C74.8699 68.2669 75.0929 68.2049 75.2849 68.0824C75.4769 67.9599 75.6266 67.7769 75.7325 67.5333C75.8383 67.2898 75.892 66.9885 75.892 66.6252C75.892 66.0789 75.7748 65.6692 75.5419 65.3989C75.3089 65.1286 74.9998 64.9934 74.6158 64.9934C74.3616 64.9934 74.1386 65.0539 73.9466 65.1736C73.7546 65.2933 73.6049 65.4749 73.4991 65.7171C73.3932 65.9593 73.3395 66.262 73.3395 66.6252C73.3395 67.1659 73.4567 67.5742 73.6896 67.8515C73.9226 68.1289 74.2318 68.2669 74.6158 68.2669Z" fill="#8DB1AE"/>
<path d="M80.0666 69.2415C79.6487 69.2415 79.3014 69.164 79.0275 69.0106C78.7536 68.8571 78.5489 68.6262 78.4162 68.3179C78.2821 68.0095 78.2158 67.628 78.2158 67.169V64.6868C78.2158 64.4685 78.2708 64.3052 78.3809 64.1996C78.4911 64.094 78.6478 64.0405 78.8539 64.0405C79.06 64.0405 79.2195 64.094 79.3325 64.1996C79.4454 64.3052 79.5019 64.4685 79.5019 64.6868V67.1901C79.5019 67.5463 79.5739 67.8082 79.7179 67.98C79.8619 68.1503 80.092 68.2362 80.4068 68.2362C80.7499 68.2362 81.0308 68.1179 81.2496 67.8828C81.4685 67.6477 81.5786 67.3337 81.5786 66.9437V64.6868C81.5786 64.4685 81.6336 64.3052 81.7437 64.1996C81.8539 64.094 82.0106 64.0405 82.2167 64.0405C82.4228 64.0405 82.5823 64.094 82.6953 64.1996C82.8082 64.3052 82.8647 64.4685 82.8647 64.6868V68.5643C82.8647 69.0021 82.6557 69.2204 82.2364 69.2204C82.0374 69.2204 81.8835 69.164 81.7734 69.0514C81.6633 68.9388 81.6082 68.7755 81.6082 68.5643V67.7843L81.7522 68.0926C81.6082 68.4615 81.3908 68.7459 81.0986 68.9444C80.8063 69.1429 80.4619 69.2429 80.0652 69.2429L80.0666 69.2415Z" fill="#8DB1AE"/>
<path d="M86.044 69.2416C85.7489 69.2416 85.4369 69.2106 85.108 69.1487C84.779 69.0867 84.484 68.9811 84.2228 68.8305C84.1127 68.7615 84.0364 68.6812 83.9913 68.5897C83.9461 68.4982 83.9292 68.4053 83.9404 68.3124C83.9503 68.2194 83.9842 68.1392 84.0435 68.0716C84.1014 68.004 84.1776 67.959 84.2694 67.9378C84.3626 67.9167 84.4628 67.935 84.5729 67.9899C84.8468 68.1195 85.1037 68.2096 85.3437 68.2617C85.5837 68.3124 85.8209 68.3377 86.0538 68.3377C86.3828 68.3377 86.6284 68.2814 86.7894 68.1688C86.9503 68.0561 87.0308 67.9069 87.0308 67.7224C87.0308 67.5647 86.9771 67.4437 86.8713 67.3578C86.7654 67.2719 86.6058 67.2085 86.3927 67.1677L85.3635 66.972C84.9386 66.8903 84.6139 66.7341 84.3908 66.506C84.1677 66.2765 84.0562 65.9808 84.0562 65.619C84.0562 65.2909 84.1466 65.0065 84.3287 64.7672C84.5108 64.5278 84.7621 64.3434 85.0854 64.2138C85.4073 64.0843 85.7786 64.0195 86.1964 64.0195C86.4986 64.0195 86.7809 64.0519 87.0449 64.1167C87.3089 64.1814 87.5644 64.2828 87.8115 64.4194C87.9145 64.4743 87.9851 64.5461 88.0218 64.6348C88.06 64.7235 88.0684 64.8136 88.0473 64.9065C88.0261 64.9995 87.9851 65.0811 87.9244 65.1529C87.8623 65.2247 87.7861 65.2698 87.6929 65.2867C87.5997 65.3036 87.4953 65.2853 87.3795 65.2304C87.1663 65.1205 86.963 65.0431 86.7668 64.9938C86.572 64.946 86.3842 64.922 86.2063 64.922C85.8703 64.922 85.6218 64.9798 85.4609 65.0966C85.3 65.2135 85.2195 65.3669 85.2195 65.5584C85.2195 65.702 85.2675 65.8217 85.3635 65.9174C85.4595 66.0132 85.6063 66.0779 85.8054 66.1117L86.8346 66.3074C87.2807 66.3891 87.6181 66.5398 87.8482 66.7594C88.0783 66.979 88.1927 67.2719 88.1927 67.6422C88.1927 68.1406 87.9978 68.5334 87.6068 68.8164C87.2157 69.0994 86.6948 69.2416 86.044 69.2416Z" fill="#8DB1AE"/>
<path d="M91.7009 69.2412C91.1319 69.2412 90.6407 69.1356 90.2298 68.923C89.8176 68.7104 89.5014 68.4105 89.2783 68.0205C89.0553 67.6305 88.9437 67.1687 88.9437 66.6365C88.9437 66.1043 89.051 65.6622 89.2684 65.2722C89.4858 64.8822 89.7823 64.5766 90.1635 64.3542C90.5447 64.1317 90.9781 64.0205 91.4651 64.0205C91.8209 64.0205 92.1428 64.0782 92.4265 64.1951C92.7103 64.312 92.9545 64.4795 93.1564 64.6977C93.3583 64.9174 93.5136 65.1821 93.6195 65.4932C93.7254 65.8044 93.779 66.155 93.779 66.545C93.779 66.6675 93.7366 66.7618 93.6505 66.8266C93.5644 66.8913 93.443 66.9237 93.2849 66.9237H89.9828V66.1845H92.8726L92.7075 66.338C92.7075 66.024 92.6609 65.7607 92.5691 65.5481C92.4759 65.3369 92.3432 65.1736 92.1682 65.061C91.9931 64.9483 91.7757 64.892 91.5145 64.892C91.2265 64.892 90.9809 64.9582 90.779 65.092C90.5771 65.2257 90.4218 65.413 90.316 65.6565C90.2101 65.8987 90.1564 66.1887 90.1564 66.5238V66.5956C90.1564 67.156 90.2877 67.5756 90.5531 67.8529C90.8171 68.1303 91.2068 68.2683 91.7207 68.2683C91.8985 68.2683 92.099 68.2458 92.3221 68.2021C92.5451 68.1585 92.7555 68.081 92.9545 67.9712C93.0985 67.8895 93.2256 67.8529 93.3357 67.8642C93.4458 67.8741 93.5334 67.9135 93.5983 67.9825C93.6632 68.0515 93.7028 68.1345 93.7169 68.2331C93.731 68.3331 93.7112 68.433 93.6604 68.5358C93.6096 68.6386 93.5221 68.7273 93.3978 68.8019C93.1578 68.9526 92.8811 69.0638 92.5691 69.1356C92.2571 69.2074 91.9677 69.2426 91.6995 69.2426L91.7009 69.2412Z" fill="#8DB1AE"/>
<path d="M99.8792 69.2412C99.3583 69.2412 98.9051 69.1356 98.5211 68.923C98.1371 68.7104 97.8392 68.4077 97.6261 68.0149C97.4129 67.622 97.307 67.1588 97.307 66.6252C97.307 66.2211 97.3663 65.8607 97.4877 65.5425C97.6077 65.2243 97.7813 64.9512 98.0072 64.7217C98.2331 64.4922 98.5042 64.3176 98.8204 64.1993C99.1352 64.0796 99.4896 64.0205 99.8792 64.0205C100.4 64.0205 100.853 64.1261 101.237 64.3387C101.621 64.5513 101.919 64.8512 102.132 65.2412C102.346 65.6312 102.451 66.093 102.451 66.6266C102.451 67.0307 102.392 67.3925 102.272 67.7136C102.152 68.036 101.979 68.3105 101.753 68.54C101.527 68.7695 101.256 68.9441 100.939 69.0624C100.623 69.182 100.27 69.2426 99.8792 69.2426V69.2412ZM99.8792 68.2669C100.133 68.2669 100.356 68.2049 100.548 68.0824C100.74 67.9599 100.89 67.7769 100.996 67.5333C101.102 67.2898 101.155 66.9885 101.155 66.6252C101.155 66.0789 101.038 65.6692 100.805 65.3989C100.572 65.1286 100.263 64.9934 99.8792 64.9934C99.6251 64.9934 99.402 65.0539 99.21 65.1736C99.018 65.2933 98.8684 65.4749 98.7625 65.7171C98.6566 65.9593 98.603 66.262 98.603 66.6252C98.603 67.1659 98.7202 67.5742 98.9531 67.8515C99.186 68.1289 99.4952 68.2669 99.8792 68.2669Z" fill="#8DB1AE"/>
<path d="M104.445 69.2219C104.239 69.2219 104.079 69.1656 103.966 69.0529C103.853 68.9403 103.797 68.777 103.797 68.5658V65.0882H103.324C103.159 65.0882 103.032 65.0459 102.943 64.96C102.854 64.8742 102.809 64.7573 102.809 64.6066C102.809 64.456 102.854 64.3293 102.943 64.2476C103.032 64.166 103.159 64.1237 103.324 64.1237H104.167L103.797 64.463V64.1139C103.797 63.4099 103.975 62.8805 104.332 62.5285C104.689 62.1765 105.203 61.9696 105.875 61.9076L106.225 61.8766C106.362 61.8626 106.472 61.8851 106.554 61.9428C106.636 62.0005 106.691 62.0766 106.719 62.1681C106.746 62.261 106.75 62.3539 106.729 62.4497C106.708 62.5454 106.666 62.6285 106.601 62.7003C106.536 62.7721 106.451 62.8115 106.348 62.8185L106.204 62.8284C105.813 62.8552 105.528 62.9551 105.35 63.1255C105.172 63.2972 105.083 63.5563 105.083 63.9055V64.2856L104.918 64.1209H105.957C106.122 64.1209 106.248 64.1617 106.338 64.2448C106.428 64.3279 106.472 64.4461 106.472 64.6038C106.472 64.7615 106.427 64.8727 106.338 64.9572C106.249 65.0431 106.122 65.0853 105.957 65.0853H105.083V68.563C105.083 69.0008 104.87 69.2191 104.445 69.2191V69.2219Z" fill="#8DB1AE"/>
<path d="M113.487 69.2415C112.733 69.2415 112.087 69.0894 111.549 68.7853C111.011 68.4812 110.597 68.0503 110.309 67.4928C110.021 66.9352 109.877 66.2777 109.877 65.5189C109.877 64.9515 109.959 64.4404 110.124 63.9856C110.29 63.5308 110.525 63.1408 110.834 62.8156C111.144 62.4904 111.522 62.2411 111.971 62.0666C112.42 61.892 112.925 61.8047 113.489 61.8047C113.866 61.8047 114.235 61.8526 114.6 61.9483C114.964 62.044 115.283 62.1806 115.555 62.3594C115.701 62.4481 115.797 62.5565 115.843 62.6818C115.891 62.8086 115.901 62.9325 115.874 63.0507C115.848 63.169 115.79 63.2704 115.705 63.3534C115.619 63.4351 115.513 63.4816 115.386 63.4914C115.259 63.5013 115.121 63.459 114.97 63.3633C114.756 63.2267 114.528 63.1267 114.281 63.0662C114.034 63.0043 113.784 62.9733 113.53 62.9733C113.042 62.9733 112.632 63.0732 112.296 63.2704C111.96 63.4689 111.706 63.7561 111.535 64.132C111.364 64.5079 111.278 64.9698 111.278 65.5174C111.278 66.0651 111.364 66.5199 111.535 66.9015C111.706 67.2844 111.96 67.5759 112.296 67.773C112.632 67.9715 113.042 68.0701 113.53 68.0701C113.791 68.0701 114.048 68.0377 114.3 67.9729C114.554 67.9081 114.794 67.8068 115.02 67.6702C115.171 67.5815 115.307 67.5421 115.427 67.5519C115.547 67.5618 115.647 67.6054 115.73 67.6801C115.812 67.7561 115.867 67.849 115.896 67.9616C115.922 68.0743 115.917 68.1911 115.874 68.3108C115.832 68.4305 115.752 68.5347 115.627 68.6234C115.354 68.8219 115.026 68.974 114.645 69.0796C114.264 69.1852 113.878 69.2387 113.487 69.2387V69.2415Z" fill="#8DB1AE"/>
<path d="M117.622 69.2217C117.416 69.2217 117.259 69.1654 117.149 69.0527C117.039 68.9401 116.984 68.7768 116.984 68.5656V62.472C116.984 62.2608 117.039 62.0989 117.149 61.9905C117.259 61.8807 117.416 61.8271 117.622 61.8271C117.828 61.8271 117.986 61.8821 118.101 61.9905C118.214 62.1003 118.27 62.2608 118.27 62.472V65.1288H118.126C118.277 64.7655 118.513 64.491 118.831 64.3023C119.15 64.1137 119.511 64.0207 119.916 64.0207C120.322 64.0207 120.653 64.0954 120.914 64.246C121.176 64.3967 121.37 64.6233 121.5 64.9289C121.63 65.233 121.695 65.6173 121.695 66.0834V68.5656C121.695 68.7782 121.64 68.9401 121.53 69.0527C121.421 69.1654 121.263 69.2217 121.057 69.2217C120.851 69.2217 120.693 69.1654 120.578 69.0527C120.466 68.9401 120.409 68.7768 120.409 68.5656V66.1453C120.409 65.7553 120.336 65.4723 120.189 65.2935C120.041 65.1161 119.813 65.026 119.504 65.026C119.127 65.026 118.826 65.1443 118.603 65.3794C118.38 65.6159 118.269 65.9285 118.269 66.3185V68.5656C118.269 69.0035 118.053 69.2217 117.621 69.2217H117.622Z" fill="#8DB1AE"/>
<path d="M123.641 63.0972C123.399 63.0972 123.213 63.038 123.08 62.9184C122.946 62.7987 122.88 62.6326 122.88 62.4214C122.88 62.2102 122.946 62.0342 123.08 61.9187C123.213 61.8033 123.401 61.7441 123.641 61.7441C123.881 61.7441 124.075 61.8019 124.205 61.9187C124.337 62.0356 124.401 62.2031 124.401 62.4214C124.401 62.6396 124.337 62.7987 124.205 62.9184C124.075 63.038 123.886 63.0972 123.641 63.0972ZM123.641 69.2119C123.434 69.2119 123.276 69.1499 123.166 69.0275C123.057 68.905 123.002 68.7332 123.002 68.515V64.7501C123.002 64.5234 123.057 64.3517 123.166 64.232C123.276 64.1123 123.434 64.0518 123.641 64.0518C123.847 64.0518 124.005 64.1123 124.119 64.232C124.233 64.3517 124.289 64.5234 124.289 64.7501V68.515C124.289 68.7346 124.233 68.905 124.123 69.0275C124.013 69.1514 123.852 69.2119 123.641 69.2119Z" fill="#8DB1AE"/>
<path d="M127.344 69.2414C126.773 69.2414 126.345 69.0795 126.057 68.7543C125.769 68.429 125.625 67.9531 125.625 67.3238V62.472C125.625 62.2608 125.681 62.0989 125.791 61.9905C125.901 61.8807 126.057 61.8271 126.264 61.8271C126.47 61.8271 126.628 61.8821 126.742 61.9905C126.855 62.1003 126.912 62.2608 126.912 62.472V67.2632C126.912 67.5786 126.978 67.8095 127.112 67.9602C127.246 68.1108 127.437 68.1854 127.682 68.1854C127.737 68.1854 127.788 68.184 127.838 68.1798C127.884 68.1756 127.934 68.1714 127.982 68.1643C128.078 68.1502 128.143 68.1756 128.177 68.2418C128.21 68.3065 128.227 68.4389 128.227 68.636C128.227 68.8078 128.193 68.9401 128.124 69.0358C128.055 69.1316 127.942 69.1893 127.784 69.2104C127.715 69.2175 127.643 69.2245 127.568 69.2315C127.493 69.2386 127.417 69.2414 127.342 69.2414H127.344Z" fill="#8DB1AE"/>
<path d="M130.788 69.2413C130.349 69.2413 129.964 69.1358 129.631 68.9232C129.297 68.7105 129.039 68.4078 128.854 68.015C128.669 67.6222 128.576 67.159 128.576 66.6254C128.576 66.0918 128.669 65.6215 128.854 65.2357C129.039 64.8485 129.297 64.5501 129.631 64.3375C129.964 64.1249 130.349 64.0193 130.788 64.0193C131.227 64.0193 131.572 64.122 131.884 64.3276C132.196 64.5332 132.406 64.8035 132.516 65.1386H132.403V62.4705C132.403 62.2593 132.458 62.0974 132.569 61.989C132.677 61.8792 132.835 61.8257 133.041 61.8257C133.248 61.8257 133.406 61.8806 133.52 61.989C133.633 62.0988 133.689 62.2593 133.689 62.4705V68.5641C133.689 68.7767 133.634 68.9386 133.524 69.0513C133.414 69.1639 133.257 69.2202 133.051 69.2202C132.845 69.2202 132.689 69.1639 132.578 69.0513C132.468 68.9386 132.413 68.7753 132.413 68.5641V67.7644L132.526 68.0727C132.423 68.429 132.214 68.712 131.898 68.9246C131.583 69.1372 131.212 69.2428 130.787 69.2428L130.788 69.2413ZM131.148 68.267C131.401 68.267 131.625 68.2051 131.816 68.0826C132.008 67.9601 132.156 67.7771 132.264 67.5335C132.369 67.2899 132.423 66.9886 132.423 66.6254C132.423 66.0791 132.306 65.6694 132.073 65.3991C131.84 65.1287 131.531 64.9936 131.147 64.9936C130.893 64.9936 130.67 65.0541 130.478 65.1738C130.286 65.2935 130.137 65.4751 130.03 65.7173C129.924 65.9608 129.872 66.2621 129.872 66.6254C129.872 67.166 129.988 67.5743 130.221 67.8517C130.454 68.1291 130.763 68.267 131.147 68.267H131.148Z" fill="#8DB1AE"/>
<path d="M135.684 69.2215C135.471 69.2215 135.309 69.1652 135.196 69.0525C135.083 68.9399 135.026 68.7766 135.026 68.5654V64.6879C135.026 64.4767 135.081 64.3148 135.19 64.2064C135.3 64.0965 135.456 64.043 135.653 64.043C135.851 64.043 136.006 64.098 136.116 64.2064C136.225 64.3162 136.281 64.4767 136.281 64.6879V65.3341H136.178C136.274 64.923 136.464 64.6133 136.745 64.4007C137.025 64.1881 137.4 64.0613 137.867 64.0205C138.011 64.0064 138.125 64.043 138.211 64.1275C138.297 64.212 138.347 64.3443 138.361 64.5217C138.374 64.6935 138.334 64.8315 138.242 64.9371C138.149 65.0427 138.011 65.106 137.826 65.1272L137.599 65.1469C137.181 65.1877 136.865 65.3158 136.653 65.5312C136.441 65.7467 136.334 66.0494 136.334 66.4394V68.5626C136.334 68.7752 136.279 68.9371 136.169 69.0497C136.058 69.1623 135.897 69.2187 135.684 69.2187V69.2215Z" fill="#8DB1AE"/>
<path d="M141.456 69.2412C140.887 69.2412 140.397 69.1356 139.984 68.923C139.574 68.7104 139.256 68.4105 139.033 68.0205C138.81 67.6305 138.698 67.1687 138.698 66.6365C138.698 66.1043 138.806 65.6622 139.022 65.2722C139.239 64.8822 139.536 64.5766 139.917 64.3542C140.298 64.1317 140.731 64.0205 141.218 64.0205C141.576 64.0205 141.896 64.0782 142.18 64.1951C142.464 64.312 142.708 64.4795 142.91 64.6977C143.112 64.9174 143.267 65.1821 143.373 65.4932C143.479 65.8044 143.531 66.155 143.531 66.545C143.531 66.6675 143.488 66.7618 143.402 66.8266C143.316 66.8913 143.195 66.9237 143.037 66.9237H139.736V66.1845H142.626L142.461 66.338C142.461 66.024 142.414 65.7607 142.322 65.5481C142.229 65.3369 142.096 65.1736 141.921 65.061C141.746 64.9483 141.529 64.892 141.269 64.892C140.981 64.892 140.736 64.9582 140.534 65.092C140.332 65.2257 140.176 65.413 140.071 65.6565C139.963 65.8987 139.911 66.1887 139.911 66.5238V66.5956C139.911 67.156 140.044 67.5756 140.308 67.8529C140.572 68.1303 140.961 68.2683 141.475 68.2683C141.655 68.2683 141.854 68.2458 142.078 68.2021C142.301 68.1585 142.512 68.081 142.711 67.9712C142.856 67.8895 142.982 67.8529 143.092 67.8642C143.2 67.8741 143.288 67.9135 143.354 67.9825C143.419 68.0515 143.459 68.1345 143.473 68.2331C143.486 68.3331 143.467 68.433 143.416 68.5358C143.366 68.6386 143.278 68.7273 143.154 68.8019C142.914 68.9526 142.637 69.0638 142.325 69.1356C142.013 69.2074 141.724 69.2426 141.456 69.2426V69.2412Z" fill="#8DB1AE"/>
<path d="M145.19 69.2215C144.984 69.2215 144.825 69.1652 144.715 69.0526C144.607 68.9399 144.552 68.7766 144.552 68.5654V64.6879C144.552 64.4767 144.607 64.3148 144.715 64.2064C144.825 64.0966 144.981 64.0431 145.178 64.0431C145.376 64.0431 145.531 64.098 145.641 64.2064C145.75 64.3162 145.807 64.4767 145.807 64.6879V65.3863L145.694 65.13C145.845 64.7668 146.079 64.4922 146.398 64.3036C146.717 64.1149 147.079 64.022 147.484 64.022C147.889 64.022 148.221 64.0966 148.482 64.2472C148.743 64.3979 148.938 64.6246 149.068 64.9301C149.198 65.2342 149.263 65.6186 149.263 66.0846V68.5668C149.263 68.7794 149.208 68.9413 149.097 69.054C148.987 69.1666 148.831 69.2229 148.624 69.2229C148.418 69.2229 148.259 69.1666 148.146 69.054C148.033 68.9413 147.975 68.778 147.975 68.5668V66.1466C147.975 65.7566 147.902 65.4736 147.755 65.2948C147.608 65.1159 147.379 65.0272 147.07 65.0272C146.693 65.0272 146.392 65.1455 146.169 65.3806C145.946 65.6158 145.835 65.9297 145.835 66.3197V68.5668C145.835 69.0047 145.619 69.2229 145.187 69.2229L145.19 69.2215Z" fill="#8DB1AE"/>
</g>
<defs>
<clipPath id="clip0_801_177">
<rect width="152" height="71" fill="white"/>
</clipPath>
</defs>
</svg>
