<svg width="1337" height="89" viewBox="0 0 1337 89" fill="none" xmlns="http://www.w3.org/2000/svg">
<mask id="path-1-outside-1_964_989" maskUnits="userSpaceOnUse" x="-18" y="0" width="1374" height="89" fill="black">
<rect fill="white" x="-18" width="1374" height="89"/>
<path fill-rule="evenodd" clip-rule="evenodd" d="M-8 2C-12.4183 2 -16 5.58172 -16 10V66C-16 70.4183 -12.4183 74 -8.00001 74H550.031C557.717 74 564.047 80.5566 570.58 84.6076C573.025 86.1243 575.91 87 579 87H759C762.09 87 764.975 86.1243 767.42 84.6076C773.953 80.5566 780.283 74 787.969 74H1346C1350.42 74 1354 70.4183 1354 66V10C1354 5.58172 1350.42 2 1346 2H759H579H-8Z"/>
</mask>
<path fill-rule="evenodd" clip-rule="evenodd" d="M-8 2C-12.4183 2 -16 5.58172 -16 10V66C-16 70.4183 -12.4183 74 -8.00001 74H550.031C557.717 74 564.047 80.5566 570.58 84.6076C573.025 86.1243 575.91 87 579 87H759C762.09 87 764.975 86.1243 767.42 84.6076C773.953 80.5566 780.283 74 787.969 74H1346C1350.42 74 1354 70.4183 1354 66V10C1354 5.58172 1350.42 2 1346 2H759H579H-8Z" fill="white"/>
<path d="M767.42 84.6076L766.366 82.9079L767.42 84.6076ZM570.58 84.6076L571.634 82.9079L570.58 84.6076ZM-14 10C-14 6.68629 -11.3137 4 -8 4V0C-13.5228 0 -18 4.47715 -18 10H-14ZM-14 66V10H-18V66H-14ZM-8.00001 72C-11.3137 72 -14 69.3137 -14 66H-18C-18 71.5229 -13.5229 76 -8.00001 76V72ZM550.031 72H-8.00001V76H550.031V72ZM579 85C576.294 85 573.772 84.234 571.634 82.9079L569.526 86.3073C572.279 88.0146 575.527 89 579 89V85ZM759 85H579V89H759V85ZM766.366 82.9079C764.228 84.234 761.706 85 759 85V89C762.473 89 765.721 88.0146 768.474 86.3073L766.366 82.9079ZM1346 72H787.969V76H1346V72ZM1352 66C1352 69.3137 1349.31 72 1346 72V76C1351.52 76 1356 71.5228 1356 66H1352ZM1352 10V66H1356V10H1352ZM1346 4C1349.31 4 1352 6.68628 1352 10H1356C1356 4.47716 1351.52 0 1346 0V4ZM759 4H1346V0H759V4ZM579 4H759V0H579V4ZM-8 4H579V0H-8V4ZM768.474 86.3073C770.179 85.2504 771.856 84.0389 773.481 82.8599C775.126 81.6661 776.719 80.5047 778.339 79.4703C781.591 77.3934 784.7 76 787.969 76V72C783.552 72 779.653 73.8849 776.186 76.0991C774.446 77.2102 772.751 78.4475 771.132 79.6224C769.492 80.8121 767.928 81.9393 766.366 82.9079L768.474 86.3073ZM550.031 76C553.3 76 556.409 77.3934 559.661 79.4703C561.281 80.5047 562.874 81.6661 564.519 82.8599C566.144 84.0389 567.821 85.2504 569.526 86.3073L571.634 82.9079C570.072 81.9393 568.508 80.8121 566.868 79.6224C565.249 78.4475 563.554 77.2102 561.814 76.0991C558.347 73.8849 554.448 72 550.031 72V76Z" fill="#63635E" mask="url(#path-1-outside-1_964_989)"/>
</svg>
