<svg width="20" height="20" viewBox="0 0 20 20" fill="none" xmlns="http://www.w3.org/2000/svg">
<path d="M16.9137 13.1632C16.8266 13.2506 16.7231 13.3199 16.6092 13.3673C16.4952 13.4146 16.3731 13.4389 16.2497 13.4389C16.1263 13.4389 16.0041 13.4146 15.8902 13.3673C15.7762 13.3199 15.6727 13.2506 15.5856 13.1632L10.0005 7.57803L4.41374 13.1632C4.23762 13.3393 3.99874 13.4383 3.74967 13.4383C3.5006 13.4383 3.26173 13.3393 3.08561 13.1632C2.90949 12.9871 2.81055 12.7482 2.81055 12.4991C2.81055 12.2501 2.90949 12.0112 3.08561 11.8351L9.33561 5.58507C9.42271 5.49767 9.5262 5.42832 9.64016 5.381C9.75411 5.33368 9.87628 5.30933 9.99967 5.30933C10.1231 5.30933 10.2452 5.33368 10.3592 5.381C10.4731 5.42832 10.5766 5.49767 10.6637 5.58507L16.9137 11.8351C17.0011 11.9222 17.0705 12.0257 17.1178 12.1396C17.1651 12.2536 17.1895 12.3757 17.1895 12.4991C17.1895 12.6225 17.1651 12.7447 17.1178 12.8586C17.0705 12.9726 17.0011 13.0761 16.9137 13.1632Z" fill="#9BBA3C"/>
</svg>
