<svg width="102" height="46" viewBox="0 0 102 46" fill="none" xmlns="http://www.w3.org/2000/svg">
<g clip-path="url(#clip0_345_21)">
<path d="M6.26225 13.89C5.79025 9.94823 2.47117 9.56222 0.788555 9.62609C0.239302 9.64675 -0.132834 10.1849 0.0433415 10.7033C0.520052 12.1112 1.9662 14.4761 6.26225 13.89Z" fill="#8DB1AE"/>
<path d="M24.8681 42.3146C28.7901 42.9964 35.4367 42.6424 37.7713 40.3347C39.0592 39.0621 39.6621 37.2645 40.0927 35.4002C40.4224 33.9679 40.6608 32.4276 40.6033 30.8103C40.5995 30.7061 40.5816 30.6009 40.5543 30.4985C40.0437 31.248 39.5057 31.9177 39.0422 32.4389C34.0104 38.1906 24.3838 42.0939 17.6929 36.8297C16.5765 35.9468 15.6372 34.8893 14.8883 33.7294C14.8883 33.7294 14.8873 33.7284 14.8864 33.7284C13.9697 33.7162 13.0709 33.6796 12.2004 33.6139C11.9253 33.5941 11.7548 33.905 11.9178 34.1267C15.0126 38.3465 19.6865 41.4552 24.8681 42.3146Z" fill="#8DB1AE"/>
<path d="M37.9343 31.359C40.7927 28.5789 39.2768 29.4392 39.0545 29.5416C37.7854 30.1286 35.9596 30.74 33.789 31.3101C33.6919 31.7365 33.5666 32.1526 33.4008 32.5508C32.8714 33.8215 31.9631 35.0613 30.7704 36.0728C33.4234 34.927 35.9521 33.2862 37.9333 31.359H37.9343Z" fill="#8DB1AE"/>
<path d="M31.0879 44.1252C27.1989 44.6155 23.1158 44.097 19.5706 42.3689C16.0395 40.6342 13.7059 38.7042 11.1085 34.0429C10.7674 33.4306 9.29209 35.4593 13.3338 41.1452C14.778 43.1776 16.9016 44.4464 19.3171 45.2419C21.7318 46.0374 24.446 46.2074 27.4598 45.75C29.7011 45.41 31.7012 44.778 33.4592 43.8566C33.5817 43.7918 33.6995 43.7232 33.8191 43.6566C32.9156 43.8576 32.0046 44.0172 31.0879 44.1262V44.1252Z" fill="#8DB1AE"/>
<path d="M39.1609 13.4982C36.2517 2.48703 29.7464 -0.806732 21.7638 0.159702C19.4236 0.44334 17.4169 1.46143 15.8634 2.95381C13.199 5.51407 13.6635 9.78741 13.6635 9.78741L12.9004 5.7977C12.6686 4.5852 12.1778 3.72583 11.4307 3.21867C10.6827 2.71338 9.74054 2.5678 8.60247 2.78382C7.46439 3.00077 6.64098 3.48164 6.13318 4.22643C5.62444 4.97215 5.48783 5.95173 5.71959 7.1633L9.96382 29.3424C10.1956 30.5549 10.6874 31.4246 11.4392 31.9506C12.1213 32.4286 12.989 32.6456 14.014 32.4474C20.3064 31.2302 15.5289 24.1675 15.7569 17.393C15.9924 10.4045 25.9223 6.39691 29.3723 14.3482C30.3324 16.559 33.7136 15.7504 33.7136 15.7504L31.3282 18.8845C31.3282 18.8845 33.8474 23.8059 34.0226 28.4943C37.744 27.2518 39.2504 25.1442 39.7874 23.3025C40.3018 21.5349 40.6108 18.9859 39.1609 13.4982Z" fill="#8DB1AE"/>
<path d="M89.1392 36.8924C86.929 36.5289 85.0702 35.7945 83.5647 34.6919C82.0582 33.5892 80.9757 32.1823 80.3181 30.473C79.6596 28.7636 79.506 26.8477 79.8574 24.7251C80.1241 23.1125 80.6196 21.7112 81.3432 20.5194C82.0658 19.3275 82.9881 18.3611 84.1073 17.621C85.2266 16.8809 86.4984 16.386 87.9248 16.138C89.3502 15.8901 90.8981 15.9032 92.5694 16.1775C94.7787 16.5409 96.6375 17.2754 98.1439 18.378C99.6494 19.4816 100.726 20.88 101.373 22.5734C102.021 24.2677 102.167 26.1884 101.811 28.3382C101.548 29.9236 101.053 31.3183 100.329 32.5242C99.6032 33.7292 98.6866 34.7041 97.5815 35.446C96.4754 36.1889 95.2026 36.683 93.764 36.929C92.3245 37.1751 90.7832 37.1629 89.1392 36.8924ZM90.0135 31.6132C90.7408 31.7325 91.4181 31.6583 92.0437 31.3887C92.6693 31.1192 93.1987 30.6411 93.6312 29.9527C94.0627 29.2652 94.3773 28.3297 94.5733 27.1473C94.871 25.3478 94.7353 23.9935 94.1663 23.0853C93.5963 22.178 92.7729 21.6342 91.6951 21.4576C90.9678 21.3384 90.2914 21.406 89.6677 21.6624C89.044 21.9188 88.5089 22.3893 88.0633 23.0749C87.6177 23.7615 87.2945 24.7082 87.0938 25.9169C86.7999 27.6901 86.9365 29.0379 87.5046 29.9592C88.0718 30.8806 88.9074 31.4319 90.0125 31.6141L90.0135 31.6132Z" fill="#8DB1AE"/>
<path d="M46.4576 14.0271C45.4175 14.1436 43.9695 13.2382 43.5757 12.0266C43.3486 11.3288 43.5069 10.4939 44.0684 10.2685C45.3855 9.74156 45.8603 11.0207 46.1505 11.064C46.3973 11.1015 46.6903 9.47107 47.9895 9.82797C48.566 9.98669 48.9768 10.5061 48.8487 11.434C48.7064 12.4577 47.785 13.8768 46.4576 14.0262V14.0271Z" fill="#8DB1AE"/>
<path d="M45.8452 33.6959C45.051 33.2179 44.7222 32.1509 44.579 30.8783L43.3759 19.638C43.2327 18.3663 43.4343 17.3576 43.9827 16.61C44.531 15.8634 45.3751 15.4267 46.5151 15.298C47.6814 15.1674 48.6226 15.4041 49.3376 16.009C50.0518 16.6138 50.4814 17.553 50.6246 18.8247L51.8276 30.065C52.0698 32.0401 52.6633 32.4731 52.6633 32.4731C52.6633 32.4731 48.9071 35.5405 45.8462 33.6959H45.8452Z" fill="#8DB1AE"/>
<path d="M63.442 34.4714C61.7189 34.4939 60.1682 34.014 58.8097 32.994C57.4521 31.974 56.3799 30.4769 55.6394 28.5103C54.8999 26.5455 54.5833 24.2153 54.7444 21.5809C54.9093 18.8797 55.5085 16.636 56.4676 14.8863C57.4276 13.1347 58.6552 11.8949 60.1079 11.152C61.5606 10.4072 63.1396 10.2213 64.8326 10.5387C66.3127 10.8149 67.6703 11.3408 68.6501 12.4181C69.9615 13.8607 70.1923 15.6639 70.1942 15.6658C70.5767 12.542 71.0892 9.44551 71.7289 6.3856C71.9917 5.12614 72.5184 4.24517 73.2815 3.74928C74.0455 3.25338 74.998 3.1604 76.137 3.44779C77.2497 3.72861 78.0401 4.25738 78.5187 5.02095C78.9973 5.7864 79.1056 6.74532 78.8598 7.92213C77.3448 15.1906 76.5949 22.6797 76.6618 30.2647C76.675 31.9487 77.4325 33.1584 77.4315 33.1565C77.4296 33.1245 72.9517 35.3805 70.4523 33.2222C69.7542 32.6089 69.4556 31.5514 69.4452 30.2403C69.4386 29.3912 69.4414 28.5441 69.4537 27.6969C69.3953 27.6857 69.4961 34.3164 63.4402 34.4723L63.442 34.4714ZM65.6739 28.3882C66.4125 28.4126 67.0701 28.2257 67.6486 27.8378C68.228 27.4499 68.6811 26.8535 69.0194 26.0486C69.3566 25.2447 69.5526 24.1975 69.627 22.8976C69.741 20.9216 69.5159 19.4733 68.8931 18.5191C68.2704 17.5667 67.4253 17.0107 66.34 16.868C65.608 16.7722 64.9353 16.883 64.3239 17.2089C63.7124 17.5358 63.2018 18.1058 62.8005 18.9258C62.3991 19.7447 62.1447 20.8661 62.0609 22.2825C61.9394 24.36 62.255 25.904 62.9455 26.8789C63.6371 27.8557 64.5519 28.3515 65.673 28.3882H65.6739Z" fill="#8DB1AE"/>
</g>
<defs>
<clipPath id="clip0_345_21">
<rect width="102" height="46" fill="white"/>
</clipPath>
</defs>
</svg>
